<svg viewBox="0 0 34 34" xmlns="http://www.w3.org/2000/svg" xmlns:xlink="http://www.w3.org/1999/xlink" width="34.000000" height="34.000000" fill="none">
	<rect id="svg 5" width="34.000000" height="34.000000" x="0.000000" y="0.000000" />
	<path id="Форма 61" d="M29.6984 5.66732L24.043 5.66732M26.8706 2.83398C27.5858 3.39105 29.6984 4.87373 29.6984 5.66732C29.6984 6.46091 27.5858 7.94359 26.8706 8.50065" stroke="rgb(51,196,233)" stroke-linecap="round" stroke-linejoin="round" stroke-width="2.12500048" />
	<path id="Форма 62" d="M4.24902 5.66732L9.90457 5.66732M7.0768 8.50065C6.3618 7.94359 4.24902 6.46091 4.24902 5.66732C4.24902 4.87373 6.3618 3.39105 7.0768 2.83398" stroke="rgb(51,196,233)" stroke-linecap="round" stroke-linejoin="round" stroke-width="2.12500048" />
	<path id="Форма 63" d="M13.9041 31.1672L13.9041 29.834C13.9041 28.9161 13.6069 28.0228 13.0569 27.2878L7.64141 20.0503C7.19138 19.4488 6.85577 18.7197 7.06242 17.9974C7.5727 16.214 9.5873 14.6283 11.8413 17.421L14.1082 19.84L14.1082 5.09092C14.2473 2.49952 18.6038 1.68106 19.0541 5.09092L19.0541 13.4962C21.1545 13.2258 31.0474 14.7019 29.6082 20.9546C29.5393 21.2534 29.4706 21.5567 29.4033 21.8559C29.1109 23.1565 28.2487 25.4714 27.298 26.825C26.3076 28.2351 26.7702 30.508 26.6571 31.169" fill-rule="nonzero" stroke="rgb(51,196,233)" stroke-linecap="round" stroke-linejoin="round" stroke-width="2.12500048" />
</svg>
