<svg viewBox="0 0 52 52" xmlns="http://www.w3.org/2000/svg" xmlns:xlink="http://www.w3.org/1999/xlink" width="52.000000" height="52.000000" fill="none">
	<rect id="icon/VK" width="52.000000" height="52.000000" x="0.000000" y="0.000000" fill="rgb(255,255,255)" fill-opacity="0" />
	<path id="path" d="M27.8932 36.645C16.0416 36.645 9.28167 28.52 9 15L14.9367 15C15.1317 24.9233 19.5082 29.1267 22.9749 29.9933L22.9749 15L28.5651 15L28.5651 23.5583C31.9884 23.19 35.5847 19.29 36.798 15L42.3881 15C41.4565 20.2867 37.5564 24.1867 34.7831 25.79C37.5564 27.09 41.9983 30.4917 43.6883 36.645L37.5348 36.645C36.2131 32.5283 32.9201 29.3433 28.5651 28.91L28.5651 36.645L27.8932 36.645Z" fill="rgb(0,44,62)" fill-rule="nonzero" />
</svg>
