<svg viewBox="0 0 559 51" xmlns="http://www.w3.org/2000/svg" xmlns:xlink="http://www.w3.org/1999/xlink" width="559.000000" height="51.000000" fill="none" customFrame="url(#clipPath_1)">
	<defs>
		<linearGradient id="paint_linear_1" x1="180.999878" x2="194.499985" y1="-24.9999847" y2="69.5000458" gradientUnits="userSpaceOnUse">
			<stop stop-color="rgb(230,248,252)" offset="0" stop-opacity="1" />
			<stop stop-color="rgb(230,248,252)" offset="0.466863453" stop-opacity="0" />
			<stop stop-color="rgb(230,248,252)" offset="1" stop-opacity="0.886274517" />
		</linearGradient>
		<radialGradient id="paint_radial_1" cx="0" cy="0" r="1" gradientUnits="userSpaceOnUse" gradientTransform="matrix(278.478,0,0,24.498,279.501,1.00195)">
			<stop stop-color="rgb(52,213,168)" offset="0" stop-opacity="1" />
			<stop stop-color="rgb(92,249,209)" offset="1" stop-opacity="0" />
		</radialGradient>
		<clipPath id="clipPath_1">
			<rect width="559.000000" height="51.000000" x="0.000000" y="0.000000" rx="25.500000" fill="rgb(255,255,255)" />
		</clipPath>
	</defs>
	<rect id="фрейм 483" width="557.000000" height="49.000000" x="1.000000" y="1.000000" rx="24.500000" fill="rgb(230,248,252)" fill-opacity="0.0799999982" />
	<rect id="фрейм 483" width="557.000000" height="49.000000" x="1.000000" y="1.000000" rx="24.500000" stroke="url(#paint_linear_1)" stroke-opacity="0.600000024" stroke-width="2" />
	<rect id="фрейм 483" width="557.000000" height="49.000000" x="1.000000" y="1.000000" rx="24.500000" stroke="url(#paint_radial_1)" stroke-width="2" />
	<path id="" d="M26.7627 33L26.7627 18.8984L38.5498 18.8984L38.5498 33L36.9043 33L36.9043 20.2998L28.3887 20.2998L28.3887 33L26.7627 33ZM41.5793 37.541L41.1984 36.1982C41.8267 36.055 42.3492 35.8841 42.7658 35.6855C43.1825 35.4902 43.5308 35.2347 43.8107 34.9189C44.0907 34.6032 44.3332 34.2044 44.5383 33.7227L45.051 32.5312L45.0119 33.2148L40.632 22.9512L42.3898 22.9512L46.008 31.7891L45.4904 31.7891L49.0842 22.9512L50.7785 22.9512L46.1447 33.835C45.8745 34.4762 45.5799 35.0117 45.2609 35.4414C44.9452 35.8744 44.6034 36.2292 44.2355 36.5059C43.8677 36.7826 43.4641 37.0006 43.0246 37.1602C42.5852 37.3197 42.1034 37.4466 41.5793 37.541ZM54.93 33L54.93 24.2549L51.2777 24.2549L51.2777 22.9512L60.1986 22.9512L60.1986 24.2549L56.5413 24.2549L56.5413 33L54.93 33ZM61.8816 33L61.8816 22.9512L63.4929 22.9512L63.4929 26.5645L66.5202 26.5645C67.8191 26.5645 68.7956 26.8395 69.4499 27.3896C70.1042 27.9398 70.4314 28.7259 70.4314 29.748C70.4314 30.4219 70.2816 31.0029 69.9821 31.4912C69.6859 31.9795 69.2465 32.3538 68.6638 32.6143C68.0811 32.8714 67.3666 33 66.5202 33L61.8816 33ZM63.4929 31.8477L66.3835 31.8477C67.1973 31.8477 67.8174 31.6784 68.2439 31.3398C68.6736 30.998 68.8884 30.474 68.8884 29.7676C68.8884 29.0612 68.6752 28.5436 68.2487 28.2148C67.8256 27.8828 67.2038 27.7168 66.3835 27.7168L63.4929 27.7168L63.4929 31.8477ZM78.0816 33L78.0816 22.9512L82.9204 22.9512C84.0793 22.9512 84.9484 23.1758 85.5278 23.625C86.1073 24.0742 86.397 24.7301 86.397 25.5928C86.397 26.2406 86.174 26.7809 85.728 27.2139C85.2853 27.6468 84.7075 27.9023 83.9946 27.9805L83.9946 27.7363C84.828 27.7591 85.492 28 85.9868 28.459C86.4816 28.9147 86.729 29.5023 86.729 30.2217C86.729 31.0811 86.4084 31.7598 85.7671 32.2578C85.1291 32.7526 84.2355 33 83.0864 33L78.0816 33ZM79.6148 31.8965L83.0083 31.8965C83.7147 31.8965 84.2567 31.7484 84.6343 31.4521C85.0119 31.1527 85.2007 30.7246 85.2007 30.168C85.2007 29.6016 85.0119 29.1719 84.6343 28.8789C84.2567 28.5859 83.7147 28.4395 83.0083 28.4395L79.6148 28.4395L79.6148 31.8965ZM79.6148 27.3359L82.8081 27.3359C83.4624 27.3359 83.9702 27.1911 84.3316 26.9014C84.6929 26.6117 84.8736 26.2064 84.8736 25.6855C84.8736 25.1615 84.6929 24.7578 84.3316 24.4746C83.9702 24.1914 83.4624 24.0498 82.8081 24.0498L79.6148 24.0498L79.6148 27.3359ZM94.4616 33L94.4616 22.9512L103.158 22.9512L103.158 33L101.547 33L101.547 24.2354L96.0729 24.2354L96.0729 33L94.4616 33ZM106.43 37.3213L106.43 25.2803C106.43 24.9027 106.414 24.5186 106.381 24.1279C106.352 23.7373 106.314 23.3451 106.269 22.9512L107.841 22.9512L108.051 25.3389L107.822 25.3389C108.036 24.5479 108.469 23.9229 109.12 23.4639C109.775 23.0049 110.558 22.7754 111.469 22.7754C112.367 22.7754 113.149 22.9837 113.813 23.4004C114.477 23.8171 114.993 24.4128 115.361 25.1875C115.732 25.959 115.917 26.8867 115.917 27.9707C115.917 29.0514 115.733 29.9824 115.365 30.7637C115.001 31.5417 114.485 32.139 113.818 32.5557C113.15 32.9723 112.367 33.1807 111.469 33.1807C110.564 33.1807 109.786 32.9528 109.135 32.4971C108.484 32.0413 108.049 31.4196 107.831 30.6318L108.051 30.6318L108.051 37.3213L106.43 37.3213ZM111.137 31.8623C112.094 31.8623 112.856 31.5335 113.422 30.876C113.992 30.2152 114.277 29.2467 114.277 27.9707C114.277 26.6947 113.992 25.7295 113.422 25.0752C112.856 24.4176 112.094 24.0889 111.137 24.0889C110.19 24.0889 109.433 24.4176 108.866 25.0752C108.303 25.7295 108.022 26.6947 108.022 27.9707C108.022 29.2467 108.303 30.2152 108.866 30.876C109.433 31.5335 110.19 31.8623 111.137 31.8623ZM122.766 33.1807C121.796 33.1807 120.956 32.9707 120.246 32.5508C119.536 32.1309 118.986 31.5319 118.596 30.7539C118.208 29.9727 118.015 29.0466 118.015 27.9756C118.015 26.9014 118.208 25.9769 118.596 25.2021C118.986 24.4242 119.536 23.8252 120.246 23.4053C120.959 22.9854 121.799 22.7754 122.766 22.7754C123.736 22.7754 124.577 22.9854 125.29 23.4053C126.003 23.8252 126.555 24.4242 126.945 25.2021C127.339 25.9769 127.536 26.8997 127.536 27.9707C127.536 29.0449 127.339 29.9727 126.945 30.7539C126.555 31.5319 126.003 32.1309 125.29 32.5508C124.577 32.9707 123.736 33.1807 122.766 33.1807ZM122.766 31.8623C123.716 31.8623 124.473 31.5335 125.036 30.876C125.603 30.2152 125.886 29.2467 125.886 27.9707C125.886 26.6947 125.603 25.7295 125.036 25.0752C124.47 24.4176 123.713 24.0889 122.766 24.0889C121.815 24.0889 121.058 24.4176 120.495 25.0752C119.935 25.7295 119.655 26.6947 119.655 27.9707C119.655 29.2467 119.935 30.2152 120.495 30.876C121.058 31.5335 121.815 31.8623 122.766 31.8623ZM135.938 37.3213L135.938 30.7637L136.139 30.7637C135.934 31.5352 135.584 32.1309 135.089 32.5508C134.597 32.9707 133.984 33.1807 133.248 33.1807C132.529 33.1807 131.895 32.9674 131.349 32.541C130.805 32.1146 130.382 31.5124 130.079 30.7344C129.776 29.9531 129.625 29.0319 129.625 27.9707C129.625 26.9062 129.775 25.9867 130.074 25.2119C130.374 24.4339 130.794 23.8333 131.334 23.4102C131.878 22.987 132.516 22.7754 133.248 22.7754C133.984 22.7754 134.597 22.9854 135.089 23.4053C135.584 23.8219 135.934 24.4128 136.139 25.1777L135.938 25.1777L135.938 18.2783L137.55 18.2783L137.55 25.1777L137.34 25.1777C137.555 24.4128 137.909 23.8219 138.404 23.4053C138.902 22.9854 139.511 22.7754 140.23 22.7754C140.963 22.7754 141.601 22.987 142.144 23.4102C142.691 23.8333 143.115 24.4339 143.414 25.2119C143.713 25.9867 143.863 26.9062 143.863 27.9707C143.863 29.0319 143.713 29.9531 143.414 30.7344C143.115 31.5124 142.695 32.1146 142.154 32.541C141.614 32.9674 140.973 33.1807 140.23 33.1807C139.518 33.1807 138.912 32.9707 138.414 32.5508C137.919 32.1309 137.561 31.5352 137.34 30.7637L137.55 30.7637L137.55 37.3213L135.938 37.3213ZM133.609 31.8916C134.342 31.8916 134.918 31.5596 135.338 30.8955C135.758 30.2282 135.968 29.2533 135.968 27.9707C135.968 26.7109 135.756 25.7425 135.333 25.0654C134.91 24.3883 134.335 24.0498 133.609 24.0498C132.874 24.0498 132.294 24.3883 131.871 25.0654C131.448 25.7425 131.236 26.7109 131.236 27.9707C131.236 29.2533 131.448 30.2282 131.871 30.8955C132.294 31.5596 132.874 31.8916 133.609 31.8916ZM139.874 31.8916C140.606 31.8916 141.186 31.5596 141.612 30.8955C142.039 30.2282 142.252 29.2533 142.252 27.9707C142.252 26.7109 142.037 25.7425 141.607 25.0654C141.178 24.3883 140.6 24.0498 139.874 24.0498C139.138 24.0498 138.562 24.3883 138.145 25.0654C137.729 25.7425 137.52 26.7109 137.52 27.9707C137.52 29.2533 137.729 30.2282 138.145 30.8955C138.562 31.5596 139.138 31.8916 139.874 31.8916ZM151.067 33.1807C149.495 33.1807 148.253 32.7233 147.342 31.8086C146.43 30.8906 145.975 29.6227 145.975 28.0049C145.975 26.9437 146.173 26.0241 146.57 25.2461C146.971 24.4648 147.531 23.8577 148.25 23.4248C148.969 22.9919 149.801 22.7754 150.745 22.7754C151.663 22.7754 152.436 22.9707 153.065 23.3613C153.693 23.7487 154.173 24.3005 154.505 25.0166C154.84 25.7295 155.008 26.571 155.008 27.541L155.008 28.1367L147.21 28.1367L147.21 27.1162L153.939 27.1162L153.597 27.3848C153.597 26.3105 153.356 25.4756 152.874 24.8799C152.392 24.2842 151.683 23.9863 150.745 23.9863C149.733 23.9863 148.947 24.3363 148.387 25.0361C147.83 25.736 147.552 26.6751 147.552 27.8535L147.552 28.0293C147.552 29.2923 147.861 30.2477 148.48 30.8955C149.101 31.54 149.974 31.8623 151.097 31.8623C151.696 31.8623 152.257 31.7744 152.781 31.5986C153.309 31.4196 153.813 31.1217 154.295 30.7051L154.866 31.8428C154.42 32.266 153.86 32.5947 153.187 32.8291C152.513 33.0635 151.806 33.1807 151.067 33.1807ZM161.898 33.1807C160.912 33.1807 160.056 32.9691 159.33 32.5459C158.604 32.1227 158.043 31.5156 157.646 30.7246C157.252 29.9336 157.055 28.9961 157.055 27.9121C157.055 26.8249 157.255 25.8988 157.655 25.1338C158.059 24.3656 158.622 23.7812 159.345 23.3809C160.071 22.9772 160.922 22.7754 161.898 22.7754C162.543 22.7754 163.168 22.8893 163.773 23.1172C164.379 23.3451 164.877 23.6657 165.268 24.0791L164.691 25.2363C164.294 24.8457 163.86 24.5592 163.388 24.377C162.916 24.1914 162.45 24.0986 161.991 24.0986C160.963 24.0986 160.159 24.4274 159.579 25.085C159.003 25.7393 158.715 26.6882 158.715 27.9316C158.715 29.1816 159.003 30.1468 159.579 30.8271C160.159 31.5042 160.963 31.8428 161.991 31.8428C162.431 31.8428 162.888 31.7549 163.363 31.5791C163.839 31.4001 164.281 31.112 164.691 30.7148L165.268 31.8623C164.861 32.2855 164.351 32.611 163.739 32.8389C163.127 33.0667 162.514 33.1807 161.898 33.1807ZM171.998 33.1807C171.012 33.1807 170.156 32.9691 169.43 32.5459C168.704 32.1227 168.143 31.5156 167.746 30.7246C167.352 29.9336 167.155 28.9961 167.155 27.9121C167.155 26.8249 167.355 25.8988 167.755 25.1338C168.159 24.3656 168.722 23.7812 169.445 23.3809C170.171 22.9772 171.022 22.7754 171.998 22.7754C172.643 22.7754 173.268 22.8893 173.873 23.1172C174.479 23.3451 174.977 23.6657 175.368 24.0791L174.791 25.2363C174.394 24.8457 173.96 24.5592 173.488 24.377C173.016 24.1914 172.55 24.0986 172.091 24.0986C171.063 24.0986 170.259 24.4274 169.679 25.085C169.103 25.7393 168.815 26.6882 168.815 27.9316C168.815 29.1816 169.103 30.1468 169.679 30.8271C170.259 31.5042 171.063 31.8428 172.091 31.8428C172.531 31.8428 172.988 31.7549 173.463 31.5791C173.939 31.4001 174.381 31.112 174.791 30.7148L175.368 31.8623C174.961 32.2855 174.451 32.611 173.839 32.8389C173.227 33.0667 172.614 33.1807 171.998 33.1807ZM177.802 33L177.802 22.9512L179.276 22.9512L179.276 31.5059L178.749 31.5059L185.136 22.9512L186.508 22.9512L186.508 33L185.033 33L185.033 24.4404L185.58 24.4404L179.169 33L177.802 33ZM198.032 33.1807C196.668 33.1807 195.564 32.7624 194.721 31.9258C193.881 31.0892 193.411 29.9352 193.31 28.4639L191.284 28.4639L191.284 33L189.702 33L189.702 22.9512L191.284 22.9512L191.284 27.165L193.329 27.165C193.486 25.7881 193.979 24.7122 194.809 23.9375C195.639 23.1628 196.713 22.7754 198.032 22.7754C199.002 22.7754 199.843 22.9837 200.556 23.4004C201.269 23.8171 201.821 24.4144 202.211 25.1924C202.605 25.9671 202.802 26.8932 202.802 27.9707C202.802 29.0449 202.605 29.9727 202.211 30.7539C201.821 31.5319 201.269 32.1309 200.556 32.5508C199.843 32.9707 199.002 33.1807 198.032 33.1807ZM198.032 31.8721C198.989 31.8721 199.75 31.5433 200.317 30.8857C200.886 30.2249 201.171 29.2533 201.171 27.9707C201.171 26.6947 200.886 25.7279 200.317 25.0703C199.75 24.4095 198.989 24.0791 198.032 24.0791C197.075 24.0791 196.311 24.4095 195.742 25.0703C195.175 25.7279 194.892 26.6947 194.892 27.9707C194.892 29.2533 195.175 30.2249 195.742 30.8857C196.311 31.5433 197.075 31.8721 198.032 31.8721ZM214.958 33.1807C213.972 33.1807 213.116 32.9691 212.39 32.5459C211.664 32.1227 211.103 31.5156 210.706 30.7246C210.312 29.9336 210.115 28.9961 210.115 27.9121C210.115 26.8249 210.315 25.8988 210.715 25.1338C211.119 24.3656 211.682 23.7812 212.405 23.3809C213.131 22.9772 213.982 22.7754 214.958 22.7754C215.603 22.7754 216.228 22.8893 216.833 23.1172C217.439 23.3451 217.937 23.6657 218.328 24.0791L217.751 25.2363C217.354 24.8457 216.92 24.5592 216.448 24.377C215.976 24.1914 215.51 24.0986 215.051 24.0986C214.023 24.0986 213.219 24.4274 212.639 25.085C212.063 25.7393 211.775 26.6882 211.775 27.9316C211.775 29.1816 212.063 30.1468 212.639 30.8271C213.219 31.5042 214.023 31.8428 215.051 31.8428C215.491 31.8428 215.948 31.7549 216.423 31.5791C216.899 31.4001 217.341 31.112 217.751 30.7148L218.328 31.8623C217.921 32.2855 217.411 32.611 216.799 32.8389C216.187 33.0667 215.574 33.1807 214.958 33.1807ZM229.873 33.1807C228.981 33.1807 228.202 32.9723 227.534 32.5557C226.867 32.139 226.349 31.5417 225.982 30.7637C225.617 29.9824 225.435 29.0514 225.435 27.9707C225.435 26.8867 225.619 25.959 225.986 25.1875C226.358 24.4128 226.877 23.8171 227.544 23.4004C228.211 22.9837 228.988 22.7754 229.873 22.7754C230.778 22.7754 231.561 23.0049 232.222 23.4639C232.883 23.9229 233.319 24.5479 233.53 25.3389L233.301 25.3389L233.511 22.9512L235.073 22.9512C235.034 23.3451 234.997 23.7373 234.961 24.1279C234.929 24.5186 234.912 24.9027 234.912 25.2803L234.912 33L233.301 33L233.291 30.6318L233.521 30.6318C233.309 31.4196 232.87 32.0413 232.202 32.4971C231.535 32.9528 230.759 33.1807 229.873 33.1807ZM230.205 31.8623C231.152 31.8623 231.908 31.5335 232.471 30.876C233.037 30.2152 233.32 29.2467 233.32 27.9707C233.32 26.6947 233.037 25.7295 232.471 25.0752C231.908 24.4176 231.152 24.0889 230.205 24.0889C229.255 24.0889 228.495 24.4176 227.925 25.0752C227.359 25.7295 227.075 26.6947 227.075 27.9707C227.075 29.2467 227.357 30.2152 227.92 30.876C228.486 31.5335 229.248 31.8623 230.205 31.8623ZM238.182 33L238.182 22.9512L239.793 22.9512L239.793 27.1797L241.692 27.1797L245.013 22.9512L246.79 22.9512L243.006 27.8145L242.552 27.3213C242.939 27.3604 243.273 27.4531 243.553 27.5996C243.833 27.7428 244.104 27.9642 244.368 28.2637C244.632 28.5599 244.918 28.9668 245.227 29.4844L247.308 33L245.56 33L243.709 29.8848C243.488 29.5007 243.274 29.2061 243.069 29.001C242.864 28.7959 242.631 28.6527 242.371 28.5713C242.114 28.4899 241.792 28.4492 241.404 28.4492L239.793 28.4492L239.793 33L238.182 33ZM248.942 33L248.942 22.9512L250.553 22.9512L250.553 27.1797L252.452 27.1797L255.773 22.9512L257.55 22.9512L253.766 27.8145L253.312 27.3213C253.699 27.3604 254.033 27.4531 254.313 27.5996C254.593 27.7428 254.864 27.9642 255.128 28.2637C255.392 28.5599 255.678 28.9668 255.987 29.4844L258.068 33L256.32 33L254.469 29.8848C254.248 29.5007 254.034 29.2061 253.829 29.001C253.624 28.7959 253.391 28.6527 253.131 28.5713C252.874 28.4899 252.552 28.4492 252.164 28.4492L250.553 28.4492L250.553 33L248.942 33ZM259.77 37.3213L259.77 25.2803C259.77 24.9027 259.754 24.5186 259.721 24.1279C259.692 23.7373 259.654 23.3451 259.609 22.9512L261.181 22.9512L261.391 25.3389L261.162 25.3389C261.376 24.5479 261.809 23.9229 262.46 23.4639C263.115 23.0049 263.898 22.7754 264.809 22.7754C265.707 22.7754 266.489 22.9837 267.153 23.4004C267.817 23.8171 268.333 24.4128 268.701 25.1875C269.072 25.959 269.257 26.8867 269.257 27.9707C269.257 29.0514 269.073 29.9824 268.705 30.7637C268.341 31.5417 267.825 32.139 267.158 32.5557C266.49 32.9723 265.707 33.1807 264.809 33.1807C263.904 33.1807 263.126 32.9528 262.475 32.4971C261.824 32.0413 261.389 31.4196 261.171 30.6318L261.391 30.6318L261.391 37.3213L259.77 37.3213ZM264.477 31.8623C265.434 31.8623 266.196 31.5335 266.762 30.876C267.332 30.2152 267.617 29.2467 267.617 27.9707C267.617 26.6947 267.332 25.7295 266.762 25.0752C266.196 24.4176 265.434 24.0889 264.477 24.0889C263.53 24.0889 262.773 24.4176 262.206 25.0752C261.643 25.7295 261.362 26.6947 261.362 27.9707C261.362 29.2467 261.643 30.2152 262.206 30.876C262.773 31.5335 263.53 31.8623 264.477 31.8623ZM276.447 33.1807C274.875 33.1807 273.633 32.7233 272.722 31.8086C271.81 30.8906 271.355 29.6227 271.355 28.0049C271.355 26.9437 271.553 26.0241 271.95 25.2461C272.351 24.4648 272.911 23.8577 273.63 23.4248C274.349 22.9919 275.181 22.7754 276.125 22.7754C277.043 22.7754 277.816 22.9707 278.445 23.3613C279.073 23.7487 279.553 24.3005 279.885 25.0166C280.22 25.7295 280.388 26.571 280.388 27.541L280.388 28.1367L272.59 28.1367L272.59 27.1162L279.319 27.1162L278.977 27.3848C278.977 26.3105 278.736 25.4756 278.254 24.8799C277.772 24.2842 277.063 23.9863 276.125 23.9863C275.113 23.9863 274.327 24.3363 273.767 25.0361C273.21 25.736 272.932 26.6751 272.932 27.8535L272.932 28.0293C272.932 29.2923 273.241 30.2477 273.86 30.8955C274.481 31.54 275.354 31.8623 276.477 31.8623C277.076 31.8623 277.637 31.7744 278.161 31.5986C278.689 31.4196 279.193 31.1217 279.675 30.7051L280.246 31.8428C279.8 32.266 279.24 32.5947 278.567 32.8291C277.893 33.0635 277.186 33.1807 276.447 33.1807ZM281.912 35.5977L281.912 31.7256L282.977 31.7256C283.452 31.0355 283.797 30.2201 284.012 29.2793C284.23 28.3353 284.339 27.2188 284.339 25.9297L284.339 22.9512L291.395 22.9512L291.395 31.7256L292.982 31.7256L292.982 35.5977L291.585 35.5977L291.585 33L283.309 33L283.309 35.5977L281.912 35.5977ZM284.534 31.7354L289.861 31.7354L289.861 24.2158L285.77 24.2158L285.77 26.1787C285.77 27.2367 285.665 28.2555 285.457 29.2354C285.249 30.2152 284.941 31.0485 284.534 31.7354ZM295.142 33L295.142 22.9512L296.616 22.9512L296.616 31.5059L296.089 31.5059L302.476 22.9512L303.848 22.9512L303.848 33L302.373 33L302.373 24.4404L302.92 24.4404L296.509 33L295.142 33ZM309.19 33L309.19 24.2549L305.538 24.2549L305.538 22.9512L314.459 22.9512L314.459 24.2549L310.801 24.2549L310.801 33L309.19 33ZM320.306 33.1807C319.336 33.1807 318.496 32.9707 317.786 32.5508C317.077 32.1309 316.526 31.5319 316.136 30.7539C315.748 29.9727 315.555 29.0466 315.555 27.9756C315.555 26.9014 315.748 25.9769 316.136 25.2021C316.526 24.4242 317.077 23.8252 317.786 23.4053C318.499 22.9854 319.339 22.7754 320.306 22.7754C321.276 22.7754 322.117 22.9854 322.83 23.4053C323.543 23.8252 324.095 24.4242 324.485 25.2021C324.879 25.9769 325.076 26.8997 325.076 27.9707C325.076 29.0449 324.879 29.9727 324.485 30.7539C324.095 31.5319 323.543 32.1309 322.83 32.5508C322.117 32.9707 321.276 33.1807 320.306 33.1807ZM320.306 31.8623C321.256 31.8623 322.013 31.5335 322.576 30.876C323.143 30.2152 323.426 29.2467 323.426 27.9707C323.426 26.6947 323.143 25.7295 322.576 25.0752C322.01 24.4176 321.253 24.0889 320.306 24.0889C319.355 24.0889 318.598 24.4176 318.035 25.0752C317.475 25.7295 317.195 26.6947 317.195 27.9707C317.195 29.2467 317.475 30.2152 318.035 30.876C318.598 31.5335 319.355 31.8623 320.306 31.8623ZM327.722 33L327.722 22.9512L332.56 22.9512C333.719 22.9512 334.588 23.1758 335.168 23.625C335.747 24.0742 336.037 24.7301 336.037 25.5928C336.037 26.2406 335.814 26.7809 335.368 27.2139C334.925 27.6468 334.348 27.9023 333.635 27.9805L333.635 27.7363C334.468 27.7591 335.132 28 335.627 28.459C336.122 28.9147 336.369 29.5023 336.369 30.2217C336.369 31.0811 336.048 31.7598 335.407 32.2578C334.769 32.7526 333.876 33 332.726 33L327.722 33ZM329.255 31.8965L332.648 31.8965C333.355 31.8965 333.897 31.7484 334.274 31.4521C334.652 31.1527 334.841 30.7246 334.841 30.168C334.841 29.6016 334.652 29.1719 334.274 28.8789C333.897 28.5859 333.355 28.4395 332.648 28.4395L329.255 28.4395L329.255 31.8965ZM329.255 27.3359L332.448 27.3359C333.102 27.3359 333.61 27.1911 333.972 26.9014C334.333 26.6117 334.514 26.2064 334.514 25.6855C334.514 25.1615 334.333 24.7578 333.972 24.4746C333.61 24.1914 333.102 24.0498 332.448 24.0498L329.255 24.0498L329.255 27.3359ZM342.773 33.1807C341.881 33.1807 341.102 32.9723 340.434 32.5557C339.767 32.139 339.249 31.5417 338.882 30.7637C338.517 29.9824 338.335 29.0514 338.335 27.9707C338.335 26.8867 338.519 25.959 338.886 25.1875C339.258 24.4128 339.777 23.8171 340.444 23.4004C341.111 22.9837 341.888 22.7754 342.773 22.7754C343.678 22.7754 344.461 23.0049 345.122 23.4639C345.783 23.9229 346.219 24.5479 346.43 25.3389L346.201 25.3389L346.411 22.9512L347.973 22.9512C347.934 23.3451 347.897 23.7373 347.861 24.1279C347.828 24.5186 347.812 24.9027 347.812 25.2803L347.812 33L346.201 33L346.191 30.6318L346.421 30.6318C346.209 31.4196 345.77 32.0413 345.102 32.4971C344.435 32.9528 343.659 33.1807 342.773 33.1807ZM343.105 31.8623C344.052 31.8623 344.808 31.5335 345.371 30.876C345.937 30.2152 346.22 29.2467 346.22 27.9707C346.22 26.6947 345.937 25.7295 345.371 25.0752C344.808 24.4176 344.052 24.0889 343.105 24.0889C342.155 24.0889 341.395 24.4176 340.825 25.0752C340.259 25.7295 339.975 26.6947 339.975 27.9707C339.975 29.2467 340.257 30.2152 340.82 30.876C341.386 31.5335 342.148 31.8623 343.105 31.8623ZM351.082 33L351.082 22.9512L352.693 22.9512L352.693 27.165L358.225 27.165L358.225 22.9512L359.836 22.9512L359.836 33L358.225 33L358.225 28.4639L352.693 28.4639L352.693 33L351.082 33ZM363.042 33L363.042 22.9512L364.653 22.9512L364.653 27.165L370.185 27.165L370.185 22.9512L371.796 22.9512L371.796 33L370.185 33L370.185 28.4639L364.653 28.4639L364.653 33L363.042 33ZM379.206 33.1807C378.236 33.1807 377.396 32.9707 376.686 32.5508C375.977 32.1309 375.426 31.5319 375.036 30.7539C374.648 29.9727 374.455 29.0466 374.455 27.9756C374.455 26.9014 374.648 25.9769 375.036 25.2021C375.426 24.4242 375.977 23.8252 376.686 23.4053C377.399 22.9854 378.239 22.7754 379.206 22.7754C380.176 22.7754 381.017 22.9854 381.73 23.4053C382.443 23.8252 382.995 24.4242 383.385 25.2021C383.779 25.9769 383.976 26.8997 383.976 27.9707C383.976 29.0449 383.779 29.9727 383.385 30.7539C382.995 31.5319 382.443 32.1309 381.73 32.5508C381.017 32.9707 380.176 33.1807 379.206 33.1807ZM379.206 31.8623C380.156 31.8623 380.913 31.5335 381.476 30.876C382.043 30.2152 382.326 29.2467 382.326 27.9707C382.326 26.6947 382.043 25.7295 381.476 25.0752C380.91 24.4176 380.153 24.0889 379.206 24.0889C378.255 24.0889 377.498 24.4176 376.935 25.0752C376.375 25.7295 376.095 26.6947 376.095 27.9707C376.095 29.2467 376.375 30.2152 376.935 30.876C377.498 31.5335 378.255 31.8623 379.206 31.8623ZM386.622 33L386.622 22.9512L388.096 22.9512L388.096 31.5059L387.569 31.5059L393.956 22.9512L395.328 22.9512L395.328 33L393.853 33L393.853 24.4404L394.4 24.4404L387.989 33L386.622 33ZM390.962 22.0234C390.415 22.0234 389.908 21.929 389.439 21.7402C388.97 21.5514 388.563 21.2682 388.218 20.8906C387.876 20.513 387.614 20.041 387.432 19.4746L388.394 19.1182C388.635 19.7594 388.965 20.2331 389.385 20.5391C389.808 20.8418 390.337 20.9932 390.972 20.9932C391.613 20.9932 392.141 20.8532 392.554 20.5732C392.968 20.2933 393.332 19.8148 393.648 19.1377L394.561 19.4746C394.213 20.3861 393.726 21.0387 393.101 21.4326C392.479 21.8265 391.766 22.0234 390.962 22.0234ZM403.903 33L403.903 18.8984L405.558 18.8984L405.558 33L403.903 33ZM412.496 33L412.496 20.3096L407.53 20.3096L407.53 18.8984L419.122 18.8984L419.122 20.3096L414.156 20.3096L414.156 33L412.496 33ZM419.916 28.1807L419.916 26.8477L425.614 26.8477L425.614 28.1807L419.916 28.1807ZM428.642 33L428.642 22.9512L430.253 22.9512L430.253 27.1797L432.152 27.1797L435.473 22.9512L437.25 22.9512L433.466 27.8145L433.012 27.3213C433.399 27.3604 433.733 27.4531 434.013 27.5996C434.293 27.7428 434.564 27.9642 434.828 28.2637C435.092 28.5599 435.378 28.9668 435.687 29.4844L437.768 33L436.019 33L434.169 29.8848C433.948 29.5007 433.734 29.2061 433.529 29.001C433.324 28.7959 433.091 28.6527 432.831 28.5713C432.574 28.4899 432.252 28.4492 431.864 28.4492L430.253 28.4492L430.253 33L428.642 33ZM443.606 33.1807C442.636 33.1807 441.796 32.9707 441.086 32.5508C440.376 32.1309 439.826 31.5319 439.436 30.7539C439.048 29.9727 438.855 29.0466 438.855 27.9756C438.855 26.9014 439.048 25.9769 439.436 25.2021C439.826 24.4242 440.376 23.8252 441.086 23.4053C441.799 22.9854 442.639 22.7754 443.606 22.7754C444.576 22.7754 445.417 22.9854 446.13 23.4053C446.843 23.8252 447.395 24.4242 447.785 25.2021C448.179 25.9769 448.376 26.8997 448.376 27.9707C448.376 29.0449 448.179 29.9727 447.785 30.7539C447.395 31.5319 446.843 32.1309 446.13 32.5508C445.417 32.9707 444.576 33.1807 443.606 33.1807ZM443.606 31.8623C444.556 31.8623 445.313 31.5335 445.876 30.876C446.443 30.2152 446.726 29.2467 446.726 27.9707C446.726 26.6947 446.443 25.7295 445.876 25.0752C445.31 24.4176 444.553 24.0889 443.606 24.0889C442.655 24.0889 441.898 24.4176 441.335 25.0752C440.775 25.7295 440.495 26.6947 440.495 27.9707C440.495 29.2467 440.775 30.2152 441.335 30.876C441.898 31.5335 442.655 31.8623 443.606 31.8623ZM451.022 33L451.022 22.9512L452.379 22.9512L456.144 29.6943L459.923 22.9512L461.271 22.9512L461.271 33L459.835 33L459.835 24.7578L460.265 24.7578L456.554 31.3789L455.733 31.3789L452.027 24.7432L452.457 24.7432L452.457 33L451.022 33ZM464.482 33L464.482 22.9512L473.178 22.9512L473.178 33L471.566 33L471.566 24.2354L466.093 24.2354L466.093 33L464.482 33ZM480.273 33.1807C479.381 33.1807 478.602 32.9723 477.934 32.5557C477.267 32.139 476.749 31.5417 476.382 30.7637C476.017 29.9824 475.835 29.0514 475.835 27.9707C475.835 26.8867 476.019 25.959 476.386 25.1875C476.758 24.4128 477.277 23.8171 477.944 23.4004C478.611 22.9837 479.388 22.7754 480.273 22.7754C481.178 22.7754 481.961 23.0049 482.622 23.4639C483.283 23.9229 483.719 24.5479 483.93 25.3389L483.701 25.3389L483.911 22.9512L485.473 22.9512C485.434 23.3451 485.397 23.7373 485.361 24.1279C485.328 24.5186 485.312 24.9027 485.312 25.2803L485.312 33L483.701 33L483.691 30.6318L483.921 30.6318C483.709 31.4196 483.27 32.0413 482.602 32.4971C481.935 32.9528 481.159 33.1807 480.273 33.1807ZM480.605 31.8623C481.552 31.8623 482.308 31.5335 482.871 30.876C483.437 30.2152 483.72 29.2467 483.72 27.9707C483.72 26.6947 483.437 25.7295 482.871 25.0752C482.308 24.4176 481.552 24.0889 480.605 24.0889C479.655 24.0889 478.895 24.4176 478.325 25.0752C477.758 25.7295 477.475 26.6947 477.475 27.9707C477.475 29.2467 477.757 30.2152 478.32 30.876C478.886 31.5335 479.648 31.8623 480.605 31.8623ZM488.582 33L488.582 22.9512L490.193 22.9512L490.193 27.165L495.725 27.165L495.725 22.9512L497.336 22.9512L497.336 33L495.725 33L495.725 28.4639L490.193 28.4639L490.193 33L488.582 33ZM500.542 33L500.542 22.9512L502.016 22.9512L502.016 31.5059L501.489 31.5059L507.876 22.9512L509.248 22.9512L509.248 33L507.773 33L507.773 24.4404L508.32 24.4404L501.909 33L500.542 33ZM516.987 33.1807C515.415 33.1807 514.173 32.7233 513.262 31.8086C512.35 30.8906 511.895 29.6227 511.895 28.0049C511.895 26.9437 512.093 26.0241 512.49 25.2461C512.891 24.4648 513.451 23.8577 514.17 23.4248C514.889 22.9919 515.721 22.7754 516.665 22.7754C517.583 22.7754 518.356 22.9707 518.984 23.3613C519.613 23.7487 520.093 24.3005 520.425 25.0166C520.76 25.7295 520.928 26.571 520.928 27.541L520.928 28.1367L513.13 28.1367L513.13 27.1162L519.859 27.1162L519.517 27.3848C519.517 26.3105 519.276 25.4756 518.794 24.8799C518.312 24.2842 517.603 23.9863 516.665 23.9863C515.653 23.9863 514.867 24.3363 514.307 25.0361C513.75 25.736 513.472 26.6751 513.472 27.8535L513.472 28.0293C513.472 29.2923 513.781 30.2477 514.4 30.8955C515.021 31.54 515.894 31.8623 517.017 31.8623C517.616 31.8623 518.177 31.7744 518.701 31.5986C519.229 31.4196 519.733 31.1217 520.215 30.7051L520.786 31.8428C520.34 32.266 519.78 32.5947 519.107 32.8291C518.433 33.0635 517.726 33.1807 516.987 33.1807ZM523.521 33L523.521 22.9512L524.996 22.9512L524.996 31.5059L524.469 31.5059L530.855 22.9512L532.228 22.9512L532.228 33L530.753 33L530.753 24.4404L531.3 24.4404L524.889 33L523.521 33ZM527.862 22.0234C527.315 22.0234 526.808 21.929 526.339 21.7402C525.87 21.5514 525.463 21.2682 525.118 20.8906C524.776 20.513 524.514 20.041 524.332 19.4746L525.294 19.1182C525.535 19.7594 525.865 20.2331 526.285 20.5391C526.708 20.8418 527.237 20.9932 527.872 20.9932C528.513 20.9932 529.041 20.8532 529.454 20.5732C529.868 20.2933 530.232 19.8148 530.548 19.1377L531.461 19.4746C531.113 20.3861 530.626 21.0387 530.001 21.4326C529.379 21.8265 528.666 22.0234 527.862 22.0234Z" opacity="0" fill="rgb(254.745,254.926,255)" fill-rule="nonzero" />
</svg>
