<svg viewBox="0 0 288 50" xmlns="http://www.w3.org/2000/svg" xmlns:xlink="http://www.w3.org/1999/xlink" width="288.000000" height="50.000000" fill="none" customFrame="url(#clipPath_0)">
	<defs>
		<linearGradient id="paint_linear_0" x1="72.5002136" x2="79.500206" y1="0.99997139" y2="61.9999619" gradientUnits="userSpaceOnUse">
			<stop stop-color="rgb(230,248,252)" offset="0" stop-opacity="1" />
			<stop stop-color="rgb(230,248,252)" offset="0.466863453" stop-opacity="0" />
			<stop stop-color="rgb(230,248,252)" offset="1" stop-opacity="0.886274517" />
		</linearGradient>
		<radialGradient id="paint_radial_0" cx="0" cy="0" r="1" gradientUnits="userSpaceOnUse" gradientTransform="matrix(142.989,0,0,23.9981,144.001,1.00191)">
			<stop stop-color="rgb(52,213,168)" offset="0" stop-opacity="1" />
			<stop stop-color="rgb(92,249,209)" offset="1" stop-opacity="0" />
		</radialGradient>
		<clipPath id="clipPath_0">
			<rect width="288.000000" height="50.000000" x="0.000000" y="0.000000" rx="25.000000" fill="rgb(255,255,255)" />
		</clipPath>
	</defs>
	<rect id="фрейм 483" width="286.000000" height="48.000000" x="1.000000" y="1.000000" rx="24.000000" fill="rgb(230,248,252)" fill-opacity="0.0799999982" />
	<rect id="фрейм 483" width="286.000000" height="48.000000" x="1.000000" y="1.000000" rx="24.000000" stroke="url(#paint_linear_0)" stroke-opacity="0.600000024" stroke-width="2" />
	<rect id="фрейм 483" width="286.000000" height="48.000000" x="1.000000" y="1.000000" rx="24.000000" stroke="url(#paint_radial_0)" stroke-width="2" />
	<path id="" d="M82.6399 21L82.6399 11.1289L90.8909 11.1289L90.8909 21L89.739 21L89.739 12.1099L83.7781 12.1099L83.7781 21L82.6399 21ZM93.0115 24.1787L92.7449 23.2388C93.1847 23.1385 93.5504 23.0189 93.8421 22.8799C94.1337 22.7432 94.3776 22.5643 94.5735 22.3433C94.7695 22.1222 94.9392 21.8431 95.0828 21.5059L95.4417 20.6719L95.4143 21.1504L92.3484 13.9658L93.5789 13.9658L96.1116 20.1523L95.7493 20.1523L98.2649 13.9658L99.451 13.9658L96.2073 21.5845C96.0182 22.0334 95.812 22.4082 95.5887 22.709C95.3676 23.012 95.1284 23.2604 94.8709 23.4541C94.6134 23.6478 94.3308 23.8005 94.0232 23.9121C93.7156 24.0238 93.3784 24.1126 93.0115 24.1787ZM102.357 21L102.357 14.8784L99.8004 14.8784L99.8004 13.9658L106.045 13.9658L106.045 14.8784L103.485 14.8784L103.485 21L102.357 21ZM107.223 21L107.223 13.9658L108.351 13.9658L108.351 16.4951L110.47 16.4951C111.379 16.4951 112.063 16.6877 112.521 17.0728C112.979 17.4578 113.208 18.0081 113.208 18.7236C113.208 19.1953 113.103 19.6021 112.894 19.9438C112.686 20.2856 112.379 20.5477 111.971 20.73C111.563 20.91 111.063 21 110.47 21L107.223 21ZM108.351 20.1934L110.374 20.1934C110.944 20.1934 111.378 20.0749 111.677 19.8379C111.977 19.5986 112.128 19.2318 112.128 18.7373C112.128 18.2428 111.979 17.8805 111.68 17.6504C111.384 17.418 110.949 17.3018 110.374 17.3018L108.351 17.3018L108.351 20.1934ZM118.563 21L118.563 13.9658L121.95 13.9658C122.761 13.9658 123.37 14.123 123.775 14.4375C124.181 14.752 124.384 15.2111 124.384 15.8149C124.384 16.2684 124.228 16.6466 123.916 16.9497C123.606 17.2528 123.201 17.4316 122.702 17.4863L122.702 17.3154C123.286 17.3314 123.75 17.5 124.097 17.8213C124.443 18.1403 124.616 18.5516 124.616 19.0552C124.616 19.6567 124.392 20.1318 123.943 20.4805C123.496 20.8268 122.871 21 122.067 21L118.563 21ZM119.636 20.2275L122.012 20.2275C122.506 20.2275 122.886 20.1239 123.15 19.9165C123.414 19.7069 123.546 19.4072 123.546 19.0176C123.546 18.6211 123.414 18.3203 123.15 18.1152C122.886 17.9102 122.506 17.8076 122.012 17.8076L119.636 17.8076L119.636 20.2275ZM119.636 17.0352L121.872 17.0352C122.33 17.0352 122.685 16.9338 122.938 16.731C123.191 16.5282 123.317 16.2445 123.317 15.8799C123.317 15.513 123.191 15.2305 122.938 15.0322C122.685 14.834 122.33 14.7349 121.872 14.7349L119.636 14.7349L119.636 17.0352ZM130.029 21L130.029 13.9658L136.116 13.9658L136.116 21L134.989 21L134.989 14.8647L131.157 14.8647L131.157 21L130.029 21ZM138.407 24.0249L138.407 15.5962C138.407 15.3319 138.396 15.063 138.373 14.7896C138.352 14.5161 138.326 14.2415 138.294 13.9658L139.395 13.9658L139.542 15.6372L139.381 15.6372C139.531 15.0835 139.835 14.646 140.29 14.3247C140.748 14.0034 141.296 13.8428 141.934 13.8428C142.563 13.8428 143.11 13.9886 143.575 14.2803C144.04 14.5719 144.401 14.9889 144.658 15.5312C144.918 16.0713 145.048 16.7207 145.048 17.4795C145.048 18.236 144.919 18.8877 144.662 19.4346C144.407 19.9792 144.045 20.3973 143.578 20.689C143.111 20.9806 142.563 21.1265 141.934 21.1265C141.301 21.1265 140.756 20.967 140.301 20.6479C139.845 20.3289 139.541 19.8937 139.388 19.3423L139.542 19.3423L139.542 24.0249L138.407 24.0249ZM141.702 20.2036C142.372 20.2036 142.905 19.9735 143.301 19.5132C143.7 19.0506 143.9 18.3727 143.9 17.4795C143.9 16.5863 143.7 15.9106 143.301 15.4526C142.905 14.9924 142.372 14.7622 141.702 14.7622C141.039 14.7622 140.509 14.9924 140.113 15.4526C139.718 15.9106 139.521 16.5863 139.521 17.4795C139.521 18.3727 139.718 19.0506 140.113 19.5132C140.509 19.9735 141.039 20.2036 141.702 20.2036ZM149.842 21.1265C149.163 21.1265 148.575 20.9795 148.078 20.6855C147.582 20.3916 147.196 19.9723 146.923 19.4277C146.652 18.8809 146.516 18.2326 146.516 17.4829C146.516 16.731 146.652 16.0838 146.923 15.5415C147.196 14.9969 147.582 14.5776 148.078 14.2837C148.577 13.9897 149.165 13.8428 149.842 13.8428C150.521 13.8428 151.11 13.9897 151.609 14.2837C152.108 14.5776 152.494 14.9969 152.768 15.5415C153.043 16.0838 153.181 16.7298 153.181 17.4795C153.181 18.2314 153.043 18.8809 152.768 19.4277C152.494 19.9723 152.108 20.3916 151.609 20.6855C151.11 20.9795 150.521 21.1265 149.842 21.1265ZM149.842 20.2036C150.507 20.2036 151.037 19.9735 151.431 19.5132C151.828 19.0506 152.026 18.3727 152.026 17.4795C152.026 16.5863 151.828 15.9106 151.431 15.4526C151.035 14.9924 150.505 14.7622 149.842 14.7622C149.177 14.7622 148.647 14.9924 148.253 15.4526C147.861 15.9106 147.665 16.5863 147.665 17.4795C147.665 18.3727 147.861 19.0506 148.253 19.5132C148.647 19.9735 149.177 20.2036 149.842 20.2036ZM159.063 24.0249L159.063 19.4346L159.203 19.4346C159.059 19.9746 158.815 20.3916 158.468 20.6855C158.124 20.9795 157.695 21.1265 157.18 21.1265C156.676 21.1265 156.233 20.9772 155.85 20.6787C155.469 20.3802 155.173 19.9587 154.961 19.4141C154.749 18.8672 154.643 18.2223 154.643 17.4795C154.643 16.7344 154.748 16.0907 154.958 15.5483C155.168 15.0037 155.461 14.5833 155.84 14.2871C156.22 13.9909 156.667 13.8428 157.18 13.8428C157.695 13.8428 158.124 13.9897 158.468 14.2837C158.815 14.5754 159.059 14.9889 159.203 15.5244L159.063 15.5244L159.063 10.6948L160.191 10.6948L160.191 15.5244L160.044 15.5244C160.194 14.9889 160.443 14.5754 160.789 14.2837C161.138 13.9897 161.564 13.8428 162.067 13.8428C162.58 13.8428 163.027 13.9909 163.407 14.2871C163.79 14.5833 164.086 15.0037 164.296 15.5483C164.505 16.0907 164.61 16.7344 164.61 17.4795C164.61 18.2223 164.505 18.8672 164.296 19.4141C164.086 19.9587 163.792 20.3802 163.414 20.6787C163.036 20.9772 162.587 21.1265 162.067 21.1265C161.568 21.1265 161.144 20.9795 160.796 20.6855C160.449 20.3916 160.199 19.9746 160.044 19.4346L160.191 19.4346L160.191 24.0249L159.063 24.0249ZM157.433 20.2241C157.945 20.2241 158.349 19.9917 158.642 19.5269C158.936 19.0597 159.083 18.3773 159.083 17.4795C159.083 16.5977 158.935 15.9198 158.639 15.4458C158.343 14.9718 157.941 14.7349 157.433 14.7349C156.918 14.7349 156.512 14.9718 156.216 15.4458C155.919 15.9198 155.771 16.5977 155.771 17.4795C155.771 18.3773 155.919 19.0597 156.216 19.5269C156.512 19.9917 156.918 20.2241 157.433 20.2241ZM161.818 20.2241C162.33 20.2241 162.736 19.9917 163.035 19.5269C163.333 19.0597 163.482 18.3773 163.482 17.4795C163.482 16.5977 163.332 15.9198 163.031 15.4458C162.73 14.9718 162.326 14.7349 161.818 14.7349C161.303 14.7349 160.899 14.9718 160.608 15.4458C160.316 15.9198 160.17 16.5977 160.17 17.4795C160.17 18.3773 160.316 19.0597 160.608 19.5269C160.899 19.9917 161.303 20.2241 161.818 20.2241ZM169.653 21.1265C168.553 21.1265 167.683 20.8063 167.045 20.166C166.407 19.5234 166.088 18.6359 166.088 17.5034C166.088 16.7606 166.227 16.1169 166.505 15.5723C166.786 15.0254 167.177 14.6004 167.681 14.2974C168.185 13.9943 168.767 13.8428 169.428 13.8428C170.07 13.8428 170.611 13.9795 171.051 14.2529C171.491 14.5241 171.827 14.9103 172.059 15.4116C172.294 15.9106 172.412 16.4997 172.412 17.1787L172.412 17.5957L166.953 17.5957L166.953 16.8813L171.663 16.8813L171.424 17.0693C171.424 16.3174 171.255 15.7329 170.918 15.3159C170.581 14.8989 170.084 14.6904 169.428 14.6904C168.719 14.6904 168.169 14.9354 167.777 15.4253C167.387 15.9152 167.192 16.5726 167.192 17.3975L167.192 17.5205C167.192 18.4046 167.409 19.0734 167.842 19.5269C168.277 19.978 168.888 20.2036 169.674 20.2036C170.093 20.2036 170.486 20.1421 170.853 20.019C171.222 19.8937 171.575 19.6852 171.913 19.3936L172.312 20.1899C172 20.4862 171.608 20.7163 171.137 20.8804C170.665 21.0444 170.17 21.1265 169.653 21.1265ZM177.235 21.1265C176.544 21.1265 175.945 20.9784 175.437 20.6821C174.929 20.3859 174.536 19.9609 174.258 19.4072C173.982 18.8535 173.844 18.1973 173.844 17.4385C173.844 16.6774 173.984 16.0291 174.265 15.4937C174.547 14.9559 174.941 14.5469 175.447 14.2666C175.955 13.984 176.551 13.8428 177.235 13.8428C177.686 13.8428 178.124 13.9225 178.547 14.082C178.971 14.2415 179.32 14.466 179.593 14.7554L179.19 15.5654C178.912 15.292 178.608 15.0915 178.277 14.9639C177.947 14.834 177.621 14.769 177.3 14.769C176.58 14.769 176.017 14.9992 175.611 15.4595C175.208 15.9175 175.006 16.5817 175.006 17.4521C175.006 18.3271 175.208 19.0028 175.611 19.479C176.017 19.953 176.58 20.1899 177.3 20.1899C177.607 20.1899 177.928 20.1284 178.26 20.0054C178.593 19.88 178.903 19.6784 179.19 19.4004L179.593 20.2036C179.308 20.4998 178.952 20.7277 178.523 20.8872C178.095 21.0467 177.666 21.1265 177.235 21.1265ZM184.305 21.1265C183.614 21.1265 183.015 20.9784 182.507 20.6821C181.999 20.3859 181.606 19.9609 181.328 19.4072C181.052 18.8535 180.914 18.1973 180.914 17.4385C180.914 16.6774 181.054 16.0291 181.335 15.4937C181.617 14.9559 182.011 14.5469 182.517 14.2666C183.025 13.984 183.621 13.8428 184.305 13.8428C184.756 13.8428 185.194 13.9225 185.617 14.082C186.041 14.2415 186.39 14.466 186.663 14.7554L186.26 15.5654C185.982 15.292 185.678 15.0915 185.347 14.9639C185.017 14.834 184.691 14.769 184.37 14.769C183.65 14.769 183.087 14.9992 182.681 15.4595C182.278 15.9175 182.076 16.5817 182.076 17.4521C182.076 18.3271 182.278 19.0028 182.681 19.479C183.087 19.953 183.65 20.1899 184.37 20.1899C184.677 20.1899 184.998 20.1284 185.33 20.0054C185.663 19.88 185.973 19.6784 186.26 19.4004L186.663 20.2036C186.378 20.4998 186.022 20.7277 185.593 20.8872C185.165 21.0467 184.736 21.1265 184.305 21.1265ZM188.367 21L188.367 13.9658L189.399 13.9658L189.399 19.9541L189.03 19.9541L193.501 13.9658L194.461 13.9658L194.461 21L193.429 21L193.429 15.0083L193.812 15.0083L189.324 21L188.367 21ZM202.528 21.1265C201.573 21.1265 200.801 20.8337 200.211 20.248C199.623 19.6624 199.294 18.8547 199.223 17.8247L197.805 17.8247L197.805 21L196.697 21L196.697 13.9658L197.805 13.9658L197.805 16.9155L199.237 16.9155C199.346 15.9517 199.691 15.1986 200.272 14.6562C200.853 14.1139 201.605 13.8428 202.528 13.8428C203.207 13.8428 203.796 13.9886 204.295 14.2803C204.794 14.5719 205.18 14.9901 205.454 15.5347C205.73 16.077 205.868 16.7253 205.868 17.4795C205.868 18.2314 205.73 18.8809 205.454 19.4277C205.18 19.9723 204.794 20.3916 204.295 20.6855C203.796 20.9795 203.207 21.1265 202.528 21.1265ZM202.528 20.2104C203.198 20.2104 203.731 19.9803 204.128 19.52C204.527 19.0575 204.726 18.3773 204.726 17.4795C204.726 16.5863 204.527 15.9095 204.128 15.4492C203.731 14.9867 203.198 14.7554 202.528 14.7554C201.858 14.7554 201.324 14.9867 200.925 15.4492C200.529 15.9095 200.33 16.5863 200.33 17.4795C200.33 18.3773 200.529 19.0575 200.925 19.52C201.324 19.9803 201.858 20.2104 202.528 20.2104ZM34.4629 39.1265C33.7725 39.1265 33.1732 38.9784 32.665 38.6821C32.1569 38.3859 31.7638 37.9609 31.4858 37.4072C31.2101 36.8535 31.0723 36.1973 31.0723 35.4385C31.0723 34.6774 31.2124 34.0291 31.4927 33.4937C31.7752 32.9559 32.1694 32.5469 32.6753 32.2666C33.1834 31.984 33.7793 31.8428 34.4629 31.8428C34.9141 31.8428 35.3516 31.9225 35.7754 32.082C36.1992 32.2415 36.5479 32.466 36.8213 32.7554L36.418 33.5654C36.14 33.292 35.8358 33.0915 35.5054 32.9639C35.175 32.834 34.8491 32.769 34.5278 32.769C33.8078 32.769 33.245 32.9992 32.8394 33.4595C32.436 33.9175 32.2344 34.5817 32.2344 35.4521C32.2344 36.3271 32.436 37.0028 32.8394 37.479C33.245 37.953 33.8078 38.1899 34.5278 38.1899C34.8355 38.1899 35.1556 38.1284 35.4883 38.0054C35.821 37.88 36.1309 37.6784 36.418 37.4004L36.8213 38.2036C36.5365 38.4998 36.1799 38.7277 35.7515 38.8872C35.3231 39.0467 34.8936 39.1265 34.4629 39.1265ZM44.9032 39.1265C44.2789 39.1265 43.7331 38.9806 43.266 38.689C42.7989 38.3973 42.4366 37.9792 42.1791 37.4346C41.9239 36.8877 41.7963 36.236 41.7963 35.4795C41.7963 34.7207 41.925 34.0713 42.1825 33.5312C42.4423 32.9889 42.8057 32.5719 43.2728 32.2803C43.74 31.9886 44.2834 31.8428 44.9032 31.8428C45.5367 31.8428 46.0847 32.0034 46.5472 32.3247C47.0098 32.646 47.3152 33.0835 47.4633 33.6372L47.3026 33.6372L47.4496 31.9658L48.5433 31.9658C48.516 32.2415 48.4898 32.5161 48.4647 32.7896C48.4419 33.063 48.4305 33.3319 48.4305 33.5962L48.4305 39L47.3026 39L47.2958 37.3423L47.4564 37.3423C47.3083 37.8937 47.0007 38.3289 46.5336 38.6479C46.0665 38.967 45.523 39.1265 44.9032 39.1265ZM45.1356 38.2036C45.7987 38.2036 46.3274 37.9735 46.7216 37.5132C47.118 37.0506 47.3163 36.3727 47.3163 35.4795C47.3163 34.5863 47.118 33.9106 46.7216 33.4526C46.3274 32.9924 45.7987 32.7622 45.1356 32.7622C44.4703 32.7622 43.9382 32.9924 43.5394 33.4526C43.143 33.9106 42.9447 34.5863 42.9447 35.4795C42.9447 36.3727 43.1418 37.0506 43.536 37.5132C43.9325 37.9735 44.4657 38.2036 45.1356 38.2036ZM50.7191 39L50.7191 31.9658L51.847 31.9658L51.847 34.9258L53.1766 34.9258L55.5008 31.9658L56.745 31.9658L54.096 35.3701L53.7782 35.0249C54.0493 35.0522 54.2829 35.1172 54.4789 35.2197C54.6748 35.32 54.8651 35.4749 55.0497 35.6846C55.2342 35.8919 55.4347 36.1768 55.6512 36.5391L57.1073 39L55.8836 39L54.5882 36.8193C54.4333 36.5505 54.284 36.3442 54.1405 36.2007C53.9969 36.0571 53.834 35.9569 53.6517 35.8999C53.4717 35.8429 53.2461 35.8145 52.9749 35.8145L51.847 35.8145L51.847 39L50.7191 39ZM58.2511 39L58.2511 31.9658L59.379 31.9658L59.379 34.9258L60.7086 34.9258L63.0328 31.9658L64.277 31.9658L61.628 35.3701L61.3102 35.0249C61.5813 35.0522 61.8149 35.1172 62.0108 35.2197C62.2068 35.32 62.3971 35.4749 62.5816 35.6846C62.7662 35.8919 62.9667 36.1768 63.1832 36.5391L64.6393 39L63.4156 39L62.1202 36.8193C61.9653 36.5505 61.816 36.3442 61.6725 36.2007C61.5289 36.0571 61.366 35.9569 61.1837 35.8999C61.0037 35.8429 60.7781 35.8145 60.5069 35.8145L59.379 35.8145L59.379 39L58.2511 39ZM65.8309 42.0249L65.8309 33.5962C65.8309 33.3319 65.8195 33.063 65.7968 32.7896C65.7762 32.5161 65.75 32.2415 65.7181 31.9658L66.8187 31.9658L66.9657 33.6372L66.8051 33.6372C66.9554 33.0835 67.2585 32.646 67.7142 32.3247C68.1722 32.0034 68.7203 31.8428 69.3583 31.8428C69.9872 31.8428 70.5341 31.9886 70.9989 32.2803C71.4637 32.5719 71.8249 32.9889 72.0824 33.5312C72.3422 34.0713 72.472 34.7207 72.472 35.4795C72.472 36.236 72.3433 36.8877 72.0858 37.4346C71.8306 37.9792 71.4694 38.3973 71.0023 38.689C70.5352 38.9806 69.9872 39.1265 69.3583 39.1265C68.7248 39.1265 68.1802 38.967 67.7245 38.6479C67.2688 38.3289 66.9646 37.8937 66.8119 37.3423L66.9657 37.3423L66.9657 42.0249L65.8309 42.0249ZM69.1259 38.2036C69.7958 38.2036 70.329 37.9735 70.7255 37.5132C71.1242 37.0506 71.3236 36.3727 71.3236 35.4795C71.3236 34.5863 71.1242 33.9106 70.7255 33.4526C70.329 32.9924 69.7958 32.7622 69.1259 32.7622C68.4628 32.7622 67.933 32.9924 67.5365 33.4526C67.1423 33.9106 66.9452 34.5863 66.9452 35.4795C66.9452 36.3727 67.1423 37.0506 67.5365 37.5132C67.933 37.9735 68.4628 38.2036 69.1259 38.2036ZM77.5052 39.1265C76.4046 39.1265 75.5353 38.8063 74.8973 38.166C74.2593 37.5234 73.9403 36.6359 73.9403 35.5034C73.9403 34.7606 74.0793 34.1169 74.3573 33.5723C74.6375 33.0254 75.0295 32.6004 75.5331 32.2974C76.0366 31.9943 76.6188 31.8428 77.2796 31.8428C77.9222 31.8428 78.4634 31.9795 78.9032 32.2529C79.3429 32.5241 79.679 32.9103 79.9115 33.4116C80.1462 33.9106 80.2635 34.4997 80.2635 35.1787L80.2635 35.5957L74.805 35.5957L74.805 34.8813L79.515 34.8813L79.2757 35.0693C79.2757 34.3174 79.1071 33.7329 78.7699 33.3159C78.4326 32.8989 77.9359 32.6904 77.2796 32.6904C76.571 32.6904 76.0207 32.9354 75.6288 33.4253C75.2391 33.9152 75.0443 34.5726 75.0443 35.3975L75.0443 35.5205C75.0443 36.4046 75.2607 37.0734 75.6937 37.5269C76.1289 37.978 76.7396 38.2036 77.5257 38.2036C77.945 38.2036 78.3381 38.1421 78.7049 38.019C79.0741 37.8937 79.4273 37.6852 79.7645 37.3936L80.1644 38.1899C79.8522 38.4862 79.4603 38.7163 78.9886 38.8804C78.5169 39.0444 78.0225 39.1265 77.5052 39.1265ZM81.3306 40.8184L81.3306 38.1079L82.0757 38.1079C82.4083 37.6248 82.6499 37.054 82.8003 36.3955C82.9529 35.7347 83.0293 34.9531 83.0293 34.0508L83.0293 31.9658L87.9682 31.9658L87.9682 38.1079L89.0791 38.1079L89.0791 40.8184L88.1015 40.8184L88.1015 39L82.3081 39L82.3081 40.8184L81.3306 40.8184ZM83.166 38.1147L86.895 38.1147L86.895 32.8511L84.0307 32.8511L84.0307 34.2251C84.0307 34.9657 83.9578 35.6789 83.812 36.3647C83.6662 37.0506 83.4508 37.6339 83.166 38.1147ZM90.5911 39L90.5911 31.9658L91.6233 31.9658L91.6233 37.9541L91.2542 37.9541L95.7249 31.9658L96.6853 31.9658L96.6853 39L95.6531 39L95.6531 33.0083L96.0359 33.0083L91.5481 39L90.5911 39ZM100.425 39L100.425 32.8784L97.8684 32.8784L97.8684 31.9658L104.113 31.9658L104.113 32.8784L101.553 32.8784L101.553 39L100.425 39ZM108.206 39.1265C107.527 39.1265 106.939 38.9795 106.442 38.6855C105.946 38.3916 105.56 37.9723 105.287 37.4277C105.016 36.8809 104.88 36.2326 104.88 35.4829C104.88 34.731 105.016 34.0838 105.287 33.5415C105.56 32.9969 105.946 32.5776 106.442 32.2837C106.941 31.9897 107.529 31.8428 108.206 31.8428C108.885 31.8428 109.474 31.9897 109.973 32.2837C110.472 32.5776 110.858 32.9969 111.132 33.5415C111.407 34.0838 111.545 34.7298 111.545 35.4795C111.545 36.2314 111.407 36.8809 111.132 37.4277C110.858 37.9723 110.472 38.3916 109.973 38.6855C109.474 38.9795 108.885 39.1265 108.206 39.1265ZM108.206 38.2036C108.871 38.2036 109.401 37.9735 109.795 37.5132C110.192 37.0506 110.39 36.3727 110.39 35.4795C110.39 34.5863 110.192 33.9106 109.795 33.4526C109.399 32.9924 108.869 32.7622 108.206 32.7622C107.541 32.7622 107.011 32.9924 106.617 33.4526C106.225 33.9106 106.029 34.5863 106.029 35.4795C106.029 36.3727 106.225 37.0506 106.617 37.5132C107.011 37.9735 107.541 38.2036 108.206 38.2036ZM113.397 39L113.397 31.9658L116.784 31.9658C117.595 31.9658 118.204 32.123 118.609 32.4375C119.015 32.752 119.218 33.2111 119.218 33.8149C119.218 34.2684 119.062 34.6466 118.75 34.9497C118.44 35.2528 118.035 35.4316 117.536 35.4863L117.536 35.3154C118.12 35.3314 118.584 35.5 118.931 35.8213C119.277 36.1403 119.45 36.5516 119.45 37.0552C119.45 37.6567 119.226 38.1318 118.777 38.4805C118.33 38.8268 117.705 39 116.901 39L113.397 39ZM114.47 38.2275L116.846 38.2275C117.34 38.2275 117.72 38.1239 117.984 37.9165C118.248 37.7069 118.38 37.4072 118.38 37.0176C118.38 36.6211 118.248 36.3203 117.984 36.1152C117.72 35.9102 117.34 35.8076 116.846 35.8076L114.47 35.8076L114.47 38.2275ZM114.47 35.0352L116.706 35.0352C117.164 35.0352 117.519 34.9338 117.772 34.731C118.025 34.5282 118.151 34.2445 118.151 33.8799C118.151 33.513 118.025 33.2305 117.772 33.0322C117.519 32.834 117.164 32.7349 116.706 32.7349L114.47 32.7349L114.47 35.0352ZM123.933 39.1265C123.309 39.1265 122.763 38.9806 122.296 38.689C121.829 38.3973 121.467 37.9792 121.209 37.4346C120.954 36.8877 120.826 36.236 120.826 35.4795C120.826 34.7207 120.955 34.0713 121.213 33.5312C121.472 32.9889 121.836 32.5719 122.303 32.2803C122.77 31.9886 123.313 31.8428 123.933 31.8428C124.567 31.8428 125.115 32.0034 125.577 32.3247C126.04 32.646 126.345 33.0835 126.493 33.6372L126.333 33.6372L126.48 31.9658L127.573 31.9658C127.546 32.2415 127.52 32.5161 127.495 32.7896C127.472 33.063 127.461 33.3319 127.461 33.5962L127.461 39L126.333 39L126.326 37.3423L126.486 37.3423C126.338 37.8937 126.031 38.3289 125.564 38.6479C125.096 38.967 124.553 39.1265 123.933 39.1265ZM124.166 38.2036C124.829 38.2036 125.357 37.9735 125.752 37.5132C126.148 37.0506 126.346 36.3727 126.346 35.4795C126.346 34.5863 126.148 33.9106 125.752 33.4526C125.357 32.9924 124.829 32.7622 124.166 32.7622C123.5 32.7622 122.968 32.9924 122.569 33.4526C122.173 33.9106 121.975 34.5863 121.975 35.4795C121.975 36.3727 122.172 37.0506 122.566 37.5132C122.963 37.9735 123.496 38.2036 124.166 38.2036ZM129.749 39L129.749 31.9658L130.877 31.9658L130.877 34.9155L134.75 34.9155L134.75 31.9658L135.878 31.9658L135.878 39L134.75 39L134.75 35.8247L130.877 35.8247L130.877 39L129.749 39ZM138.121 39L138.121 31.9658L139.249 31.9658L139.249 34.9155L143.122 34.9155L143.122 31.9658L144.25 31.9658L144.25 39L143.122 39L143.122 35.8247L139.249 35.8247L139.249 39L138.121 39ZM149.436 39.1265C148.757 39.1265 148.169 38.9795 147.672 38.6855C147.176 38.3916 146.79 37.9723 146.517 37.4277C146.246 36.8809 146.11 36.2326 146.11 35.4829C146.11 34.731 146.246 34.0838 146.517 33.5415C146.79 32.9969 147.176 32.5776 147.672 32.2837C148.171 31.9897 148.759 31.8428 149.436 31.8428C150.115 31.8428 150.704 31.9897 151.203 32.2837C151.702 32.5776 152.088 32.9969 152.362 33.5415C152.637 34.0838 152.775 34.7298 152.775 35.4795C152.775 36.2314 152.637 36.8809 152.362 37.4277C152.088 37.9723 151.702 38.3916 151.203 38.6855C150.704 38.9795 150.115 39.1265 149.436 39.1265ZM149.436 38.2036C150.101 38.2036 150.631 37.9735 151.025 37.5132C151.422 37.0506 151.62 36.3727 151.62 35.4795C151.62 34.5863 151.422 33.9106 151.025 33.4526C150.629 32.9924 150.099 32.7622 149.436 32.7622C148.771 32.7622 148.241 32.9924 147.847 33.4526C147.455 33.9106 147.259 34.5863 147.259 35.4795C147.259 36.3727 147.455 37.0506 147.847 37.5132C148.241 37.9735 148.771 38.2036 149.436 38.2036ZM154.627 39L154.627 31.9658L155.659 31.9658L155.659 37.9541L155.29 37.9541L159.761 31.9658L160.721 31.9658L160.721 39L159.689 39L159.689 33.0083L160.072 33.0083L155.584 39L154.627 39ZM157.666 31.3164C157.283 31.3164 156.927 31.2503 156.599 31.1182C156.271 30.986 155.986 30.7878 155.745 30.5234C155.506 30.2591 155.322 29.9287 155.194 29.5322L155.868 29.2827C156.036 29.7316 156.268 30.0632 156.562 30.2773C156.858 30.4893 157.228 30.5952 157.673 30.5952C158.121 30.5952 158.491 30.4972 158.78 30.3013C159.069 30.1053 159.325 29.7703 159.546 29.2964L160.185 29.5322C159.941 30.1702 159.6 30.6271 159.163 30.9028C158.728 31.1785 158.229 31.3164 157.666 31.3164ZM166.724 39L166.724 29.1289L167.883 29.1289L167.883 39L166.724 39ZM172.739 39L172.739 30.1167L169.263 30.1167L169.263 29.1289L177.377 29.1289L177.377 30.1167L173.901 30.1167L173.901 39L172.739 39ZM177.933 35.6265L177.933 34.6934L181.922 34.6934L181.922 35.6265L177.933 35.6265ZM184.041 39L184.041 31.9658L185.169 31.9658L185.169 34.9258L186.499 34.9258L188.823 31.9658L190.067 31.9658L187.418 35.3701L187.1 35.0249C187.371 35.0522 187.605 35.1172 187.801 35.2197C187.997 35.32 188.187 35.4749 188.372 35.6846C188.556 35.8919 188.757 36.1768 188.973 36.5391L190.429 39L189.206 39L187.91 36.8193C187.755 36.5505 187.606 36.3442 187.462 36.2007C187.319 36.0571 187.156 35.9569 186.974 35.8999C186.794 35.8429 186.568 35.8145 186.297 35.8145L185.169 35.8145L185.169 39L184.041 39ZM194.516 39.1265C193.837 39.1265 193.249 38.9795 192.752 38.6855C192.256 38.3916 191.87 37.9723 191.597 37.4277C191.326 36.8809 191.19 36.2326 191.19 35.4829C191.19 34.731 191.326 34.0838 191.597 33.5415C191.87 32.9969 192.256 32.5776 192.752 32.2837C193.251 31.9897 193.839 31.8428 194.516 31.8428C195.195 31.8428 195.784 31.9897 196.283 32.2837C196.782 32.5776 197.168 32.9969 197.442 33.5415C197.717 34.0838 197.855 34.7298 197.855 35.4795C197.855 36.2314 197.717 36.8809 197.442 37.4277C197.168 37.9723 196.782 38.3916 196.283 38.6855C195.784 38.9795 195.195 39.1265 194.516 39.1265ZM194.516 38.2036C195.181 38.2036 195.711 37.9735 196.105 37.5132C196.502 37.0506 196.7 36.3727 196.7 35.4795C196.7 34.5863 196.502 33.9106 196.105 33.4526C195.709 32.9924 195.179 32.7622 194.516 32.7622C193.851 32.7622 193.321 32.9924 192.927 33.4526C192.535 33.9106 192.339 34.5863 192.339 35.4795C192.339 36.3727 192.535 37.0506 192.927 37.5132C193.321 37.9735 193.851 38.2036 194.516 38.2036ZM199.707 39L199.707 31.9658L200.657 31.9658L203.293 36.686L205.938 31.9658L206.881 31.9658L206.881 39L205.877 39L205.877 33.2305L206.177 33.2305L203.58 37.8652L203.005 37.8652L200.411 33.2202L200.712 33.2202L200.712 39L199.707 39ZM209.129 39L209.129 31.9658L215.217 31.9658L215.217 39L214.089 39L214.089 32.8647L210.257 32.8647L210.257 39L209.129 39ZM220.183 39.1265C219.559 39.1265 219.013 38.9806 218.546 38.689C218.079 38.3973 217.717 37.9792 217.459 37.4346C217.204 36.8877 217.076 36.236 217.076 35.4795C217.076 34.7207 217.205 34.0713 217.463 33.5312C217.722 32.9889 218.086 32.5719 218.553 32.2803C219.02 31.9886 219.563 31.8428 220.183 31.8428C220.817 31.8428 221.365 32.0034 221.827 32.3247C222.29 32.646 222.595 33.0835 222.743 33.6372L222.583 33.6372L222.73 31.9658L223.823 31.9658C223.796 32.2415 223.77 32.5161 223.745 32.7896C223.722 33.063 223.711 33.3319 223.711 33.5962L223.711 39L222.583 39L222.576 37.3423L222.736 37.3423C222.588 37.8937 222.281 38.3289 221.814 38.6479C221.346 38.967 220.803 39.1265 220.183 39.1265ZM220.416 38.2036C221.079 38.2036 221.607 37.9735 222.002 37.5132C222.398 37.0506 222.596 36.3727 222.596 35.4795C222.596 34.5863 222.398 33.9106 222.002 33.4526C221.607 32.9924 221.079 32.7622 220.416 32.7622C219.75 32.7622 219.218 32.9924 218.819 33.4526C218.423 33.9106 218.225 34.5863 218.225 35.4795C218.225 36.3727 218.422 37.0506 218.816 37.5132C219.213 37.9735 219.746 38.2036 220.416 38.2036ZM225.999 39L225.999 31.9658L227.127 31.9658L227.127 34.9155L231 34.9155L231 31.9658L232.128 31.9658L232.128 39L231 39L231 35.8247L227.127 35.8247L227.127 39L225.999 39ZM234.371 39L234.371 31.9658L235.403 31.9658L235.403 37.9541L235.034 37.9541L239.505 31.9658L240.465 31.9658L240.465 39L239.433 39L239.433 33.0083L239.816 33.0083L235.328 39L234.371 39ZM245.883 39.1265C244.783 39.1265 243.913 38.8063 243.275 38.166C242.637 37.5234 242.318 36.6359 242.318 35.5034C242.318 34.7606 242.457 34.1169 242.735 33.5723C243.016 33.0254 243.407 32.6004 243.911 32.2974C244.415 31.9943 244.997 31.8428 245.658 31.8428C246.3 31.8428 246.841 31.9795 247.281 32.2529C247.721 32.5241 248.057 32.9103 248.289 33.4116C248.524 33.9106 248.642 34.4997 248.642 35.1787L248.642 35.5957L243.183 35.5957L243.183 34.8813L247.893 34.8813L247.654 35.0693C247.654 34.3174 247.485 33.7329 247.148 33.3159C246.811 32.8989 246.314 32.6904 245.658 32.6904C244.949 32.6904 244.399 32.9354 244.007 33.4253C243.617 33.9152 243.422 34.5726 243.422 35.3975L243.422 35.5205C243.422 36.4046 243.639 37.0734 244.072 37.5269C244.507 37.978 245.118 38.2036 245.904 38.2036C246.323 38.2036 246.716 38.1421 247.083 38.019C247.452 37.8937 247.805 37.6852 248.143 37.3936L248.542 38.1899C248.23 38.4862 247.838 38.7163 247.367 38.8804C246.895 39.0444 246.4 39.1265 245.883 39.1265ZM250.457 39L250.457 31.9658L251.489 31.9658L251.489 37.9541L251.12 37.9541L255.591 31.9658L256.551 31.9658L256.551 39L255.519 39L255.519 33.0083L255.902 33.0083L251.414 39L250.457 39ZM253.496 31.3164C253.113 31.3164 252.757 31.2503 252.429 31.1182C252.101 30.986 251.816 30.7878 251.575 30.5234C251.336 30.2591 251.152 29.9287 251.024 29.5322L251.698 29.2827C251.866 29.7316 252.098 30.0632 252.392 30.2773C252.688 30.4893 253.058 30.5952 253.503 30.5952C253.951 30.5952 254.321 30.4972 254.61 30.3013C254.899 30.1053 255.155 29.7703 255.376 29.2964L256.015 29.5322C255.771 30.1702 255.43 30.6271 254.993 30.9028C254.558 31.1785 254.058 31.3164 253.496 31.3164Z" opacity="0" fill="rgb(254.745,254.926,255)" fill-rule="nonzero" />
</svg>
