<svg xmlns="http://www.w3.org/2000/svg">
    <symbol id="logo-icon" viewBox="0 0 210 37" xmlns="http://www.w3.org/2000/svg" fill="none">
        <path d="M202.961 27.8834C201.351 27.8834 200.095 27.4588 199.192 26.6096C198.29 25.7426 197.839 24.5218 197.839 22.9471L197.839 7.97852L201.979 7.97852L201.979 22.7082C201.979 23.3098 202.129 23.7787 202.43 24.1148C202.749 24.4333 203.191 24.5924 203.757 24.5924C203.97 24.5924 204.182 24.566 204.394 24.513C204.624 24.4599 204.801 24.3979 204.925 24.3272L205.111 27.5385C204.421 27.7685 203.704 27.8834 202.961 27.8834Z" fill="rgb(25,202,228)" fill-rule="nonzero" />
        <path d="M187.243 27.8828C185.739 27.8828 184.385 27.5733 183.182 26.9539C181.996 26.3171 181.068 25.4412 180.395 24.3265C179.723 23.2119 179.387 21.9468 179.387 20.5312C179.387 19.1158 179.723 17.8507 180.395 16.736C181.068 15.6214 181.996 14.7544 183.182 14.1351C184.385 13.4982 185.739 13.1797 187.243 13.1797C188.747 13.1797 190.091 13.4982 191.277 14.1351C192.462 14.7544 193.391 15.6214 194.063 16.736C194.736 17.8507 195.072 19.1158 195.072 20.5312C195.072 21.9468 194.736 23.2119 194.063 24.3265C193.391 25.4412 192.462 26.3171 191.277 26.9539C190.091 27.5733 188.747 27.8828 187.243 27.8828ZM187.243 24.4857C188.304 24.4857 189.171 24.132 189.843 23.424C190.534 22.6988 190.878 21.7344 190.878 20.5312C190.878 19.3281 190.534 18.3727 189.843 17.6649C189.171 16.9395 188.304 16.5768 187.243 16.5768C186.181 16.5768 185.305 16.9395 184.615 17.6649C183.925 18.3727 183.58 19.3281 183.58 20.5312C183.58 21.7344 183.925 22.6988 184.615 23.424C185.305 24.132 186.181 24.4857 187.243 24.4857Z" fill="rgb(25,202,228)" fill-rule="nonzero" />
        <path d="M169.851 27.8828C168.347 27.8828 166.994 27.5733 165.79 26.9539C164.605 26.3171 163.676 25.4412 163.004 24.3265C162.331 23.2119 161.995 21.9468 161.995 20.5312C161.995 19.1158 162.331 17.8507 163.004 16.736C163.676 15.6214 164.605 14.7544 165.79 14.1351C166.994 13.4982 168.347 13.1797 169.851 13.1797C171.355 13.1797 172.699 13.4982 173.885 14.1351C175.07 14.7544 175.999 15.6214 176.672 16.736C177.344 17.8507 177.68 19.1158 177.68 20.5312C177.68 21.9468 177.344 23.2119 176.672 24.3265C175.999 25.4412 175.07 26.3171 173.885 26.9539C172.699 27.5733 171.355 27.8828 169.851 27.8828ZM169.851 24.4857C170.913 24.4857 171.78 24.132 172.452 23.424C173.142 22.6988 173.487 21.7344 173.487 20.5312C173.487 19.3281 173.142 18.3727 172.452 17.6649C171.78 16.9395 170.913 16.5768 169.851 16.5768C168.789 16.5768 167.913 16.9395 167.224 17.6649C166.534 18.3727 166.188 19.3281 166.188 20.5312C166.188 21.7344 166.534 22.6988 167.224 23.424C167.913 24.132 168.789 24.4857 169.851 24.4857Z" fill="rgb(25,202,228)" fill-rule="nonzero" />
        <path d="M153.23 13.1804C155 13.1804 156.424 13.7112 157.503 14.7727C158.6 15.8343 159.149 17.4091 159.149 19.4969L159.149 27.6713L155.008 27.6713L155.008 20.1338C155.008 19.0015 154.761 18.161 154.265 17.6125C153.77 17.0463 153.053 16.7632 152.116 16.7632C151.072 16.7632 150.24 17.0906 149.621 17.7452C149.002 18.3822 148.692 19.3376 148.692 20.6116L148.692 27.6713L144.552 27.6713L144.552 7.97852L148.692 7.97852L148.692 14.8789C149.24 14.3304 149.904 13.9146 150.682 13.6315C151.461 13.3307 152.31 13.1804 153.23 13.1804Z" fill="rgb(25,202,228)" fill-rule="nonzero" />
        <path d="M135.875 27.8828C134.353 27.8828 132.982 27.5733 131.761 26.9539C130.558 26.3171 129.612 25.4412 128.922 24.3265C128.249 23.2119 127.913 21.9468 127.913 20.5312C127.913 19.1158 128.249 17.8507 128.922 16.736C129.612 15.6214 130.558 14.7544 131.761 14.1351C132.982 13.4982 134.353 13.1797 135.875 13.1797C137.379 13.1797 138.688 13.4982 139.803 14.1351C140.935 14.7544 141.758 15.6479 142.271 16.8156L139.06 18.5408C138.317 17.2315 137.246 16.5768 135.849 16.5768C134.769 16.5768 133.876 16.9307 133.168 17.6384C132.46 18.3461 132.106 19.3104 132.106 20.5312C132.106 21.752 132.46 22.7164 133.168 23.424C133.876 24.132 134.769 24.4857 135.849 24.4857C137.264 24.4857 138.334 23.831 139.06 22.5218L142.271 24.2735C141.758 25.4058 140.935 26.2904 139.803 26.9275C138.688 27.5642 137.379 27.8828 135.875 27.8828Z" fill="rgb(25,202,228)" fill-rule="nonzero" />
        <path d="M118.447 27.9885C116.978 27.9885 115.554 27.7937 114.174 27.4045C112.812 26.9975 111.714 26.4756 110.883 25.8386L112.342 22.6009C113.139 23.1846 114.085 23.6535 115.182 24.0074C116.279 24.3614 117.376 24.5381 118.473 24.5381C119.694 24.5381 120.596 24.3614 121.18 24.0074C121.764 23.6359 122.056 23.1492 122.056 22.5476C122.056 22.1054 121.879 21.7426 121.525 21.4596C121.189 21.1589 120.747 20.9198 120.198 20.7431C119.668 20.5661 118.942 20.3714 118.022 20.1591C116.607 19.8229 115.448 19.4868 114.545 19.1506C113.643 18.8144 112.865 18.2748 112.21 17.5317C111.573 16.7885 111.254 15.7977 111.254 14.5592C111.254 13.4799 111.546 12.5067 112.13 11.6398C112.714 10.7551 113.59 10.0562 114.758 9.5431C115.943 9.02999 117.385 8.77344 119.084 8.77344C120.269 8.77344 121.428 8.91497 122.56 9.19807C123.693 9.48116 124.684 9.88812 125.533 10.4189L124.206 13.6833C122.49 12.7102 120.773 12.2236 119.057 12.2236C117.854 12.2236 116.961 12.4183 116.377 12.8075C115.81 13.1968 115.527 13.7099 115.527 14.3468C115.527 14.9838 115.855 15.4615 116.509 15.78C117.182 16.0808 118.199 16.3816 119.561 16.6824C120.977 17.0185 122.136 17.3547 123.038 17.6909C123.94 18.027 124.71 18.5579 125.347 19.2833C126.002 20.0087 126.329 20.9907 126.329 22.2293C126.329 23.2907 126.028 24.2639 125.427 25.1485C124.843 26.0156 123.958 26.7056 122.773 27.2187C121.587 27.7318 120.145 27.9885 118.447 27.9885Z" fill="rgb(25,202,228)" fill-rule="nonzero" />
        <path d="M108.424 13.392L108.424 27.6706L104.47 27.6706L104.47 26.025C103.444 27.2636 101.957 27.8828 100.011 27.8828C98.6665 27.8828 97.4457 27.5821 96.3486 26.9805C95.2694 26.3789 94.4202 25.5207 93.801 24.406C93.1815 23.2913 92.8721 21.9999 92.8721 20.5312C92.8721 19.0627 93.1815 17.7711 93.801 16.6564C94.4202 15.5417 95.2694 14.6836 96.3486 14.082C97.4457 13.4805 98.6665 13.1797 100.011 13.1797C101.834 13.1797 103.258 13.7547 104.284 14.9048L104.284 13.392L108.424 13.392ZM100.728 24.4857C101.772 24.4857 102.639 24.132 103.329 23.424C104.019 22.6988 104.364 21.7344 104.364 20.5312C104.364 19.3281 104.019 18.3727 103.329 17.6649C102.639 16.9395 101.772 16.5768 100.728 16.5768C99.6662 16.5768 98.7904 16.9395 98.1003 17.6649C97.4102 18.3727 97.0653 19.3281 97.0653 20.5312C97.0653 21.7344 97.4102 22.6988 98.1003 23.424C98.7904 24.132 99.6662 24.4857 100.728 24.4857Z" fill="rgb(25,202,228)" fill-rule="nonzero" />
        <path d="M90.1001 13.392L90.1001 27.6706L86.1457 27.6706L86.1457 26.025C85.1195 27.2636 83.6332 27.8828 81.6869 27.8828C80.3422 27.8828 79.1215 27.5821 78.0244 26.9805C76.9452 26.3789 76.0959 25.5207 75.4767 24.406C74.8573 23.2913 74.5479 21.9999 74.5479 20.5312C74.5479 19.0627 74.8573 17.7711 75.4767 16.6564C76.0959 15.5417 76.9452 14.6836 78.0244 14.082C79.1215 13.4805 80.3422 13.1797 81.6869 13.1797C83.5095 13.1797 84.9337 13.7547 85.9599 14.9048L85.9599 13.392L90.1001 13.392ZM82.4037 24.4857C83.4474 24.4857 84.3145 24.132 85.0046 23.424C85.6947 22.6988 86.0396 21.7344 86.0396 20.5312C86.0396 19.3281 85.6947 18.3727 85.0046 17.6649C84.3145 16.9395 83.4474 16.5768 82.4037 16.5768C81.342 16.5768 80.4662 16.9395 79.7761 17.6649C79.086 18.3727 78.7411 19.3281 78.7411 20.5312C78.7411 21.7344 79.086 22.6988 79.7761 23.424C80.4662 24.132 81.342 24.4857 82.4037 24.4857Z" fill="rgb(25,202,228)" fill-rule="nonzero" />
        <path d="M65.0815 27.9885C63.6129 27.9885 62.1885 27.7937 60.8086 27.4045C59.446 26.9975 58.3492 26.4756 57.5176 25.8386L58.9772 22.6009C59.7733 23.1846 60.7201 23.6535 61.8169 24.0074C62.914 24.3614 64.0111 24.5381 65.1079 24.5381C66.3289 24.5381 67.2312 24.3614 67.8152 24.0074C68.3989 23.6359 68.6908 23.1492 68.6908 22.5476C68.6908 22.1054 68.5141 21.7426 68.1601 21.4596C67.824 21.1589 67.3815 20.9198 66.833 20.7431C66.3023 20.5661 65.5768 20.3714 64.6569 20.1591C63.2413 19.8229 62.0824 19.4868 61.1801 19.1506C60.2776 18.8144 59.4993 18.2748 58.8444 17.5317C58.2077 16.7885 57.8891 15.7977 57.8891 14.5592C57.8891 13.4799 58.181 12.5067 58.765 11.6398C59.3487 10.7551 60.2246 10.0562 61.3923 9.5431C62.5779 9.02999 64.0199 8.77344 65.7183 8.77344C66.9039 8.77344 68.0628 8.91497 69.1951 9.19807C70.3276 9.48116 71.3184 9.88812 72.1676 10.4189L70.8407 13.6833C69.1244 12.7102 67.4082 12.2236 65.6919 12.2236C64.4887 12.2236 63.5953 12.4183 63.0113 12.8075C62.4451 13.1968 62.1621 13.7099 62.1621 14.3468C62.1621 14.9838 62.4894 15.4615 63.144 15.78C63.8165 16.0808 64.8336 16.3816 66.1962 16.6824C67.6115 17.0185 68.7705 17.3547 69.673 17.6909C70.5752 18.027 71.345 18.5579 71.9818 19.2833C72.6364 20.0087 72.9637 20.9907 72.9637 22.2293C72.9637 23.2907 72.6631 24.2639 72.0615 25.1485C71.4775 26.0156 70.5928 26.7056 69.4075 27.2187C68.2219 27.7318 66.7799 27.9885 65.0815 27.9885Z" fill="rgb(25,202,228)" fill-rule="nonzero" />
        <path d="M22.811 11.3493C23.306 10.3894 24.4855 10.0125 25.4455 10.5075L38.7412 17.364C39.3917 17.6995 39.8002 18.3702 39.8004 19.1021L39.8004 27.4214C39.8004 28.1264 39.421 28.7766 38.8075 29.1238L28.7406 34.8162C28.1676 35.1403 27.4697 35.1543 26.8843 34.8531L12.0383 27.2217C11.0778 26.7279 10.6992 25.549 11.193 24.5883C11.6868 23.6278 12.8658 23.2494 13.8263 23.7432L27.7337 30.8923L35.8892 26.2808L35.8892 20.2938L23.6529 13.9837C22.693 13.4887 22.3159 12.3092 22.811 11.3493ZM24.8138 1.06218C25.3526 0.818541 25.9757 0.831326 26.5066 1.10156L46.1817 11.1179C47.1441 11.608 47.5271 12.7854 47.0373 13.7479C46.5474 14.7103 45.3697 15.0933 44.4073 14.6035L25.6349 5.04638L11.0875 12.7173L28.8347 21.7918C29.7964 22.2834 30.1772 23.4619 29.6857 24.4233C29.1938 25.3849 28.0158 25.7658 27.0542 25.2742L5.95411 14.4855C5.30425 14.1533 4.89338 13.4866 4.88871 12.7567C4.88412 12.0268 5.28648 11.3551 5.93213 11.0146L24.707 1.11445L24.8138 1.06218Z" fill="rgb(25,202,228)" fill-rule="nonzero" />
    </symbol>
    <symbol id="menu-icon" viewBox="0 0 40 40" xmlns="http://www.w3.org/2000/svg" fill="none">
        <path d="M6.66699 20L33.334 20" stroke="rgb(0,44,62)" stroke-linecap="square" stroke-linejoin="round" stroke-width="4" />
        <path d="M6.66699 30L33.334 30" stroke="rgb(0,44,62)" stroke-linecap="square" stroke-linejoin="round" stroke-width="4" />
        <path d="M6.66699 10L33.334 10" stroke="rgb(0,44,62)" stroke-linecap="square" stroke-linejoin="round" stroke-width="4" />
    </symbol>
    <symbol id="close-menu-icon" viewBox="0 0 40 40" xmlns="http://www.w3.org/2000/svg" fill="none">
        <path d="M0 0L25.4558 0" stroke="rgb(0,44,62)" stroke-linecap="square" stroke-linejoin="round" stroke-width="3" transform="matrix(0.707107,-0.707107,0.707107,0.707107,11,29)" />
        <path d="M0 0L25.4558 0" stroke="rgb(0,44,62)" stroke-linecap="square" stroke-linejoin="round" stroke-width="3" transform="matrix(0.707107,0.707107,-0.707107,0.707107,11,11)" />
    </symbol>
    <symbol id="vk-icon" viewBox="0 0 52 52" xmlns="http://www.w3.org/2000/svg" fill="none">
        <path d="M27.8932 36.645C16.0416 36.645 9.28167 28.52 9 15L14.9367 15C15.1317 24.9233 19.5082 29.1267 22.9749 29.9933L22.9749 15L28.5651 15L28.5651 23.5583C31.9884 23.19 35.5847 19.29 36.798 15L42.3881 15C41.4565 20.2867 37.5564 24.1867 34.7831 25.79C37.5564 27.09 41.9983 30.4917 43.6883 36.645L37.5348 36.645C36.2131 32.5283 32.9201 29.3433 28.5651 28.91L28.5651 36.645L27.8932 36.645Z" fill="currentColor"/>
    </symbol>
    <symbol id="tg-icon" viewBox="0 0 52 52" xmlns="http://www.w3.org/2000/svg" fill="none">
        <path d="M11.9338 26.0925C19.514 22.8005 24.5602 20.6131 27.0942 19.5519C34.3062 16.5414 35.8222 16.0217 36.7968 16C37.0134 16 37.4899 16.0433 37.8147 16.3032C38.0746 16.5198 38.1396 16.8013 38.1829 17.0179C38.2262 17.2345 38.2695 17.6893 38.2262 18.0358C37.8364 22.1508 36.1471 32.1349 35.2808 36.7264C34.9126 38.6756 34.1979 39.3253 33.5049 39.3903C31.9888 39.5202 30.841 38.394 29.3899 37.4411C27.0942 35.9467 25.8164 35.0154 23.5857 33.5427C21.0084 31.8534 22.676 30.9221 24.1488 29.4061C24.5386 29.0162 31.1875 22.9521 31.3174 22.4107C31.3391 22.3457 31.3391 22.0858 31.1875 21.9559C31.0359 21.8259 30.8193 21.8692 30.646 21.9125C30.4078 21.9559 26.7693 24.3815 19.6873 29.1678C18.6477 29.8825 17.7164 30.2291 16.8718 30.2074C15.9405 30.1858 14.1646 29.6876 12.8218 29.2545C11.1975 28.7347 9.89802 28.4531 10.0063 27.5435C10.0713 27.0671 10.721 26.5906 11.9338 26.0925Z" fill="currentColor"/>
    </symbol>
    <symbol id="menu-logo-icon" viewBox="0 0 208.762 37" xmlns="http://www.w3.org/2000/svg" fill="none">
        <path d="M44.2819 10.3045C39.7928 10.3045 36.2773 14.0069 36.2773 18.499C36.2773 14.1373 34.7697 10.1282 32.2451 6.96588C34.2419 5.77396 36.5765 5.08984 39.0701 5.08984C45.3027 5.08984 50.5381 9.36586 52.0022 15.1467C51.7899 14.8363 49.649 10.3045 44.2819 10.3045Z" fill="rgb(0,93,131)" fill-rule="nonzero" />
        <path d="M45.5228 26.6315C51.9752 26.6315 57.7459 21.8514 57.7459 13.3465C57.7459 9.31137 56.0086 4.46919 50.0517 0.857422C57.5348 3.22637 62.959 10.2289 62.959 18.4991C62.959 25.8704 56.9859 32.529 49.6171 32.529C44.2425 32.529 39.6106 29.3481 37.4971 24.7666C36.7135 23.0669 36.2764 20.4931 36.2764 18.4991C36.2764 22.9552 39.9993 26.6315 45.5228 26.6315Z" fill="rgb(0,93,131)" fill-rule="nonzero" />
        <path d="M36.401 18.4996C36.401 8.28137 27.9989 0 17.7863 0C9.00307 0 1.83414 6.12598 0 14.3403C1.46657 10.6776 5.46021 5.27674 12.7608 5.27674C20.0588 5.27674 25.9773 11.1966 25.9773 18.4996C25.9773 22.4416 27.2091 26.0969 29.3103 29.0978C29.8592 29.8812 30.4664 30.6212 31.127 31.3091C34.4923 34.8153 39.2248 36.9992 44.4677 36.9992C54.6803 36.9992 62.9594 28.7166 62.9594 18.4996C62.9594 25.8709 56.9863 32.5295 49.6175 32.5295C44.243 32.5295 39.7352 29.3486 37.6217 24.7671C36.8381 23.0674 36.401 20.4936 36.401 18.4996Z" fill="rgb(25,202,228)" fill-rule="nonzero" />
        <path d="M4.38379 23.6531C4.38379 31.0244 10.419 37.0001 17.7866 37.0001C23.0295 37.0001 27.762 34.8162 31.1273 31.31C30.4666 30.6221 29.8594 29.8821 29.3105 29.0987C27.2615 30.8506 24.6028 31.9096 21.6958 31.9096C15.2185 31.9096 9.96818 26.6565 9.96818 20.1767C9.96818 16.2235 11.9215 12.7284 14.9143 10.6016C8.8965 11.8928 4.38379 17.2453 4.38379 23.6531Z" fill="rgb(25,202,228)" fill-rule="nonzero" />
        <path d="M9.96777 20.1761C9.96777 24.5304 13.4684 28.0602 17.7862 28.0602C23.3085 28.0602 25.9771 23.2801 25.9771 18.5C25.9771 22.442 27.209 26.0973 29.3101 29.0982C27.2611 30.85 24.6024 31.9091 21.6954 31.9091C15.2181 31.9091 9.96777 26.656 9.96777 20.1761Z" fill="rgb(0,93,131)" fill-rule="nonzero" />
        <path d="M163.081 13.8716Q164.968 13.8716 166.305 14.7297Q166.732 15.0039 167.102 15.3658Q167.168 15.4293 167.23 15.4956L167.232 15.4971Q168.633 16.9807 168.633 19.7876L168.633 27.453L164.752 27.453L164.752 20.389C164.752 19.328 164.519 18.5364 164.053 18.014C163.587 17.4917 162.915 17.2305 162.036 17.2305Q160.964 17.2305 160.208 17.7195Q159.932 17.898 159.698 18.1416C159.119 18.7449 158.829 19.6419 158.829 20.8324L158.829 27.453L154.948 27.453L154.948 8.99414L158.829 8.99414L158.829 15.4629C159.344 14.9487 159.965 14.5559 160.694 14.2846Q161.787 13.8716 163.081 13.8716ZM208.762 8.99414L204.88 8.99414L204.88 27.453L208.762 27.453L208.762 8.99414ZM127.107 27.3601L127.106 27.36Q126.786 27.2834 126.47 27.1918C125.186 26.8193 124.155 26.3334 123.378 25.7341L124.745 22.7031Q125.862 23.5231 127.405 24.0212Q128.948 24.5193 130.491 24.5193Q132.21 24.5193 133.03 24.0091C133.576 23.6689 133.849 23.2154 133.849 22.6485C133.849 22.2354 133.688 21.8933 133.364 21.622C133.04 21.3466 132.625 21.1259 132.118 20.9599Q131.365 20.7109 130.071 20.4132C128.743 20.0974 127.656 19.7816 126.81 19.4657C125.963 19.1499 125.237 18.6437 124.629 17.9472Q124.562 17.8702 124.501 17.7895L124.501 17.7895Q123.724 16.7745 123.724 15.1653Q123.724 14.2921 123.995 13.5134Q124.196 12.9378 124.544 12.4138Q125.364 11.1808 127.016 10.464Q128.674 9.74124 131.062 9.74124Q132.381 9.74124 133.651 9.99134L133.651 9.99136L133.651 9.99136L133.652 9.99148L133.652 9.9916L133.653 9.99168L133.653 9.99179Q133.99 10.0582 134.323 10.1421Q135.915 10.5369 137.111 11.284L135.866 14.3393Q133.474 12.9834 131.075 12.9727L131.075 12.9727Q131.056 12.9726 131.037 12.9726Q129.349 12.9726 128.535 13.5193C127.996 13.8837 127.727 14.3656 127.727 14.9649Q127.727 15.3004 127.859 15.5716Q128.078 16.0221 128.662 16.2951Q129.598 16.7324 131.511 17.1515C132.839 17.4674 133.926 17.7832 134.773 18.0991C135.619 18.4149 136.344 18.913 136.947 19.5933C137.555 20.2735 137.858 21.1927 137.858 22.3509C137.858 23.347 137.579 24.2561 137.02 25.0781C136.465 25.9001 135.631 26.552 134.518 27.0339Q132.853 27.7506 130.466 27.7506Q128.74 27.7506 127.107 27.3601ZM142.968 26.7727Q143.038 26.809 143.109 26.8438Q144.763 27.6535 146.813 27.6534Q148.927 27.6535 150.506 26.7606C151.559 26.1613 152.326 25.3312 152.808 24.2702L149.795 22.6242Q149.228 23.6473 148.362 24.1017L148.362 24.1017Q147.671 24.4646 146.789 24.4646Q145.827 24.4646 145.076 24.0679L145.075 24.0679Q144.64 23.8379 144.274 23.4745Q144.095 23.2959 143.949 23.0939L143.948 23.0931L143.948 23.0931Q143.278 22.1694 143.278 20.7595Q143.278 19.3632 143.94 18.4431L143.94 18.4431Q144.09 18.2345 144.274 18.0505Q144.646 17.6789 145.09 17.4459L145.09 17.4459Q145.837 17.0543 146.789 17.0543Q147.624 17.0543 148.292 17.3876L148.292 17.3877Q149.195 17.8376 149.795 18.8948L152.808 17.2791C152.326 16.1817 151.559 15.3394 150.506 14.7523Q148.927 13.8716 146.813 13.8716Q144.763 13.8716 143.11 14.6812L143.109 14.6812Q143.038 14.716 142.968 14.7523Q141.856 15.3262 141.061 16.1914L141.061 16.1918Q140.636 16.6543 140.302 17.2001Q140.089 17.5495 139.924 17.9201L139.924 17.9202Q139.348 19.2115 139.348 20.7595Q139.348 22.3075 139.924 23.5988Q140.089 23.9694 140.302 24.3188Q140.63 24.8544 141.045 25.3106L141.045 25.3106L141.045 25.3109L141.045 25.3111Q141.845 26.1892 142.968 26.7727ZM174.858 26.7727Q174.946 26.8186 175.035 26.8621Q176.651 27.6535 178.654 27.6534C180.068 27.6534 181.329 27.3599 182.438 26.7727C183.552 26.1815 184.423 25.3636 185.05 24.3188C185.682 23.2741 185.998 22.0876 185.998 20.7595C185.998 19.4313 185.682 18.2448 185.05 17.2001C184.423 16.1554 183.552 15.3394 182.438 14.7523C181.329 14.1651 180.068 13.8716 178.654 13.8716Q176.651 13.8716 175.035 14.6629L175.034 14.6631L175.029 14.6656Q174.943 14.7078 174.858 14.7523Q173.826 15.2948 173.069 16.0977Q172.598 16.5983 172.234 17.2001C171.607 18.2448 171.293 19.4313 171.293 20.7595C171.293 22.0876 171.607 23.2741 172.234 24.3188Q172.592 24.9106 173.054 25.4053L173.054 25.4054L173.054 25.4055Q173.815 26.2208 174.858 26.7727ZM194.95 27.6534C193.541 27.6534 192.276 27.3599 191.154 26.7727C190.036 26.1815 189.162 25.3636 188.53 24.3188C187.902 23.2741 187.588 22.0876 187.588 20.7595C187.588 19.4313 187.902 18.2448 188.53 17.2001C189.162 16.1554 190.036 15.3394 191.154 14.7523C192.276 14.1651 193.541 13.8716 194.95 13.8716C196.363 13.8716 197.625 14.1651 198.734 14.7523C199.848 15.3394 200.718 16.1554 201.346 17.2001C201.978 18.2448 202.294 19.4313 202.294 20.7595C202.294 22.0876 201.978 23.2741 201.346 24.3188C200.718 25.3636 199.848 26.1815 198.734 26.7727C197.625 27.3599 196.363 27.6534 194.95 27.6534ZM181.108 23.4624C180.468 24.1305 179.651 24.4646 178.654 24.4646C177.662 24.4646 176.842 24.1305 176.194 23.4624C175.547 22.7902 175.223 21.8892 175.223 20.7595C175.223 19.6338 175.547 18.7348 176.194 18.0626C176.842 17.3904 177.662 17.0543 178.654 17.0543C179.651 17.0543 180.468 17.3904 181.108 18.0626C181.748 18.7348 182.068 19.6338 182.068 20.7595C182.068 21.8892 181.748 22.7902 181.108 23.4624ZM194.95 24.4646C195.946 24.4646 196.764 24.1305 197.404 23.4624C198.044 22.7902 198.364 21.8892 198.364 20.7595C198.364 19.6338 198.044 18.7348 197.404 18.0626C196.764 17.3904 195.946 17.0543 194.95 17.0543C193.958 17.0543 193.138 17.3904 192.49 18.0626C191.842 18.7348 191.518 19.6338 191.518 20.7595C191.518 21.8892 191.842 22.7902 192.49 23.4624C193.138 24.1305 193.958 24.4646 194.95 24.4646Z" fill="rgb(25,202,228)" fill-rule="evenodd" />
        <path d="M72.4798 27.427C73.8642 27.8011 75.2929 27.9882 76.766 27.9882C78.4698 27.9882 79.9163 27.7416 81.1054 27.2484C82.2945 26.7552 83.1819 26.092 83.7676 25.2587C84.371 24.4084 84.6727 23.473 84.6727 22.4527C84.6727 21.2623 84.3444 20.3184 83.6877 19.6212C83.0488 18.9239 82.2767 18.4137 81.3716 18.0906C80.4664 17.7675 79.3039 17.4444 77.8841 17.1213C76.5175 16.8322 75.497 16.5431 74.8226 16.254C74.1659 15.9478 73.8376 15.4887 73.8376 14.8765Q73.8376 14.5235 73.9634 14.2233L73.9634 14.2233Q74.165 13.7424 74.6895 13.3969Q75.568 12.8357 77.3783 12.8357L77.3783 12.8357Q79.9606 12.8357 82.543 14.2387L83.8741 11.1011Q82.5962 10.3358 80.8924 9.92768Q80.5918 9.85568 80.2888 9.79638L80.2884 9.7963Q78.8737 9.51953 77.4049 9.51953Q74.8492 9.51953 73.0655 10.2593Q71.3085 10.9991 70.4299 12.2745Q70.0349 12.8366 69.8175 13.4605Q69.5514 14.2242 69.5514 15.0805Q69.5514 16.6746 70.3152 17.6994L70.3153 17.6995L70.3153 17.6996Q70.4071 17.8227 70.5098 17.9376Q71.0429 18.5174 71.6851 18.9253L71.6851 18.9254L71.6852 18.9254Q72.2297 19.2713 72.8525 19.4936Q74.2103 19.9783 76.34 20.463C77.2629 20.667 77.9906 20.8541 78.523 21.0242C79.0732 21.1942 79.5169 21.4238 79.8541 21.7129C80.2091 21.985 80.3866 22.3336 80.3866 22.7588C80.3866 23.337 80.0937 23.8047 79.5081 24.1618C78.9224 24.5019 78.0172 24.672 76.7926 24.672C75.6922 24.672 74.5919 24.5019 73.4915 24.1618C72.3911 23.8217 71.4416 23.371 70.6429 22.8098L69.1787 25.9219C70.0129 26.5341 71.1132 27.0358 72.4798 27.427ZM101.862 13.9581L101.862 27.6821L97.8958 27.6821L97.8958 26.1005C96.8664 27.2909 95.3755 27.8861 93.4232 27.8861C92.0744 27.8861 90.8498 27.597 89.7494 27.0188C88.6668 26.4406 87.8149 25.6158 87.1937 24.5444C86.5725 23.473 86.2619 22.2316 86.2619 20.8201C86.2619 19.4086 86.5725 18.1671 87.1937 17.0958C87.8149 16.0244 88.6668 15.1996 89.7494 14.6214Q90.0032 14.488 90.2658 14.3752L90.2659 14.3751Q91.7111 13.7541 93.4232 13.7541C95.2513 13.7541 96.68 14.3068 97.7094 15.4121L97.7094 13.9581L101.862 13.9581ZM120.243 27.6821L120.243 13.9581L116.09 13.9581L116.09 15.4121C115.061 14.3068 113.632 13.7541 111.804 13.7541Q110.092 13.7541 108.646 14.3751Q108.384 14.488 108.13 14.6214C107.047 15.1996 106.196 16.0244 105.574 17.0958C104.953 18.1671 104.643 19.4086 104.643 20.8201C104.643 22.2316 104.953 23.473 105.574 24.5444C106.196 25.6158 107.047 26.4406 108.13 27.0188C109.23 27.597 110.455 27.8861 111.804 27.8861C113.756 27.8861 115.247 27.2909 116.276 26.1005L116.276 27.6821L120.243 27.6821ZM94.142 24.621C95.1892 24.621 96.0588 24.2808 96.751 23.6006C97.4432 22.9033 97.7893 21.9765 97.7893 20.8201C97.7893 19.6637 97.4432 18.7453 96.751 18.0651C96.0588 17.3679 95.1892 17.0192 94.142 17.0192C93.0772 17.0192 92.1986 17.3679 91.5065 18.0651C90.8143 18.7453 90.4682 19.6637 90.4682 20.8201C90.4682 21.9765 90.8143 22.9033 91.5065 23.6006Q91.8598 23.9478 92.2779 24.1769L92.2779 24.1769Q93.0883 24.621 94.142 24.621ZM115.132 23.6006C114.439 24.2808 113.57 24.621 112.523 24.621C111.458 24.621 110.579 24.2808 109.887 23.6006C109.195 22.9033 108.849 21.9765 108.849 20.8201C108.849 19.6637 109.195 18.7453 109.887 18.0651C110.579 17.3679 111.458 17.0192 112.523 17.0192C113.57 17.0192 114.439 17.3679 115.132 18.0651Q115.36 18.2894 115.538 18.5483Q116.17 19.4668 116.17 20.8201C116.17 21.9765 115.824 22.9033 115.132 23.6006Z" fill="rgb(25,202,228)" fill-rule="evenodd" />
    </symbol>
</svg>