<svg viewBox="0 0 160.5 56.6484" xmlns="http://www.w3.org/2000/svg" xmlns:xlink="http://www.w3.org/1999/xlink" width="129" height="26" fill="none" customFrame="#000000">
	<rect id="1" width="160.500000" height="56.647060" x="0.000000" y="0.000000" fill="rgb(255,255,255)" fill-opacity="0" />
	<g id="g126">
		<g id="g132">
			<path id="path134" d="M11.5107 35.8765C13.9506 35.8765 14.7172 34.1253 15.3605 32.3769C15.6306 31.6345 21.971 14.2603 22.1616 13.7388C22.2123 13.5933 22.178 13.3545 21.9545 13.2681C21.7296 13.183 18.4353 11.9012 18.2529 11.8326C18.0705 11.7626 17.8661 11.8641 17.8003 12.0467C17.7317 12.2264 16.3644 16.0142 16.2108 16.4369L6.81346 16.4369C6.66534 16.0142 5.28153 12.2182 5.21981 12.0467C5.15673 11.8724 4.96061 11.7543 4.76586 11.8326C4.57111 11.9094 1.2645 13.1912 1.067 13.2681C0.877741 13.3422 0.791338 13.5576 0.857169 13.7388C1.09032 14.3893 7.33462 31.4849 7.6528 32.3769C8.27271 34.0993 9.06542 35.8765 11.5107 35.8765ZM0.355211 4.7882C0.157719 4.7882 0 4.62351 0 4.42314L0 0.362305C0 0.16194 0.157719 0 0.355211 0L22.6567 0C22.8583 0 23.016 0.16194 23.016 0.362305L23.016 4.42314C23.016 4.62351 22.8583 4.7882 22.6567 4.7882L0.355211 4.7882ZM11.4888 30.2031L8.31248 20.6583L14.7172 20.6583L11.4888 30.2031ZM59.1515 14.5526C58.6838 14.3948 58.3752 14.3564 58.0077 14.3564C57.2479 14.3564 56.8269 14.6569 56.8269 15.4364C56.8269 16.2488 57.3617 16.5206 58.4123 16.5206C58.6687 16.5206 58.9211 16.4835 59.039 16.4424L59.039 15.8605C59.039 15.2333 59.0733 14.8216 59.1515 14.5526ZM61.8519 13.6221C61.291 14.4744 61.1443 14.9767 61.1443 16.0512L61.1443 18.2333C61.1443 19.408 61.0071 19.8321 60.6972 20.2603C60.2651 20.8669 59.5451 21.1304 58.2217 21.1304C57.2849 21.1304 56.3757 21.0288 55.4952 20.8037L55.8134 19.253C56.4086 19.3367 57.0326 19.408 57.4728 19.408C58.8786 19.408 59.039 19.2049 59.039 18.1496L59.039 17.7557C58.7264 17.8394 58.3752 17.8998 57.9679 17.8998C55.8517 17.8998 54.734 16.8637 54.734 15.1482C54.734 13.5398 55.9286 12.6628 57.3837 12.6628C57.9268 12.6628 58.4946 12.763 58.9444 12.9469C59.216 13.065 59.3339 13.1349 59.685 13.3628C59.8962 13.0553 60.32 12.7411 60.4928 12.6821L61.8519 13.6221ZM82.7847 14.5526C82.3143 14.3948 82.0112 14.3564 81.6409 14.3564C80.8783 14.3564 80.4518 14.6569 80.4518 15.4364C80.4518 16.2488 80.9935 16.5206 82.0468 16.5206C82.3033 16.5206 82.557 16.4835 82.6722 16.4424L82.6722 15.8605C82.6722 15.2333 82.7051 14.8216 82.7847 14.5526ZM85.4879 13.6221C84.9228 14.4744 84.7788 14.9767 84.7788 16.0512L84.7788 18.2333C84.7788 19.408 84.6389 19.8321 84.3262 20.2603C83.8997 20.8669 83.1783 21.1304 81.8507 21.1304C80.9154 21.1304 80.0006 21.0288 79.1201 20.8037L79.4342 19.253C80.0308 19.3367 80.6562 19.408 81.1087 19.408C82.5063 19.408 82.6722 19.2049 82.6722 18.1496L82.6722 17.7557C82.3595 17.8394 82.0112 17.8998 81.5956 17.8998C79.4767 17.8998 78.3548 16.8637 78.3548 15.1482C78.3548 13.5398 79.5521 12.6628 81.0141 12.6628C81.5641 12.6628 82.1264 12.763 82.5721 12.9469C82.8478 13.065 82.9616 13.1349 83.3127 13.3628C83.5266 13.0553 83.9504 12.7411 84.1246 12.6821L85.4879 13.6221ZM101.965 12.8454C101.965 12.8454 100.804 15.3198 100.521 15.8824C100.201 16.5165 99.9047 16.9542 99.2519 17.1121C99.6894 17.1958 100.038 17.4963 100.419 18.306C100.78 19.0951 100.887 19.2653 101.099 19.4533C101.308 19.64 101.593 19.5727 101.593 19.5727L101.7 21.0316C101.397 21.0727 101.061 21.0741 100.714 21.0549C100.138 21.0206 99.8403 20.8545 99.5564 20.5691C99.3342 20.3509 99.1834 20.0242 98.9968 19.6496C98.7993 19.2406 98.643 18.9112 98.4373 18.4954C98.2329 18.0686 98.1369 17.8765 97.587 17.8765L97.229 17.8765L97.229 24.339L95.1101 24.339L95.1101 12.8454L97.229 12.8454L97.229 16.15L97.5184 16.1555C98.126 16.1555 98.2329 16.0032 98.5538 15.3623C98.9296 14.5979 99.6497 12.8454 99.6497 12.8454L101.965 12.8454ZM42.2728 12.8454L44.7182 12.8454L41.0193 24.1468C40.6298 24.2772 40.1484 24.3582 39.6341 24.3582C39.0732 24.3582 38.873 24.2841 38.4341 24.1468L34.5199 12.8454L36.8665 12.8454C36.8665 12.8454 37.1833 13.8362 37.5563 15.0645L41.6104 15.0645C41.9725 13.8376 42.2728 12.8454 42.2728 12.8454ZM38.1516 16.9597C38.1516 16.9597 38.8291 19.2283 38.9347 19.581C39.2035 20.495 39.6122 21.9469 39.6122 21.9469C39.6122 21.9469 40.0579 20.4428 40.3048 19.5974C40.398 19.2612 41.0454 16.9597 41.0454 16.9597L38.1516 16.9597ZM65.4616 18.2525C64.7142 18.2525 64.1066 17.6418 64.1066 16.8939C64.1066 16.1404 64.7142 15.5338 65.4616 15.5338C66.2105 15.5338 66.8153 16.1404 66.8153 16.8939C66.8153 17.6418 66.2105 18.2525 65.4616 18.2525ZM47.6216 24.339L45.4972 24.339L45.4972 12.8467L47.6216 12.8467L47.6216 24.339ZM89.8286 19.3037C91.0025 19.279 91.1479 19.0361 91.1479 18.0508L91.1479 12.8454L93.2531 12.8454L93.2531 18.2333C93.2531 19.408 93.116 19.8321 92.8033 20.2603C92.3713 20.8669 91.5223 21.1304 90.0864 21.1304C88.6656 21.1304 87.7604 20.9794 86.596 20.6322L86.596 12.8454L88.7232 12.8454L88.7232 19.2049C89.2813 19.2859 89.3801 19.3037 89.8286 19.3037ZM52.8757 24.5434C51.5481 24.5434 50.8253 24.28 50.4002 23.6747C50.0875 23.2452 49.949 22.8115 49.949 21.634L49.949 20.6322L48.8943 20.6322L48.8943 18.914L49.949 18.914L49.949 12.8454L52.0555 12.8454L52.05 18.914L54.1498 18.914L54.1498 20.6322L52.05 20.6322L52.0555 21.5531C52.0555 22.607 52.216 22.8115 53.6231 22.8115C53.7754 22.8115 53.9468 22.8033 54.1292 22.7896L54.4611 24.4405C53.9413 24.5091 53.4092 24.5434 52.8757 24.5434ZM69.7777 24.4364C70.5004 24.4789 72.116 24.5393 73.1295 24.5393C73.3147 24.5393 73.5067 24.538 73.6987 24.5283C75.6914 24.5283 76.8339 23.0764 76.8339 21.3719C76.8339 20.2122 76.3031 19.4423 75.0592 18.984C76.5226 18.6601 77.2892 17.5169 77.2892 16.1185C77.2892 15.0919 76.9998 14.2768 76.4691 13.7209C75.7806 13.043 74.7383 12.6628 73.3503 12.6628C72.116 12.6628 70.5663 12.7013 69.7777 12.7479L69.7777 24.4364ZM73.1295 22.5535C72.7784 22.5535 72.3437 22.5466 71.913 22.5316L71.913 19.7717L73.1309 19.7717C73.6137 19.7717 74.0018 19.9062 74.2665 20.1656C74.5188 20.4099 74.6505 20.7557 74.6505 21.166C74.6505 22.0485 74.1732 22.548 73.2859 22.5535L73.1295 22.5535ZM73.1734 14.6445C74.2802 14.6445 75.0496 15.2333 75.0578 16.419C75.0469 16.8445 74.8836 17.237 74.5915 17.521C74.272 17.8422 73.8194 18.0096 73.2886 18.0096L71.913 18.0096L71.913 14.6569C72.3012 14.6487 72.7291 14.6473 73.1734 14.6445Z" fill="rgb(0,44,62)" fill-rule="nonzero" transform="matrix(1,0,0,-1,29,46.2227)" />
		</g>
	</g>
</svg>
