<svg viewBox="0 0 160.5 56.6484" xmlns="http://www.w3.org/2000/svg" xmlns:xlink="http://www.w3.org/1999/xlink" width="82" height="40" fill="none" customFrame="#000000">
	<rect id="1" width="160.500000" height="56.647060" x="0.000000" y="0.000000" fill="rgb(255,255,255)" fill-opacity="0" />
	<g id="layer1">
		<g id="g2058">
			<path id="path26" d="M64.7305 34.4219L69.8835 34.4219L69.8835 36.1322L67.4321 36.1322L67.4321 48.1495L64.7305 48.1495L64.7305 34.4219Z" fill="rgb(0,44,62)" fill-rule="nonzero" />
			<path id="path28" d="M72.9391 42.996L73.4022 36.1322L73.5572 36.1322L74.0203 42.996L72.9391 42.996ZM69.9473 48.1495L72.5924 48.1495L72.8428 44.5038L74.1166 44.5038L74.3681 48.1495L77.0121 48.1495L75.6032 34.4219L71.3563 34.4219L69.9473 48.1495Z" fill="rgb(0,44,62)" fill-rule="nonzero" />
			<path id="path30" d="M80.8815 43.3449L80.8815 45.9329C80.8815 46.2817 81.1473 46.3829 81.3024 46.3829C81.5572 46.3829 81.7344 46.1692 81.7344 45.9329L81.7344 42.7372C81.7344 42.3097 81.6569 41.8371 80.6489 41.8371L79.5522 41.8371L79.5522 40.3293L80.6932 40.3293C81.4575 40.3293 81.7344 40.1492 81.7344 39.3053L81.7344 36.5823C81.7344 36.346 81.5572 36.1322 81.3024 36.1322C81.1473 36.1322 80.8815 36.2222 80.8815 36.5823L80.8815 38.8215L78.1787 38.8215L78.1787 36.8749C78.1787 35.9184 78.2895 34.4219 80.1836 34.4219L82.4212 34.4219C84.3153 34.4219 84.4372 35.9184 84.4372 36.8749L84.4372 39.069C84.4372 40.5656 83.407 40.9706 82.5984 40.9369L82.5984 41.0719C84.415 41.0269 84.4372 42.4447 84.4372 42.9285L84.4372 45.6966C84.4372 46.6643 84.3153 48.1495 82.4212 48.1495L80.1836 48.1495C78.2895 48.1495 78.1787 46.6643 78.1787 45.6966L78.1787 43.3449L80.8815 43.3449Z" fill="rgb(0,44,62)" fill-rule="nonzero" />
			<path id="path32" d="M86.209 34.4219L92.4675 34.4219L92.4675 48.1495L89.7647 48.1495L89.7647 36.1322L88.9118 36.1322L88.9118 48.1495L86.209 48.1495L86.209 34.4219Z" fill="rgb(0,44,62)" fill-rule="nonzero" />
			<path id="path34" d="M96.943 41.9721L96.943 36.1322L97.2975 36.1322C97.5855 36.1322 97.7959 36.3798 97.7959 36.8186L97.7959 41.2857C97.7959 41.7245 97.5855 41.9721 97.2975 41.9721L96.943 41.9721ZM94.2402 48.1495L96.943 48.1495L96.943 43.4799L98.4938 43.4799C100.377 43.4799 100.499 41.9946 100.499 41.0269L100.499 36.8749C100.499 35.9184 100.377 34.4219 98.4938 34.4219L94.2402 34.4219L94.2402 48.1495Z" fill="rgb(0,44,62)" fill-rule="nonzero" />
			<path id="path36" d="M105.826 45.9329C105.826 46.1692 105.649 46.3829 105.394 46.3829C105.239 46.3829 104.973 46.2817 104.973 45.9329L104.973 36.5823C104.973 36.2222 105.239 36.1322 105.394 36.1322C105.649 36.1322 105.826 36.346 105.826 36.5823L105.826 45.9329ZM102.271 45.6966C102.271 46.6643 102.392 48.1495 104.275 48.1495L106.524 48.1495C108.407 48.1495 108.529 46.6643 108.529 45.6966L108.529 36.8749C108.529 35.9184 108.407 34.4219 106.524 34.4219L104.275 34.4219C102.392 34.4219 102.271 35.9184 102.271 36.8749L102.271 45.6966Z" fill="rgb(0,44,62)" fill-rule="nonzero" />
			<path id="path38" d="M117.325 34.4219L120.847 34.4219L120.847 48.1495L118.144 48.1495L118.144 39.5416L118.045 39.5416L116.649 48.1495L114.489 48.1495L113.104 39.5416L113.005 39.5416L113.005 48.1495L110.302 48.1495L110.302 34.4219L113.813 34.4219L115.574 44.0763L117.325 34.4219Z" fill="rgb(0,44,62)" fill-rule="nonzero" />
			<path id="path40" d="M61.2276 15.6525C60.4001 11.973 58.3265 8.97994 58.0407 8.49609C57.5888 9.18248 55.935 11.8267 55.0942 14.7523C54.176 18.0267 54.0408 20.9298 54.3576 23.7766C54.6722 26.6346 55.8608 29.5714 55.8608 29.5714C56.4922 31.1017 57.4381 32.7558 58.054 33.566C58.9568 32.3732 61.0315 28.8175 61.6784 24.1816C62.0384 21.5936 62.0539 19.3319 61.2276 15.6525ZM58.0407 32.6433C57.6342 31.8669 57.0028 30.3928 56.943 28.0974C56.9275 25.892 57.7992 23.9903 58.054 23.5965C58.2811 23.9903 59.0321 25.6444 59.1218 27.9061C59.1827 30.1115 58.4605 31.8556 58.0407 32.6433ZM60.9872 21.8974C60.9562 23.304 60.7911 24.7892 60.5807 25.6782C60.656 24.1479 60.4754 21.9987 60.1298 20.3109C59.7842 18.6343 58.8061 15.8213 58.0252 14.5273C57.3041 15.765 56.4157 18.1955 55.9505 20.2996C55.483 22.4038 55.4697 24.958 55.4697 25.7232C55.3457 25.0818 55.0355 22.7751 55.123 20.4684C55.1961 18.5668 55.6348 16.5977 55.8752 15.6975C56.7923 12.6932 57.8302 10.769 58.0252 10.4652C58.2202 10.769 59.5272 13.1432 60.2052 15.63C60.8797 18.1167 61.016 20.5022 60.9872 21.8974Z" fill="rgb(0,44,62)" fill-rule="nonzero" />
			<path id="path42" d="M59.4456 34.4239L53.155 34.4239L53.155 38.711C53.1606 38.711 53.165 38.6997 53.1705 38.6997C54.6526 37.1919 57.0563 37.1919 58.5395 38.6997C60.0216 40.1963 60.0216 42.638 58.5395 44.1458C58.5329 44.157 58.5263 44.157 58.5196 44.1683C58.5118 44.1683 58.5041 44.1795 58.4974 44.1908C57.0187 45.6761 55.0869 46.4187 53.155 46.4187C51.2143 46.4187 49.2737 45.6761 47.7938 44.1683C45.184 41.524 44.875 37.417 46.8644 34.4239C47.1325 34.0188 47.4415 33.6363 47.7938 33.2762C49.2737 31.7684 51.2143 31.0257 53.155 31.0257L53.155 20.7188C45.698 20.7188 39.6533 26.8512 39.6533 34.4239C39.6533 41.9966 45.698 48.1403 53.155 48.1403C57.043 48.1403 60.5456 46.4637 63.0091 43.797L63.0091 34.4239L59.4456 34.4239Z" fill="rgb(0,44,62)" fill-rule="nonzero" />
		</g>
	</g>
</svg>
