<svg viewBox="0 0 210 37" xmlns="http://www.w3.org/2000/svg" xmlns:xlink="http://www.w3.org/1999/xlink" width="210.000000" height="37.000000" fill="none">
	<path id="Форма 22" d="M202.961 27.8834C201.351 27.8834 200.095 27.4588 199.192 26.6096C198.29 25.7426 197.839 24.5218 197.839 22.9471L197.839 7.97852L201.979 7.97852L201.979 22.7082C201.979 23.3098 202.129 23.7787 202.43 24.1148C202.749 24.4333 203.191 24.5924 203.757 24.5924C203.97 24.5924 204.182 24.566 204.394 24.513C204.624 24.4599 204.801 24.3979 204.925 24.3272L205.111 27.5385C204.421 27.7685 203.704 27.8834 202.961 27.8834Z" fill="rgb(25,202,228)" fill-rule="nonzero" />
	<path id="Форма 23" d="M187.243 27.8828C185.739 27.8828 184.385 27.5733 183.182 26.9539C181.996 26.3171 181.068 25.4412 180.395 24.3265C179.723 23.2119 179.387 21.9468 179.387 20.5312C179.387 19.1158 179.723 17.8507 180.395 16.736C181.068 15.6214 181.996 14.7544 183.182 14.1351C184.385 13.4982 185.739 13.1797 187.243 13.1797C188.747 13.1797 190.091 13.4982 191.277 14.1351C192.462 14.7544 193.391 15.6214 194.063 16.736C194.736 17.8507 195.072 19.1158 195.072 20.5312C195.072 21.9468 194.736 23.2119 194.063 24.3265C193.391 25.4412 192.462 26.3171 191.277 26.9539C190.091 27.5733 188.747 27.8828 187.243 27.8828ZM187.243 24.4857C188.304 24.4857 189.171 24.132 189.843 23.424C190.534 22.6988 190.878 21.7344 190.878 20.5312C190.878 19.3281 190.534 18.3727 189.843 17.6649C189.171 16.9395 188.304 16.5768 187.243 16.5768C186.181 16.5768 185.305 16.9395 184.615 17.6649C183.925 18.3727 183.58 19.3281 183.58 20.5312C183.58 21.7344 183.925 22.6988 184.615 23.424C185.305 24.132 186.181 24.4857 187.243 24.4857Z" fill="rgb(25,202,228)" fill-rule="nonzero" />
	<path id="Форма 24" d="M169.851 27.8828C168.347 27.8828 166.994 27.5733 165.79 26.9539C164.605 26.3171 163.676 25.4412 163.004 24.3265C162.331 23.2119 161.995 21.9468 161.995 20.5312C161.995 19.1158 162.331 17.8507 163.004 16.736C163.676 15.6214 164.605 14.7544 165.79 14.1351C166.994 13.4982 168.347 13.1797 169.851 13.1797C171.355 13.1797 172.699 13.4982 173.885 14.1351C175.07 14.7544 175.999 15.6214 176.672 16.736C177.344 17.8507 177.68 19.1158 177.68 20.5312C177.68 21.9468 177.344 23.2119 176.672 24.3265C175.999 25.4412 175.07 26.3171 173.885 26.9539C172.699 27.5733 171.355 27.8828 169.851 27.8828ZM169.851 24.4857C170.913 24.4857 171.78 24.132 172.452 23.424C173.142 22.6988 173.487 21.7344 173.487 20.5312C173.487 19.3281 173.142 18.3727 172.452 17.6649C171.78 16.9395 170.913 16.5768 169.851 16.5768C168.789 16.5768 167.913 16.9395 167.224 17.6649C166.534 18.3727 166.188 19.3281 166.188 20.5312C166.188 21.7344 166.534 22.6988 167.224 23.424C167.913 24.132 168.789 24.4857 169.851 24.4857Z" fill="rgb(25,202,228)" fill-rule="nonzero" />
	<path id="Форма 25" d="M153.23 13.1804C155 13.1804 156.424 13.7112 157.503 14.7727C158.6 15.8343 159.149 17.4091 159.149 19.4969L159.149 27.6713L155.008 27.6713L155.008 20.1338C155.008 19.0015 154.761 18.161 154.265 17.6125C153.77 17.0463 153.053 16.7632 152.116 16.7632C151.072 16.7632 150.24 17.0906 149.621 17.7452C149.002 18.3822 148.692 19.3376 148.692 20.6116L148.692 27.6713L144.552 27.6713L144.552 7.97852L148.692 7.97852L148.692 14.8789C149.24 14.3304 149.904 13.9146 150.682 13.6315C151.461 13.3307 152.31 13.1804 153.23 13.1804Z" fill="rgb(25,202,228)" fill-rule="nonzero" />
	<path id="Форма 26" d="M135.875 27.8828C134.353 27.8828 132.982 27.5733 131.761 26.9539C130.558 26.3171 129.612 25.4412 128.922 24.3265C128.249 23.2119 127.913 21.9468 127.913 20.5312C127.913 19.1158 128.249 17.8507 128.922 16.736C129.612 15.6214 130.558 14.7544 131.761 14.1351C132.982 13.4982 134.353 13.1797 135.875 13.1797C137.379 13.1797 138.688 13.4982 139.803 14.1351C140.935 14.7544 141.758 15.6479 142.271 16.8156L139.06 18.5408C138.317 17.2315 137.246 16.5768 135.849 16.5768C134.769 16.5768 133.876 16.9307 133.168 17.6384C132.46 18.3461 132.106 19.3104 132.106 20.5312C132.106 21.752 132.46 22.7164 133.168 23.424C133.876 24.132 134.769 24.4857 135.849 24.4857C137.264 24.4857 138.334 23.831 139.06 22.5218L142.271 24.2735C141.758 25.4058 140.935 26.2904 139.803 26.9275C138.688 27.5642 137.379 27.8828 135.875 27.8828Z" fill="rgb(25,202,228)" fill-rule="nonzero" />
	<path id="Форма 27" d="M118.447 27.9885C116.978 27.9885 115.554 27.7937 114.174 27.4045C112.812 26.9975 111.714 26.4756 110.883 25.8386L112.342 22.6009C113.139 23.1846 114.085 23.6535 115.182 24.0074C116.279 24.3614 117.376 24.5381 118.473 24.5381C119.694 24.5381 120.596 24.3614 121.18 24.0074C121.764 23.6359 122.056 23.1492 122.056 22.5476C122.056 22.1054 121.879 21.7426 121.525 21.4596C121.189 21.1589 120.747 20.9198 120.198 20.7431C119.668 20.5661 118.942 20.3714 118.022 20.1591C116.607 19.8229 115.448 19.4868 114.545 19.1506C113.643 18.8144 112.865 18.2748 112.21 17.5317C111.573 16.7885 111.254 15.7977 111.254 14.5592C111.254 13.4799 111.546 12.5067 112.13 11.6398C112.714 10.7551 113.59 10.0562 114.758 9.5431C115.943 9.02999 117.385 8.77344 119.084 8.77344C120.269 8.77344 121.428 8.91497 122.56 9.19807C123.693 9.48116 124.684 9.88812 125.533 10.4189L124.206 13.6833C122.49 12.7102 120.773 12.2236 119.057 12.2236C117.854 12.2236 116.961 12.4183 116.377 12.8075C115.81 13.1968 115.527 13.7099 115.527 14.3468C115.527 14.9838 115.855 15.4615 116.509 15.78C117.182 16.0808 118.199 16.3816 119.561 16.6824C120.977 17.0185 122.136 17.3547 123.038 17.6909C123.94 18.027 124.71 18.5579 125.347 19.2833C126.002 20.0087 126.329 20.9907 126.329 22.2293C126.329 23.2907 126.028 24.2639 125.427 25.1485C124.843 26.0156 123.958 26.7056 122.773 27.2187C121.587 27.7318 120.145 27.9885 118.447 27.9885Z" fill="rgb(25,202,228)" fill-rule="nonzero" />
	<path id="Форма 28" d="M108.424 13.392L108.424 27.6706L104.47 27.6706L104.47 26.025C103.444 27.2636 101.957 27.8828 100.011 27.8828C98.6665 27.8828 97.4457 27.5821 96.3486 26.9805C95.2694 26.3789 94.4202 25.5207 93.801 24.406C93.1815 23.2913 92.8721 21.9999 92.8721 20.5312C92.8721 19.0627 93.1815 17.7711 93.801 16.6564C94.4202 15.5417 95.2694 14.6836 96.3486 14.082C97.4457 13.4805 98.6665 13.1797 100.011 13.1797C101.834 13.1797 103.258 13.7547 104.284 14.9048L104.284 13.392L108.424 13.392ZM100.728 24.4857C101.772 24.4857 102.639 24.132 103.329 23.424C104.019 22.6988 104.364 21.7344 104.364 20.5312C104.364 19.3281 104.019 18.3727 103.329 17.6649C102.639 16.9395 101.772 16.5768 100.728 16.5768C99.6662 16.5768 98.7904 16.9395 98.1003 17.6649C97.4102 18.3727 97.0653 19.3281 97.0653 20.5312C97.0653 21.7344 97.4102 22.6988 98.1003 23.424C98.7904 24.132 99.6662 24.4857 100.728 24.4857Z" fill="rgb(25,202,228)" fill-rule="nonzero" />
	<path id="Форма 29" d="M90.1001 13.392L90.1001 27.6706L86.1457 27.6706L86.1457 26.025C85.1195 27.2636 83.6332 27.8828 81.6869 27.8828C80.3422 27.8828 79.1215 27.5821 78.0244 26.9805C76.9452 26.3789 76.0959 25.5207 75.4767 24.406C74.8573 23.2913 74.5479 21.9999 74.5479 20.5312C74.5479 19.0627 74.8573 17.7711 75.4767 16.6564C76.0959 15.5417 76.9452 14.6836 78.0244 14.082C79.1215 13.4805 80.3422 13.1797 81.6869 13.1797C83.5095 13.1797 84.9337 13.7547 85.9599 14.9048L85.9599 13.392L90.1001 13.392ZM82.4037 24.4857C83.4474 24.4857 84.3145 24.132 85.0046 23.424C85.6947 22.6988 86.0396 21.7344 86.0396 20.5312C86.0396 19.3281 85.6947 18.3727 85.0046 17.6649C84.3145 16.9395 83.4474 16.5768 82.4037 16.5768C81.342 16.5768 80.4662 16.9395 79.7761 17.6649C79.086 18.3727 78.7411 19.3281 78.7411 20.5312C78.7411 21.7344 79.086 22.6988 79.7761 23.424C80.4662 24.132 81.342 24.4857 82.4037 24.4857Z" fill="rgb(25,202,228)" fill-rule="nonzero" />
	<path id="Форма 30" d="M65.0815 27.9885C63.6129 27.9885 62.1885 27.7937 60.8086 27.4045C59.446 26.9975 58.3492 26.4756 57.5176 25.8386L58.9772 22.6009C59.7733 23.1846 60.7201 23.6535 61.8169 24.0074C62.914 24.3614 64.0111 24.5381 65.1079 24.5381C66.3289 24.5381 67.2312 24.3614 67.8152 24.0074C68.3989 23.6359 68.6908 23.1492 68.6908 22.5476C68.6908 22.1054 68.5141 21.7426 68.1601 21.4596C67.824 21.1589 67.3815 20.9198 66.833 20.7431C66.3023 20.5661 65.5768 20.3714 64.6569 20.1591C63.2413 19.8229 62.0824 19.4868 61.1801 19.1506C60.2776 18.8144 59.4993 18.2748 58.8444 17.5317C58.2077 16.7885 57.8891 15.7977 57.8891 14.5592C57.8891 13.4799 58.181 12.5067 58.765 11.6398C59.3487 10.7551 60.2246 10.0562 61.3923 9.5431C62.5779 9.02999 64.0199 8.77344 65.7183 8.77344C66.9039 8.77344 68.0628 8.91497 69.1951 9.19807C70.3276 9.48116 71.3184 9.88812 72.1676 10.4189L70.8407 13.6833C69.1244 12.7102 67.4082 12.2236 65.6919 12.2236C64.4887 12.2236 63.5953 12.4183 63.0113 12.8075C62.4451 13.1968 62.1621 13.7099 62.1621 14.3468C62.1621 14.9838 62.4894 15.4615 63.144 15.78C63.8165 16.0808 64.8336 16.3816 66.1962 16.6824C67.6115 17.0185 68.7705 17.3547 69.673 17.6909C70.5752 18.027 71.345 18.5579 71.9818 19.2833C72.6364 20.0087 72.9637 20.9907 72.9637 22.2293C72.9637 23.2907 72.6631 24.2639 72.0615 25.1485C71.4775 26.0156 70.5928 26.7056 69.4075 27.2187C68.2219 27.7318 66.7799 27.9885 65.0815 27.9885Z" fill="rgb(25,202,228)" fill-rule="nonzero" />
	<path id="Форма 31" d="M22.811 11.3493C23.306 10.3894 24.4855 10.0125 25.4455 10.5075L38.7412 17.364C39.3917 17.6995 39.8002 18.3702 39.8004 19.1021L39.8004 27.4214C39.8004 28.1264 39.421 28.7766 38.8075 29.1238L28.7406 34.8162C28.1676 35.1403 27.4697 35.1543 26.8843 34.8531L12.0383 27.2217C11.0778 26.7279 10.6992 25.549 11.193 24.5883C11.6868 23.6278 12.8658 23.2494 13.8263 23.7432L27.7337 30.8923L35.8892 26.2808L35.8892 20.2938L23.6529 13.9837C22.693 13.4887 22.3159 12.3092 22.811 11.3493ZM24.8138 1.06218C25.3526 0.818541 25.9757 0.831326 26.5066 1.10156L46.1817 11.1179C47.1441 11.608 47.5271 12.7854 47.0373 13.7479C46.5474 14.7103 45.3697 15.0933 44.4073 14.6035L25.6349 5.04638L11.0875 12.7173L28.8347 21.7918C29.7964 22.2834 30.1772 23.4619 29.6857 24.4233C29.1938 25.3849 28.0158 25.7658 27.0542 25.2742L5.95411 14.4855C5.30425 14.1533 4.89338 13.4866 4.88871 12.7567C4.88412 12.0268 5.28648 11.3551 5.93213 11.0146L24.707 1.11445L24.8138 1.06218Z" fill="rgb(25,202,228)" fill-rule="nonzero" />
</svg>
