<svg viewBox="0 0 97.2441 31.1562" xmlns="http://www.w3.org/2000/svg" xmlns:xlink="http://www.w3.org/1999/xlink" width="97.244141" height="31.156250" fill="none">
	<rect id="Mail" width="97.244118" height="31.155884" x="0.000000" y="0.000000" />
	<path id="path" d="M96.392 2.05859L96.392 22.9954L93.3506 22.9954L93.3506 2.05859L96.392 2.05859Z" fill="rgb(44,45,46)" fill-rule="nonzero" />
	<path id="path" d="M89.2927 8.16383L89.2927 22.9941L86.2512 22.9941L86.2512 8.16383L89.2927 8.16383ZM89.872 3.71477C89.872 4.81976 88.974 5.83752 87.7864 5.83752C86.6567 5.83752 85.6719 4.907 85.6719 3.71477C85.6719 2.55162 86.6567 1.62109 87.7864 1.62109C88.974 1.62109 89.872 2.63885 89.872 3.71477Z" fill="rgb(44,45,46)" fill-rule="nonzero" />
	<path id="path" d="M74.243 7.78516C69.9481 7.78516 66.4912 11.3231 66.4912 15.6565C66.4912 19.9899 69.9481 23.5278 74.243 23.5278C76.2164 23.5278 78.013 22.7809 79.3785 21.5531L80.0462 22.9911L82.351 22.9911L82.351 8.14291L80.0462 8.14291L79.3341 9.72031C77.9742 8.51605 76.1951 7.78516 74.243 7.78516ZM74.4213 10.7361C71.7718 10.7361 69.5991 12.9252 69.5991 15.6565C69.5991 18.3879 71.7718 20.577 74.4213 20.577C77.0708 20.577 79.2434 18.3879 79.2434 15.6565C79.2434 12.9252 77.0708 10.7361 74.4213 10.7361Z" fill="rgb(44,45,46)" fill-rule="evenodd" />
	<path id="path" d="M47.4813 10.8385C45.4247 10.8385 43.8315 12.4087 43.8315 14.5024L43.8315 22.9934L40.79 22.9934L40.79 8.16318L43.1215 8.16318L43.8315 9.52989C44.8743 8.39581 46.3805 7.78516 48.0027 7.78516C49.9144 7.78516 51.5076 8.62844 52.5793 10.0824C53.7959 8.65752 55.6208 7.78516 57.7064 7.78516C61.443 7.78516 63.9341 10.5477 63.9341 14.5024L63.9341 22.9934L60.8927 22.9934L60.8927 14.6187C60.8927 12.3506 59.5602 10.8385 57.5326 10.8385C55.476 10.8385 53.8828 12.4087 53.8828 14.5024L53.8828 22.9934L50.8414 22.9934L50.8414 14.6187C50.8414 12.3506 49.5089 10.8385 47.4813 10.8385Z" fill="rgb(44,45,46)" fill-rule="nonzero" />
	<path id="path" d="M21.1475 15.5779C21.1475 18.1619 19.0536 20.264 16.4796 20.264C13.9056 20.264 11.8117 18.1619 11.8117 15.5779C11.8117 12.994 13.9056 10.8919 16.4796 10.8919C19.0536 10.8919 21.1475 12.994 21.1475 15.5779ZM16.4796 0C7.92354 0 0.961914 6.98866 0.961914 15.5779C0.961914 24.1672 7.92354 31.1559 16.4796 31.1559C19.6142 31.1559 22.6372 30.2192 25.2209 28.4463L23.1746 25.9753C21.1854 27.2594 18.847 27.9624 16.4796 27.9624C9.67704 27.9624 4.14304 22.4069 4.14304 15.5779C4.14304 8.74897 9.67704 3.19348 16.4796 3.19348C23.2821 3.19348 28.8162 8.74897 28.8162 15.5779C28.8162 16.463 28.7182 17.3587 28.5252 18.2398C28.1353 19.8472 27.0141 20.3399 26.1724 20.2747C25.3256 20.2055 24.3354 19.6 24.3287 18.1181L24.3287 16.9887L24.3287 15.5779C24.3287 11.2326 20.8081 7.69842 16.4796 7.69842C12.1511 7.69842 8.63056 11.2326 8.63056 15.5779C8.63056 19.9233 12.1511 23.4575 16.4796 23.4575C18.5823 23.4575 20.5539 22.6318 22.0407 21.1315C22.9049 22.4819 24.3141 23.3289 25.9172 23.4575C26.0549 23.4691 26.1956 23.475 26.3353 23.475C27.4632 23.475 28.5825 23.0963 29.4844 22.4079C30.4145 21.6991 31.1088 20.6739 31.493 19.4422C31.5541 19.2436 31.6666 18.7879 31.6675 18.785C31.8934 17.7968 31.9973 16.795 31.9973 15.5779C31.9973 6.98866 25.0356 0 16.4796 0Z" fill="rgb(0,44,62)" fill-rule="nonzero" />
</svg>
