<svg viewBox="0 0 208.762 37" xmlns="http://www.w3.org/2000/svg" xmlns:xlink="http://www.w3.org/1999/xlink" width="208.761719" height="37.000000" fill="none">
	<g id="Сочетание 222">
		<g id="Clip path group">
			<g id="Group">
				<path id="path" d="M44.2819 10.3045C39.7928 10.3045 36.2773 14.0069 36.2773 18.499C36.2773 14.1373 34.7697 10.1282 32.2451 6.96588C34.2419 5.77396 36.5765 5.08984 39.0701 5.08984C45.3027 5.08984 50.5381 9.36586 52.0022 15.1467C51.7899 14.8363 49.649 10.3045 44.2819 10.3045Z" fill="rgb(0,93,131)" fill-rule="nonzero" />
				<path id="path" d="M45.5228 26.6315C51.9752 26.6315 57.7459 21.8514 57.7459 13.3465C57.7459 9.31137 56.0086 4.46919 50.0517 0.857422C57.5348 3.22637 62.959 10.2289 62.959 18.4991C62.959 25.8704 56.9859 32.529 49.6171 32.529C44.2425 32.529 39.6106 29.3481 37.4971 24.7666C36.7135 23.0669 36.2764 20.4931 36.2764 18.4991C36.2764 22.9552 39.9993 26.6315 45.5228 26.6315Z" fill="rgb(0,93,131)" fill-rule="nonzero" />
				<path id="path" d="M36.401 18.4996C36.401 8.28137 27.9989 0 17.7863 0C9.00307 0 1.83414 6.12598 0 14.3403C1.46657 10.6776 5.46021 5.27674 12.7608 5.27674C20.0588 5.27674 25.9773 11.1966 25.9773 18.4996C25.9773 22.4416 27.2091 26.0969 29.3103 29.0978C29.8592 29.8812 30.4664 30.6212 31.127 31.3091C34.4923 34.8153 39.2248 36.9992 44.4677 36.9992C54.6803 36.9992 62.9594 28.7166 62.9594 18.4996C62.9594 25.8709 56.9863 32.5295 49.6175 32.5295C44.243 32.5295 39.7352 29.3486 37.6217 24.7671C36.8381 23.0674 36.401 20.4936 36.401 18.4996Z" fill="rgb(25,202,228)" fill-rule="nonzero" />
				<path id="path" d="M4.38379 23.6531C4.38379 31.0244 10.419 37.0001 17.7866 37.0001C23.0295 37.0001 27.762 34.8162 31.1273 31.31C30.4666 30.6221 29.8594 29.8821 29.3105 29.0987C27.2615 30.8506 24.6028 31.9096 21.6958 31.9096C15.2185 31.9096 9.96818 26.6565 9.96818 20.1767C9.96818 16.2235 11.9215 12.7284 14.9143 10.6016C8.8965 11.8928 4.38379 17.2453 4.38379 23.6531Z" fill="rgb(25,202,228)" fill-rule="nonzero" />
				<path id="path" d="M9.96777 20.1761C9.96777 24.5304 13.4684 28.0602 17.7862 28.0602C23.3085 28.0602 25.9771 23.2801 25.9771 18.5C25.9771 22.442 27.209 26.0973 29.3101 29.0982C27.2611 30.85 24.6024 31.9091 21.6954 31.9091C15.2181 31.9091 9.96777 26.656 9.96777 20.1761Z" fill="rgb(0,93,131)" fill-rule="nonzero" />
			</g>
		</g>
		<path id="School" d="M163.081 13.8716Q164.968 13.8716 166.305 14.7297Q166.732 15.0039 167.102 15.3658Q167.168 15.4293 167.23 15.4956L167.232 15.4971Q168.633 16.9807 168.633 19.7876L168.633 27.453L164.752 27.453L164.752 20.389C164.752 19.328 164.519 18.5364 164.053 18.014C163.587 17.4917 162.915 17.2305 162.036 17.2305Q160.964 17.2305 160.208 17.7195Q159.932 17.898 159.698 18.1416C159.119 18.7449 158.829 19.6419 158.829 20.8324L158.829 27.453L154.948 27.453L154.948 8.99414L158.829 8.99414L158.829 15.4629C159.344 14.9487 159.965 14.5559 160.694 14.2846Q161.787 13.8716 163.081 13.8716ZM208.762 8.99414L204.88 8.99414L204.88 27.453L208.762 27.453L208.762 8.99414ZM127.107 27.3601L127.106 27.36Q126.786 27.2834 126.47 27.1918C125.186 26.8193 124.155 26.3334 123.378 25.7341L124.745 22.7031Q125.862 23.5231 127.405 24.0212Q128.948 24.5193 130.491 24.5193Q132.21 24.5193 133.03 24.0091C133.576 23.6689 133.849 23.2154 133.849 22.6485C133.849 22.2354 133.688 21.8933 133.364 21.622C133.04 21.3466 132.625 21.1259 132.118 20.9599Q131.365 20.7109 130.071 20.4132C128.743 20.0974 127.656 19.7816 126.81 19.4657C125.963 19.1499 125.237 18.6437 124.629 17.9472Q124.562 17.8702 124.501 17.7895L124.501 17.7895Q123.724 16.7745 123.724 15.1653Q123.724 14.2921 123.995 13.5134Q124.196 12.9378 124.544 12.4138Q125.364 11.1808 127.016 10.464Q128.674 9.74124 131.062 9.74124Q132.381 9.74124 133.651 9.99134L133.651 9.99136L133.651 9.99136L133.652 9.99148L133.652 9.9916L133.653 9.99168L133.653 9.99179Q133.99 10.0582 134.323 10.1421Q135.915 10.5369 137.111 11.284L135.866 14.3393Q133.474 12.9834 131.075 12.9727L131.075 12.9727Q131.056 12.9726 131.037 12.9726Q129.349 12.9726 128.535 13.5193C127.996 13.8837 127.727 14.3656 127.727 14.9649Q127.727 15.3004 127.859 15.5716Q128.078 16.0221 128.662 16.2951Q129.598 16.7324 131.511 17.1515C132.839 17.4674 133.926 17.7832 134.773 18.0991C135.619 18.4149 136.344 18.913 136.947 19.5933C137.555 20.2735 137.858 21.1927 137.858 22.3509C137.858 23.347 137.579 24.2561 137.02 25.0781C136.465 25.9001 135.631 26.552 134.518 27.0339Q132.853 27.7506 130.466 27.7506Q128.74 27.7506 127.107 27.3601ZM142.968 26.7727Q143.038 26.809 143.109 26.8438Q144.763 27.6535 146.813 27.6534Q148.927 27.6535 150.506 26.7606C151.559 26.1613 152.326 25.3312 152.808 24.2702L149.795 22.6242Q149.228 23.6473 148.362 24.1017L148.362 24.1017Q147.671 24.4646 146.789 24.4646Q145.827 24.4646 145.076 24.0679L145.075 24.0679Q144.64 23.8379 144.274 23.4745Q144.095 23.2959 143.949 23.0939L143.948 23.0931L143.948 23.0931Q143.278 22.1694 143.278 20.7595Q143.278 19.3632 143.94 18.4431L143.94 18.4431Q144.09 18.2345 144.274 18.0505Q144.646 17.6789 145.09 17.4459L145.09 17.4459Q145.837 17.0543 146.789 17.0543Q147.624 17.0543 148.292 17.3876L148.292 17.3877Q149.195 17.8376 149.795 18.8948L152.808 17.2791C152.326 16.1817 151.559 15.3394 150.506 14.7523Q148.927 13.8716 146.813 13.8716Q144.763 13.8716 143.11 14.6812L143.109 14.6812Q143.038 14.716 142.968 14.7523Q141.856 15.3262 141.061 16.1914L141.061 16.1918Q140.636 16.6543 140.302 17.2001Q140.089 17.5495 139.924 17.9201L139.924 17.9202Q139.348 19.2115 139.348 20.7595Q139.348 22.3075 139.924 23.5988Q140.089 23.9694 140.302 24.3188Q140.63 24.8544 141.045 25.3106L141.045 25.3106L141.045 25.3109L141.045 25.3111Q141.845 26.1892 142.968 26.7727ZM174.858 26.7727Q174.946 26.8186 175.035 26.8621Q176.651 27.6535 178.654 27.6534C180.068 27.6534 181.329 27.3599 182.438 26.7727C183.552 26.1815 184.423 25.3636 185.05 24.3188C185.682 23.2741 185.998 22.0876 185.998 20.7595C185.998 19.4313 185.682 18.2448 185.05 17.2001C184.423 16.1554 183.552 15.3394 182.438 14.7523C181.329 14.1651 180.068 13.8716 178.654 13.8716Q176.651 13.8716 175.035 14.6629L175.034 14.6631L175.029 14.6656Q174.943 14.7078 174.858 14.7523Q173.826 15.2948 173.069 16.0977Q172.598 16.5983 172.234 17.2001C171.607 18.2448 171.293 19.4313 171.293 20.7595C171.293 22.0876 171.607 23.2741 172.234 24.3188Q172.592 24.9106 173.054 25.4053L173.054 25.4054L173.054 25.4055Q173.815 26.2208 174.858 26.7727ZM194.95 27.6534C193.541 27.6534 192.276 27.3599 191.154 26.7727C190.036 26.1815 189.162 25.3636 188.53 24.3188C187.902 23.2741 187.588 22.0876 187.588 20.7595C187.588 19.4313 187.902 18.2448 188.53 17.2001C189.162 16.1554 190.036 15.3394 191.154 14.7523C192.276 14.1651 193.541 13.8716 194.95 13.8716C196.363 13.8716 197.625 14.1651 198.734 14.7523C199.848 15.3394 200.718 16.1554 201.346 17.2001C201.978 18.2448 202.294 19.4313 202.294 20.7595C202.294 22.0876 201.978 23.2741 201.346 24.3188C200.718 25.3636 199.848 26.1815 198.734 26.7727C197.625 27.3599 196.363 27.6534 194.95 27.6534ZM181.108 23.4624C180.468 24.1305 179.651 24.4646 178.654 24.4646C177.662 24.4646 176.842 24.1305 176.194 23.4624C175.547 22.7902 175.223 21.8892 175.223 20.7595C175.223 19.6338 175.547 18.7348 176.194 18.0626C176.842 17.3904 177.662 17.0543 178.654 17.0543C179.651 17.0543 180.468 17.3904 181.108 18.0626C181.748 18.7348 182.068 19.6338 182.068 20.7595C182.068 21.8892 181.748 22.7902 181.108 23.4624ZM194.95 24.4646C195.946 24.4646 196.764 24.1305 197.404 23.4624C198.044 22.7902 198.364 21.8892 198.364 20.7595C198.364 19.6338 198.044 18.7348 197.404 18.0626C196.764 17.3904 195.946 17.0543 194.95 17.0543C193.958 17.0543 193.138 17.3904 192.49 18.0626C191.842 18.7348 191.518 19.6338 191.518 20.7595C191.518 21.8892 191.842 22.7902 192.49 23.4624C193.138 24.1305 193.958 24.4646 194.95 24.4646Z" fill="rgb(25,202,228)" fill-rule="evenodd" />
		<path id="SaaSoft" d="M72.4798 27.427C73.8642 27.8011 75.2929 27.9882 76.766 27.9882C78.4698 27.9882 79.9163 27.7416 81.1054 27.2484C82.2945 26.7552 83.1819 26.092 83.7676 25.2587C84.371 24.4084 84.6727 23.473 84.6727 22.4527C84.6727 21.2623 84.3444 20.3184 83.6877 19.6212C83.0488 18.9239 82.2767 18.4137 81.3716 18.0906C80.4664 17.7675 79.3039 17.4444 77.8841 17.1213C76.5175 16.8322 75.497 16.5431 74.8226 16.254C74.1659 15.9478 73.8376 15.4887 73.8376 14.8765Q73.8376 14.5235 73.9634 14.2233L73.9634 14.2233Q74.165 13.7424 74.6895 13.3969Q75.568 12.8357 77.3783 12.8357L77.3783 12.8357Q79.9606 12.8357 82.543 14.2387L83.8741 11.1011Q82.5962 10.3358 80.8924 9.92768Q80.5918 9.85568 80.2888 9.79638L80.2884 9.7963Q78.8737 9.51953 77.4049 9.51953Q74.8492 9.51953 73.0655 10.2593Q71.3085 10.9991 70.4299 12.2745Q70.0349 12.8366 69.8175 13.4605Q69.5514 14.2242 69.5514 15.0805Q69.5514 16.6746 70.3152 17.6994L70.3153 17.6995L70.3153 17.6996Q70.4071 17.8227 70.5098 17.9376Q71.0429 18.5174 71.6851 18.9253L71.6851 18.9254L71.6852 18.9254Q72.2297 19.2713 72.8525 19.4936Q74.2103 19.9783 76.34 20.463C77.2629 20.667 77.9906 20.8541 78.523 21.0242C79.0732 21.1942 79.5169 21.4238 79.8541 21.7129C80.2091 21.985 80.3866 22.3336 80.3866 22.7588C80.3866 23.337 80.0937 23.8047 79.5081 24.1618C78.9224 24.5019 78.0172 24.672 76.7926 24.672C75.6922 24.672 74.5919 24.5019 73.4915 24.1618C72.3911 23.8217 71.4416 23.371 70.6429 22.8098L69.1787 25.9219C70.0129 26.5341 71.1132 27.0358 72.4798 27.427ZM101.862 13.9581L101.862 27.6821L97.8958 27.6821L97.8958 26.1005C96.8664 27.2909 95.3755 27.8861 93.4232 27.8861C92.0744 27.8861 90.8498 27.597 89.7494 27.0188C88.6668 26.4406 87.8149 25.6158 87.1937 24.5444C86.5725 23.473 86.2619 22.2316 86.2619 20.8201C86.2619 19.4086 86.5725 18.1671 87.1937 17.0958C87.8149 16.0244 88.6668 15.1996 89.7494 14.6214Q90.0032 14.488 90.2658 14.3752L90.2659 14.3751Q91.7111 13.7541 93.4232 13.7541C95.2513 13.7541 96.68 14.3068 97.7094 15.4121L97.7094 13.9581L101.862 13.9581ZM120.243 27.6821L120.243 13.9581L116.09 13.9581L116.09 15.4121C115.061 14.3068 113.632 13.7541 111.804 13.7541Q110.092 13.7541 108.646 14.3751Q108.384 14.488 108.13 14.6214C107.047 15.1996 106.196 16.0244 105.574 17.0958C104.953 18.1671 104.643 19.4086 104.643 20.8201C104.643 22.2316 104.953 23.473 105.574 24.5444C106.196 25.6158 107.047 26.4406 108.13 27.0188C109.23 27.597 110.455 27.8861 111.804 27.8861C113.756 27.8861 115.247 27.2909 116.276 26.1005L116.276 27.6821L120.243 27.6821ZM94.142 24.621C95.1892 24.621 96.0588 24.2808 96.751 23.6006C97.4432 22.9033 97.7893 21.9765 97.7893 20.8201C97.7893 19.6637 97.4432 18.7453 96.751 18.0651C96.0588 17.3679 95.1892 17.0192 94.142 17.0192C93.0772 17.0192 92.1986 17.3679 91.5065 18.0651C90.8143 18.7453 90.4682 19.6637 90.4682 20.8201C90.4682 21.9765 90.8143 22.9033 91.5065 23.6006Q91.8598 23.9478 92.2779 24.1769L92.2779 24.1769Q93.0883 24.621 94.142 24.621ZM115.132 23.6006C114.439 24.2808 113.57 24.621 112.523 24.621C111.458 24.621 110.579 24.2808 109.887 23.6006C109.195 22.9033 108.849 21.9765 108.849 20.8201C108.849 19.6637 109.195 18.7453 109.887 18.0651C110.579 17.3679 111.458 17.0192 112.523 17.0192C113.57 17.0192 114.439 17.3679 115.132 18.0651Q115.36 18.2894 115.538 18.5483Q116.17 19.4668 116.17 20.8201C116.17 21.9765 115.824 22.9033 115.132 23.6006Z" fill="rgb(25,202,228)" fill-rule="evenodd" />
	</g>
</svg>
