<svg viewBox="0 0 160.5 56.6484" xmlns="http://www.w3.org/2000/svg" xmlns:xlink="http://www.w3.org/1999/xlink" width="123" height="35" fill="none" customFrame="#000000">
	<rect id="1" width="160.500000" height="56.647060" x="0.000000" y="0.000000" fill="rgb(255,255,255)" fill-opacity="0" />
	<g id="Сочетание 357">
		<path id="path" d="M124.863 32.7779L125.899 32.9167C125.139 35.8317 120.44 34.7906 120.855 31.9451C121.27 29.0995 124.794 28.0585 125.899 30.6264L124.863 31.0428C124.727 30.6563 124.477 30.371 124.112 30.187C123.747 30.003 123.37 29.9716 122.98 30.0928C122.59 30.214 122.296 30.454 122.099 30.8128C121.902 31.1716 121.855 31.549 121.961 31.9451C121.684 33.6108 124.31 34.5824 124.863 32.7779ZM87.0646 40.6899C87.7556 40.6205 89.414 40.9675 89.3449 39.9265C89.2758 38.8854 87.7556 39.2324 87.0646 39.163L87.0646 40.6899ZM86.0281 41.5921L86.0281 36.3175L90.1742 36.3175L90.1742 37.2197L87.0646 37.2197L87.0646 38.2608L88.5848 38.2608C91.0725 38.0526 91.0034 41.8003 88.5848 41.5921L86.0281 41.5921ZM91.0725 41.5921L91.0725 36.3175L92.1781 36.3175L92.1781 40.6899L92.3163 40.6899L93.7674 36.3175L95.7713 36.3175L95.7713 41.5921L94.6657 41.5921L94.6657 37.2197L94.5275 37.2197L93.0764 41.5921L91.0725 41.5921ZM97.7753 39.0242C98.6045 39.0242 100.125 39.2324 100.056 38.122C99.9865 37.0115 98.5354 37.2891 97.7753 37.2197L97.7753 39.0242ZM96.7388 41.5921L96.7388 36.3175L99.0882 36.3175C101.99 36.3869 102.06 40.4817 97.7753 39.8571L97.7753 41.5921L96.7388 41.5921ZM101.161 41.5921L102.889 38.816L101.161 36.3175L102.474 36.3175L103.787 38.3996L104.202 38.3996L104.202 36.3175L105.238 36.3175L105.238 38.3996L105.722 38.3996L106.966 36.3175L108.279 36.3175L106.551 38.816L108.348 41.5921L107.104 41.5921L105.722 39.3018L105.238 39.3018L105.238 41.5921L104.202 41.5921L104.202 39.3018L103.787 39.3018L102.405 41.5921L101.161 41.5921ZM110.352 39.3712L112.01 39.3712L111.319 37.2197L111.043 37.2197L110.352 39.3712ZM108.555 41.5921L110.421 36.3175L112.01 36.3175L113.876 41.5921L112.77 41.5921L112.287 40.2735L110.075 40.2735L109.592 41.5921L108.555 41.5921ZM85.959 34.5824L85.959 29.3078L88.032 29.3078L88.9994 33.6802L89.1376 33.6802L90.036 29.3078L92.0399 29.3078L92.0399 34.5824L91.0034 34.5824L91.0034 30.21L90.8652 30.21L89.9669 34.5824L88.1702 34.5824L87.2028 30.21L87.0646 30.21L87.0646 34.5824L85.959 34.5824ZM95.564 33.7496C97.8444 33.819 97.7753 30.0018 95.4949 30.0712C93.2146 30.1406 93.2837 33.819 95.564 33.7496ZM95.564 34.6518C91.8326 34.7906 91.8326 29.0301 95.564 29.1689C99.2955 29.3078 99.2264 34.7906 95.564 34.6518ZM102.889 32.7779L103.994 32.9167C103.234 35.8317 98.5354 34.7906 98.95 31.9451C99.3646 29.0995 102.889 28.0585 103.925 30.6264L102.889 31.0428C102.198 29.3078 99.7792 30.21 100.056 31.9451C100.332 33.6802 102.336 34.5824 102.889 32.7779ZM104.754 34.5824L104.754 29.3078L105.86 29.3078L105.86 31.3204L106.413 31.3204L108.14 29.3078L109.453 29.3078L107.38 31.7369L109.592 34.5824L108.279 34.5824L106.413 32.2227L105.86 32.2227L105.86 34.5824L104.754 34.5824ZM112.356 33.7496C114.636 33.819 114.567 30.0018 112.287 30.0712C110.006 30.1406 110.075 33.819 112.356 33.7496ZM112.356 34.6518C108.693 34.7906 108.624 29.0301 112.356 29.1689C116.087 29.3078 116.018 34.7906 112.356 34.6518ZM116.916 31.4593C117.538 31.3899 119.128 31.7369 119.128 30.8346C119.128 29.9324 117.538 30.2794 116.916 30.21L116.916 31.4593ZM116.916 33.6802C117.538 33.5414 119.266 34.0272 119.266 32.9861C119.266 31.9451 117.538 32.3615 116.916 32.2921L116.916 33.6802ZM115.88 34.5824L115.88 29.3078L118.437 29.3078C120.164 29.0301 120.786 31.3204 119.266 31.8757C120.993 32.3615 120.233 34.7906 118.506 34.5824L115.88 34.5824ZM126.729 34.5824L126.729 29.3078L127.834 29.3078L127.834 31.3204L128.387 31.3204L130.115 29.3078L131.428 29.3078L129.285 31.7369L131.497 34.5824L130.184 34.5824L128.387 32.2227L127.834 32.2227L127.834 34.5824L126.729 34.5824ZM133.501 32.2921L135.159 32.2921L134.468 30.21L134.261 30.21L133.501 32.2921ZM131.704 34.5824L133.57 29.3078L135.159 29.3078L137.094 34.5824L135.919 34.5824L135.505 33.1943L133.224 33.1943L132.74 34.5824L131.704 34.5824ZM140.963 31.6675L140.963 30.21C140.272 30.2794 138.683 29.863 138.752 30.904C138.821 31.9451 140.272 31.5981 140.963 31.6675ZM137.578 34.5824C137.785 33.819 137.647 32.4309 138.614 32.1533C136.887 31.3899 137.785 29.0995 139.581 29.3078L142 29.3078L142 34.5824L140.963 34.5824L140.963 32.5697C138.614 32.4309 139.029 32.6391 138.683 34.5824L137.578 34.5824ZM19 46.4504L19 24.3107L42.8399 24.3107L42.8399 11.0547L80.8455 11.0547L80.8455 46.4504L19 46.4504Z" fill="rgb(0,44,62)" fill-rule="nonzero" />
		<path id="path" d="M31.9219 39.4408L31.4382 39.4408L29.0197 29.308L24.459 29.308L24.459 41.5923L26.8084 41.5923L26.8084 31.4595L27.2921 31.4595L29.7107 41.5923L33.7185 41.5923L36.1371 31.4595L36.6208 31.4595L36.6208 41.5923L38.9702 41.5923L38.9702 29.308L34.4095 29.308L31.9219 39.4408ZM55.9 41.5923L64.2612 41.5923L64.2612 39.4408L58.3185 39.4408L58.3185 36.3871L63.432 36.3871L63.432 34.305L58.3185 34.305L58.3185 31.4595L64.2612 31.4595L64.2612 29.308L55.9 29.308L55.9 41.5923ZM47.4697 39.7879C44.7747 39.7879 43.5309 37.914 43.5309 35.4154C43.5309 32.9169 44.7747 31.1124 47.4697 31.1124C50.1646 31.1124 51.4084 32.9863 51.4084 35.4154C51.4084 37.8446 50.1646 39.7879 47.4697 39.7879ZM47.4697 28.9609C43.3927 28.9609 41.0433 31.5983 41.0433 35.4154C41.0433 39.2326 43.3927 41.9394 47.4697 41.9394C51.5466 41.9394 53.8961 39.2326 53.8961 35.4154C53.8961 31.5983 51.5466 28.9609 47.4697 28.9609ZM65.9197 41.5923L68.4764 41.5923L71.3095 36.7341L74.4191 41.5923L76.9758 41.5923L72.8989 35.1378L76.7685 29.308L74.1427 29.308L71.4478 33.6804L68.7528 29.308L66.127 29.308L69.8584 35.0684L65.9197 41.5923Z" fill="rgb(255,255,255)" fill-rule="nonzero" />
	</g>
</svg>
