<svg viewBox="0 0 160.5 56.6484" xmlns="http://www.w3.org/2000/svg" xmlns:xlink="http://www.w3.org/1999/xlink" width="106" height="21" fill="none" customFrame="#000000">
	<rect id="1" width="160.500000" height="56.647060" x="0.000000" y="0.000000" fill="rgb(255,255,255)" fill-opacity="0" />
	<g id="Сочетание 356">
		<g id="g">
			<path id="path" d="M27 28.3814C27 22.6502 31.6709 18.0089 37.4387 17.9961L37.4387 21.7528C33.7613 21.7528 30.7806 24.7273 30.7806 28.3814C30.7806 32.0483 33.7742 35.01 37.4516 35.01C41.1161 35.01 44.1225 32.0739 44.1225 28.3557L47.9031 28.3557C47.9031 34.1125 43.2322 38.7667 37.4516 38.7667C31.6709 38.7667 27 34.1125 27 28.3814Z" fill="rgb(0,44,62)" fill-rule="evenodd" />
			<path id="path" d="M32.8438 28.3802C32.8438 25.8416 34.9212 23.7773 37.476 23.7773C40.0308 23.7773 42.1082 25.8416 42.1082 28.3802C42.1082 30.9317 40.0308 32.9831 37.476 32.9831C34.9212 32.9831 32.8438 30.9188 32.8438 28.3802Z" fill="rgb(0,44,62)" fill-rule="nonzero" />
			<path id="path" d="M40.6904 22.5474C40.6904 21.0858 41.8775 19.9062 43.3485 19.9062C44.8194 19.9062 46.0065 21.0858 46.0065 22.5474C46.0065 24.0091 44.8194 25.1886 43.3485 25.1886C41.8775 25.1886 40.6904 24.0091 40.6904 22.5474Z" fill="rgb(0,44,62)" fill-rule="nonzero" />
			<g id="g">
				<path id="path" d="M122.29 25.1617L121.967 26.7387C121.206 30.162 120.935 31.2647 120.277 34.6752L120.135 34.8034L118.045 34.8675L117.942 34.7265L118.78 31.2134L119.026 30.0595C118.122 30.0338 117.232 30.021 116.329 30.021C115.632 30.021 115.09 30.0338 114.548 30.0467C114.238 31.4314 113.98 32.6366 113.593 34.6752L113.451 34.8034L111.361 34.8675L111.258 34.7265L112.097 31.2134L112.432 29.6877C112.987 27.2773 113.09 26.7516 113.413 24.5335L113.555 24.3924C114.509 24.2642 114.742 24.2258 115.722 24.0206L115.826 24.1617L115.606 25.1746L115.284 26.7516L114.948 28.2389C115.697 28.2517 116.458 28.2645 117.219 28.2645C118.019 28.2645 118.548 28.2517 119.438 28.226C119.722 26.9183 119.838 26.2131 120.096 24.5207L120.238 24.3796C121.206 24.2514 121.426 24.213 122.419 24.0078L122.522 24.1488L122.29 25.1617Z" fill="rgb(0,44,62)" fill-rule="nonzero" />
				<path id="path" d="M97.0897 29.7411C97.2316 29.1513 97.3349 28.5487 97.3349 27.9846C97.3349 25.9075 95.9929 25.5613 95.2317 25.5613C91.993 25.5613 91.5801 30.5617 91.5801 31.3181C91.5801 32.9593 92.5736 33.6772 93.6833 33.6772C95.8897 33.6772 96.7155 31.4207 97.0897 29.7411ZM99.2316 30.3822C98.78 32.1515 97.5155 35.203 93.6446 35.203C90.8962 35.203 89.3994 33.7926 89.3994 30.9976C89.3994 30.6386 89.4252 30.2411 89.4897 29.818C89.5026 29.7155 89.5155 29.6129 89.5284 29.5103C90.2768 24.8946 92.2897 20.5097 96.7155 20.4713C97.3091 20.4584 98.4961 20.4072 99.309 20.2148L98.9994 22.0483C98.1736 22.2534 96.8833 22.3688 96.122 22.3688C95.18 22.3816 94.5349 22.7278 94.0833 23.1637C93.8639 23.3689 93.6833 23.6125 93.5542 23.8176C93.4252 24.0228 93.322 24.2151 93.2574 24.369C93.851 24.1895 94.4961 24.0741 95.2187 24.0741C97.9155 24.0741 99.5284 25.5742 99.5284 28.2154C99.5413 28.9205 99.4123 29.6642 99.2316 30.3822Z" fill="rgb(0,44,62)" fill-rule="nonzero" />
				<path id="path" d="M125.838 28.4881C126.328 28.065 126.612 27.7957 127.296 27.1418C128.006 26.4495 129.761 24.6545 130.083 24.3083L130.316 24.1929L132.677 24.1929L132.741 24.3724C132.535 24.5519 132.432 24.6417 131.606 25.334C131.283 25.6033 131.077 25.8084 130.69 26.1546L128.019 28.6035L131.206 34.6295L131.077 34.7962L128.793 34.8603L128.625 34.7321C128.096 33.4628 127.954 33.1807 127.206 31.6934L125.761 28.7958C125.309 30.7959 125.025 32.0652 124.522 34.6936L124.38 34.8218L122.29 34.8859L122.187 34.7449L123.025 31.2318L123.348 29.7061C123.903 27.2957 124.006 26.77 124.328 24.5519L124.47 24.4109C125.438 24.2827 125.657 24.2442 126.651 24.0391L126.754 24.1801L126.535 25.193L126.212 26.77L125.838 28.4881Z" fill="rgb(0,44,62)" fill-rule="nonzero" />
				<path id="path" d="M107.671 32.2013C107.451 32.3808 107.219 32.5859 106.987 32.7269C106.458 33.0603 105.748 33.2013 105.193 33.2013C103.309 33.2013 102.78 31.6243 102.78 30.6499C102.78 30.5473 102.819 27.9061 104.987 26.4445C106.2 25.6239 107.542 25.5855 108.225 25.5855C108.535 25.5855 108.845 25.5983 109.154 25.5983L107.671 32.2013ZM111.619 24.2264L111.516 24.0597L108.664 24.0469C106.767 24.0469 104.109 24.1623 102.187 26.406C101.322 27.4317 100.535 29.1882 100.535 30.8037C100.535 33.3552 102.251 34.8296 104.354 34.8296C106.109 34.8296 107.013 34.0732 107.361 33.7911L107.219 34.6117L107.322 34.7527L109.258 34.7142L109.4 34.5732C109.813 32.1371 109.954 31.3679 110.677 28.2138L111.619 24.2264Z" fill="rgb(0,44,62)" fill-rule="nonzero" />
			</g>
			<g id="g">
				<path id="path" d="M57.2572 35.136C55.0249 35.136 51.7992 34.4308 52.9733 29.3023C53.4121 27.3791 54.754 23.2891 60.2636 23.2891C65.6184 23.2891 64.8185 27.6483 64.4959 29.1869C63.5023 33.5333 60.8314 35.136 57.2572 35.136ZM57.9927 32.8666C59.5669 32.8666 60.3023 31.2383 60.7798 29.1484C61.1152 27.674 61.4765 25.5072 59.5798 25.5072C57.9669 25.5072 57.2443 27.0457 56.7798 29.1484C56.3282 31.0973 56.2249 32.8666 57.9927 32.8666Z" fill="rgb(0,44,62)" fill-rule="nonzero" />
				<path id="path" d="M70.3535 34.8804C69.3213 34.8804 67.618 34.8804 66.9084 34.906C67.1019 34.2265 67.4761 32.252 67.9793 30.0082C68.3922 28.1876 68.7535 26.5849 68.8955 25.8541C68.031 25.8798 66.7019 25.8798 66.0439 25.8926L65.9277 25.7387C66.0955 25.1874 66.3406 24.2258 66.4955 23.6488L66.689 23.5335C67.2697 23.5591 69.4503 23.5719 71.218 23.5719C73.3471 23.5719 75.4245 23.5335 75.8632 23.5078L76.0051 23.6232C75.8503 24.1361 75.5664 25.1874 75.4245 25.7131L75.218 25.8413C74.3664 25.8285 73.7212 25.8285 72.4825 25.8285C72.3793 26.29 72.0438 27.6619 71.489 30.098C71.0761 31.9443 70.7277 33.6238 70.5342 34.7008L70.3535 34.8804Z" fill="rgb(0,44,62)" fill-rule="nonzero" />
				<path id="path" d="M82.3154 26.1106C81.6186 26.1106 80.8444 26.1362 80.496 26.1362C80.3928 26.6106 79.967 28.3671 79.5799 30.0723C79.1283 32.0853 78.7154 33.97 78.5605 34.7521L78.3541 34.8804C77.296 34.8804 75.9412 34.8804 74.8573 34.906C75.0767 34.0213 75.5283 31.5083 76.0702 29.1236C76.6122 26.726 77.0896 24.3797 77.2315 23.713L77.4122 23.5591C78.5734 23.5591 79.7476 23.5976 82.6379 23.5976C84.896 23.5976 87.0895 23.5335 88.2508 23.5078C88.096 24.0848 87.5541 26.9696 86.9347 29.7005C86.4315 31.9058 85.967 34.0983 85.8508 34.7265L85.696 34.8547C84.767 34.8547 83.0767 34.8547 82.1863 34.8803L82.096 34.7265C82.2896 33.9828 82.7025 32.252 83.1928 30.1108C83.567 28.4825 83.9283 26.7516 84.0831 26.1105C83.7218 26.1362 82.9605 26.1106 82.3154 26.1106Z" fill="rgb(0,44,62)" fill-rule="nonzero" />
			</g>
		</g>
	</g>
</svg>
