<svg viewBox="0 0 125.1 27" xmlns="http://www.w3.org/2000/svg" xmlns:xlink="http://www.w3.org/1999/xlink" width="125.099609" height="27.000000" fill="none">
	<rect id="Raiffeisen_Bank_RU_Logo" width="125.100006" height="27.000000" x="0.000000" y="0.000000" />
	<g id="g">
		<g id="g">
			<path id="path" d="M117.539 10.7614L120.111 10.7614L120.111 7.83L122.488 7.83L122.488 10.7614L125.06 10.7614L125.06 3.43286L122.488 3.43286L122.488 6.01714L120.111 6.01714L120.111 3.43286L117.539 3.43286L117.539 10.7614ZM101.833 5.51571C102.379 5.16857 103.119 4.89857 103.743 4.89857C104.054 4.89857 104.795 4.93714 104.795 5.55429C104.795 6.17143 104.171 6.17143 103.938 6.17143L102.651 6.17143L102.651 7.75286L103.782 7.75286C104.132 7.75286 104.834 7.79143 104.834 8.37C104.834 8.60143 104.678 9.06429 103.782 9.06429C102.885 9.06429 102.301 8.83286 101.56 8.37L100.898 10.1057C102.301 10.9157 103.587 10.9929 104.21 10.9929C107.172 10.9929 107.523 9.29571 107.523 8.75571C107.523 7.98429 107.055 7.21286 106.042 6.94286C106.705 6.67286 107.094 6.01714 107.094 5.24571C107.094 3.54857 105.263 3.20143 104.171 3.20143C103.119 3.20143 101.95 3.51 101.17 3.93429L101.833 5.51571ZM96.26 2.50714C97.4292 2.50714 98.6373 2.04429 99.1829 0.81L97.5071 0.192857C97.3123 1.04143 96.5718 1.08 96.26 1.08C95.9483 1.08 95.2468 1.04143 95.0519 0.192857L93.3761 0.81C93.8438 2.04429 95.0909 2.50714 96.26 2.50714ZM92.207 3.43286L92.207 10.7229L94.7401 10.7229L97.3123 6.71143L97.3123 10.7229L99.8844 10.7229L99.8844 3.43286L97.3902 3.43286L94.8181 7.32857L94.8181 3.43286L92.207 3.43286ZM75.0203 9.18L75.0203 5.13C74.1629 5.13 73.2666 5.74714 73.2666 7.17429C73.2666 8.52429 74.1629 9.18 75.0203 9.18ZM77.3197 5.13L77.3197 9.18C78.177 9.18 79.0734 8.56286 79.0734 7.17428C79.0734 5.74714 78.177 5.13 77.3197 5.13ZM74.8644 13.9243L74.8644 10.8771C73.3056 10.8771 70.7724 10.26 70.7724 7.09714C70.7724 3.97286 73.3056 3.31714 74.8644 3.35571L74.8644 0.154286L77.4366 0.154286L77.4366 3.31714C78.9955 3.31714 81.5286 3.93429 81.5286 7.05857C81.5286 10.2214 78.9955 10.8386 77.4366 10.8386L77.4366 13.8857L74.8644 13.9243ZM63.4067 9.18L63.4067 5.13C62.5493 5.13 61.6529 5.74714 61.6529 7.17429C61.614 8.52429 62.5103 9.18 63.4067 9.18ZM65.667 5.13L65.667 9.18C66.5244 9.18 67.4208 8.56286 67.4208 7.17428C67.4208 5.74714 66.5244 5.13 65.667 5.13ZM63.2118 13.9243L63.2118 10.8771C61.6529 10.8771 59.1198 10.26 59.1198 7.09714C59.1198 3.97286 61.6529 3.31714 63.2118 3.35571L63.2118 0.154286L65.784 0.154286L65.784 3.31714C67.3428 3.31714 69.876 3.93429 69.876 7.05857C69.876 10.2214 67.3428 10.8386 65.784 10.8386L65.784 13.8857L63.2118 13.9243ZM54.2872 2.50714C55.4564 2.50714 56.6645 2.04429 57.2101 0.81L55.5343 0.192857C55.3395 1.04143 54.599 1.08 54.2872 1.08C53.9754 1.08 53.274 1.04143 53.0401 0.192857L51.3643 0.81C51.9099 2.04429 53.1181 2.50714 54.2872 2.50714ZM50.2341 3.43286L50.2341 10.7229L52.7283 10.7229L55.3005 6.71143L55.3005 10.7229L57.8727 10.7229L57.8727 3.43286L55.3784 3.43286L52.8063 7.32857L52.8063 3.43286L50.2341 3.43286ZM34.4505 2.31429L34.4505 4.74429L35.3858 4.74429C36.6719 4.74429 36.7888 3.97286 36.7888 3.51C36.7888 3.00857 36.6329 2.31429 35.3858 2.31429L34.5674 2.31429L34.4505 2.31429ZM31.6445 10.7614L31.6445 0L36.0094 0C38.9712 0 39.7896 2.08286 39.7896 3.54857C39.7896 5.01429 38.9323 7.09714 36.0094 7.09714L34.4115 7.09714L34.4115 10.7614L31.6445 10.7614ZM90.6091 3.43286L90.6091 10.7229L88.0369 10.7229L88.0369 9.91286L87.998 9.91286C87.5303 10.6457 86.634 10.9543 85.8155 10.9543C83.6721 10.9543 82.1522 9.14143 82.1522 7.05857C82.1522 4.97571 83.6331 3.16286 85.8155 3.16286C86.634 3.16286 87.5303 3.47143 88.0759 4.12714L88.0759 3.43286L90.6091 3.43286ZM86.4391 5.43857C85.3869 5.43857 84.7633 6.21 84.7633 7.09714C84.7633 8.02286 85.3869 8.71714 86.4391 8.71714C87.4913 8.71714 88.1149 7.98429 88.1149 7.09714C88.1149 6.21 87.4913 5.43857 86.4391 5.43857ZM48.6363 3.43286L48.6363 10.7229L46.0641 10.7229L46.0641 9.91286C45.5965 10.6457 44.6612 10.9543 43.8427 10.9543C41.6993 10.9543 40.1794 9.14143 40.1794 7.05857C40.1794 4.97571 41.6603 3.16286 43.8427 3.16286C44.6612 3.16286 45.5575 3.47143 46.1031 4.12714L46.1031 3.43286L48.6363 3.43286ZM44.4663 5.43857C43.414 5.43857 42.7905 6.21 42.7905 7.09714C42.7905 8.02286 43.414 8.71714 44.4663 8.71714C45.5185 8.71714 46.1421 7.98429 46.1421 7.09714C46.1421 6.21 45.5185 5.43857 44.4663 5.43857ZM116.253 7.40571L116.253 7.67571L110.836 7.67571C110.836 8.71714 111.381 9.29571 112.433 9.29571C112.979 9.29571 113.369 9.10286 113.681 8.64L116.175 8.64C115.746 10.3757 114.148 11.1471 112.472 11.1471C110.056 11.1471 108.263 9.79714 108.263 7.25143C108.263 4.82143 109.939 3.35571 112.278 3.35571C114.811 3.35571 116.253 4.89857 116.253 7.40571ZM110.875 6.17143L113.875 6.17143C113.758 5.47714 113.096 5.01429 112.394 5.01429C111.654 5.01429 111.03 5.43857 110.875 6.17143ZM35.7755 22.41L34.9961 22.41L34.6064 24.6857L35.3469 24.6857C37.0616 24.6857 37.3734 24.2229 37.4903 23.6057C37.6072 22.9114 37.4513 22.41 35.7755 22.41ZM40.4522 23.6057C40.3353 24.3386 40.1014 25.0714 39.5558 25.5729C38.3867 26.73 36.6329 26.8071 35.5417 26.8457L31.2158 26.8457L33.0475 16.1229L40.4522 16.1229L40.1014 18.2443L35.6197 18.2443L35.2689 20.4043L36.555 20.4043C37.5293 20.4043 38.7374 20.52 39.5948 21.2529C40.2963 21.7929 40.647 22.6029 40.4522 23.6057ZM48.2466 24.9943L44.1545 24.9943L43.0633 26.8457L39.9066 26.8457L46.1031 16.1229L49.3378 16.1229L51.832 26.8457L48.6753 26.8457L48.2466 24.9943ZM47.8179 22.8343L47.1943 19.4014L45.3626 22.8343L47.8179 22.8343ZM68.3951 16.1229L65.3942 16.1229L63.6015 26.8457L66.5634 26.8457L67.3428 22.1786L67.3818 22.1786L70.4216 26.8457L74.2798 26.8457L70.2657 21.2143L75.6439 16.1229L71.9805 16.1229L67.6546 20.5586L67.6156 20.5586L68.3951 16.1229ZM56.9373 16.1229L56.2748 20.1343L60.211 20.1343L60.8735 16.1229L63.7574 16.1229L62.0037 26.8457L59.1198 26.8457L59.8602 22.2171L55.924 22.2171L55.1836 26.8457L52.2997 26.8457L54.0534 16.1229L56.9373 16.1229Z" fill="rgb(0,44,62)" fill-rule="nonzero" />
		</g>
		<g id="g">
			<path id="path" d="M0.896355 0.887143L26.2281 0.887143L26.2281 25.9586L0.896357 25.9586L0.896355 0.887143ZM0 26.8457L27.1245 26.8457L27.1245 0L0 0L0 26.8457Z" fill="rgb(0,44,62)" fill-rule="nonzero" />
			<g id="g">
				<path id="path" d="M13.5625 16.4724L5.76811 24.1866L2.68932 21.1395L10.4837 13.4252L8.8469 11.8052L8.8469 8.64235L7.71671 7.52378L7.71671 10.3009L6.74241 11.2652L2.76727 7.3695L1.79297 8.33378C1.79297 7.60093 1.94886 5.4795 3.74157 3.74378C5.69017 1.89236 7.79465 2.74093 8.53512 3.43521L12.5103 7.33093L11.497 8.33378L13.5625 10.3781L15.628 8.33379L14.6147 7.33093L18.5899 3.39664C19.3304 2.70236 21.4348 1.85378 23.3834 3.70521C25.1761 5.4795 25.332 7.56236 25.332 8.29521L24.3577 7.33093L20.3826 11.2652L19.4083 10.3009L19.4083 7.52378L18.2781 8.64236L18.2781 11.8052L16.6413 13.4252L24.4357 21.1395L21.3569 24.1866L13.5625 16.4724Z" fill="rgb(0,44,62)" fill-rule="nonzero" />
			</g>
		</g>
	</g>
</svg>
