<svg viewBox="0 0 120.698 119.066" xmlns="http://www.w3.org/2000/svg" xmlns:xlink="http://www.w3.org/1999/xlink" width="120.698242" height="119.066406" fill="none" customFrame="#000000">
	<path id="path" d="M46.5364 0.118854C46.5364 0.118854 5.36946 -3.2389 0.326699 25.7397C-0.945861 33.0526 1.60286 39.2047 6.1694 43.9874C19.6986 58.1572 50.9393 60.3071 52.9922 45.0112C55.3533 27.4193 19.3362 23.7982 6.1694 43.9874M6.1694 43.9874C4.02363 47.2776 2.48474 51.2002 1.81772 55.7977C0.0283271 68.1312 5.59195 77.4623 13.3744 83.4652M46.9884 84.3563C49.3383 70.3836 22.0242 68.8136 13.3744 83.4652C26.2941 93.4308 45.3288 94.2243 46.9884 84.3563ZM13.3744 83.4652C12.2356 85.3942 11.4203 87.6043 11.0389 90.1043C7.75976 111.593 36.749 116.471 36.749 116.471" fill-rule="nonzero" stroke="rgb(51,196,233)" stroke-width="6.31519651" transform="matrix(0.692018,0.721881,-0.720782,0.693164,83.9502,0)" />
</svg>
