<svg viewBox="0 0 117.844 111.844" xmlns="http://www.w3.org/2000/svg" xmlns:xlink="http://www.w3.org/1999/xlink" width="117.843750" height="111.843750" fill="none" customFrame="#000000">
	<path id="path" d="M44.6934 0.114098C44.6934 0.114098 5.15682 -3.10929 0.313761 24.7097C-0.908402 31.73 1.53938 37.6359 5.92507 42.2273C18.9185 55.83 48.922 57.8939 50.8936 43.2101C53.1612 26.3221 18.5704 22.8459 5.92507 42.2273M5.92507 42.2273C3.86429 45.3858 2.38633 49.1514 1.74573 53.5649C0.0272052 65.405 5.37049 74.3626 12.8447 80.1254C25.2528 89.6922 43.5337 90.4539 45.1276 80.9807C47.3844 67.5672 21.1519 66.0601 12.8447 80.1254M12.8447 80.1254C11.751 81.9771 10.9681 84.0988 10.6017 86.4987C7.45246 107.128 35.2937 111.811 35.2937 111.811" fill-rule="nonzero" stroke="rgb(51,196,233)" stroke-width="8" transform="matrix(0.656043,0.754724,-0.754724,0.656043,84.3857,0)" />
</svg>
