<svg viewBox="0 0 71.1992 70.75" xmlns="http://www.w3.org/2000/svg" xmlns:xlink="http://www.w3.org/1999/xlink" width="71.199219" height="70.750000" fill="none" customFrame="#000000">
	<path id="path" d="M26.5965 0C23.7427 17.7864 22.1362 25.1162 0 27.6278C20.732 29.0511 23.8294 35.281 26.5965 52.8278C28.9918 34.5766 32.6261 27.6278 53.7711 26.4557C32.7913 24.0278 27.4224 20.679 26.5965 0Z" fill="rgb(255,255,255)" fill-rule="evenodd" transform="matrix(0.903928,-0.427685,0.427685,0.903928,0,22.998)" />
	<path id="path" d="M0 27.6278C20.732 29.0511 23.8294 35.281 26.5965 52.8278C28.9918 34.5766 32.6261 27.6278 53.7711 26.4557C32.7913 24.0278 27.4224 20.679 26.5965 0C23.7427 17.7864 22.1362 25.1162 0 27.6278Z" fill-rule="evenodd" stroke="rgb(51,196,233)" stroke-width="6" transform="matrix(0.903928,-0.427685,0.427685,0.903928,0,22.998)" />
</svg>
