<svg viewBox="0 0 52 52" xmlns="http://www.w3.org/2000/svg" xmlns:xlink="http://www.w3.org/1999/xlink" width="52.000000" height="52.000000" fill="none">
	<rect id="icon/TG" width="52.000000" height="52.000000" x="0.000000" y="0.000000" fill="rgb(255,255,255)" fill-opacity="0" />
	<path id="path" d="M11.9338 26.0925C19.514 22.8005 24.5602 20.6131 27.0942 19.5519C34.3062 16.5414 35.8222 16.0217 36.7968 16C37.0134 16 37.4899 16.0433 37.8147 16.3032C38.0746 16.5198 38.1396 16.8013 38.1829 17.0179C38.2262 17.2345 38.2695 17.6893 38.2262 18.0358C37.8364 22.1508 36.1471 32.1349 35.2808 36.7264C34.9126 38.6756 34.1979 39.3253 33.5049 39.3903C31.9888 39.5202 30.841 38.394 29.3899 37.4411C27.0942 35.9467 25.8164 35.0154 23.5857 33.5427C21.0084 31.8534 22.676 30.9221 24.1488 29.4061C24.5386 29.0162 31.1875 22.9521 31.3174 22.4107C31.3391 22.3457 31.3391 22.0858 31.1875 21.9559C31.0359 21.8259 30.8193 21.8692 30.646 21.9125C30.4078 21.9559 26.7693 24.3815 19.6873 29.1678C18.6477 29.8825 17.7164 30.2291 16.8718 30.2074C15.9405 30.1858 14.1646 29.6876 12.8218 29.2545C11.1975 28.7347 9.89802 28.4531 10.0063 27.5435C10.0713 27.0671 10.721 26.5906 11.9338 26.0925Z" fill="rgb(0,44,62)" fill-rule="evenodd" />
</svg>
