<svg viewBox="0 0 137.777 24" xmlns="http://www.w3.org/2000/svg" xmlns:xlink="http://www.w3.org/1999/xlink" width="137.777344" height="24.000000" fill="none">
	<rect id="VK_Full_Logo_(2021-present)" width="137.777771" height="24.000000" x="0.000000" y="0.000000" />
	<path id="path" d="M41.6501 15.09C41.6501 16.9366 39.9564 18.2737 37.5728 18.2737L31.9902 18.2737L31.9902 6.8125L37.3846 6.8125C39.7055 6.8125 41.3364 8.08598 41.3364 9.86882C41.3364 11.0786 40.7092 11.8427 39.7682 12.2884C40.7719 12.6705 41.6501 13.6892 41.6501 15.09ZM34.4365 8.91373L34.4365 11.397L37.3219 11.397C38.2001 11.397 38.7647 10.8876 38.7647 10.1872C38.7647 9.48679 38.1374 8.91373 37.3219 8.91373L34.4365 8.91373ZM37.5728 16.1725C38.5138 16.1725 39.2037 15.5994 39.2037 14.7717C39.2037 13.9439 38.5765 13.3709 37.5728 13.3709L34.4365 13.3709L34.4365 16.1725L37.5728 16.1725Z" fill="rgb(0,44,62)" fill-rule="nonzero" />
	<path id="path" d="M50.8709 18.21L46.982 13.6892L46.3548 13.6892L46.3548 18.21L43.8457 18.21L43.8457 6.8125L46.3548 6.8125L46.3548 11.2059L46.982 11.2059L50.7456 6.8125L53.6938 6.8125L48.9893 12.2884L54.1326 18.21L50.8709 18.21Z" fill="rgb(0,44,62)" fill-rule="nonzero" />
	<path id="path" d="M54.1318 12.5427C54.1318 9.10435 56.6413 6.62109 60.1536 6.62109C63.6665 6.62109 66.1754 9.10435 66.1754 12.5427C66.1754 15.9811 63.6665 18.4643 60.1536 18.4643C56.6413 18.4643 54.1318 15.9811 54.1318 12.5427ZM63.5412 12.5427C63.5412 10.3778 62.1609 8.91336 60.1536 8.91336C58.1464 8.91336 56.7666 10.3778 56.7666 12.5427C56.7666 14.7076 58.1464 16.1721 60.1536 16.1721C62.1609 16.1721 63.5412 14.7076 63.5412 12.5427Z" fill="rgb(0,44,62)" fill-rule="nonzero" />
	<path id="path" d="M75.7729 6.8125L78.2824 6.8125L78.2824 18.21L75.7729 18.21L75.7729 13.6255L70.7551 13.6255L70.7551 18.21L68.2461 18.21L68.2461 6.8125L70.7551 6.8125L70.7551 11.3333L75.7729 11.3333L75.7729 6.8125Z" fill="rgb(0,44,62)" fill-rule="nonzero" />
	<path id="path" d="M83.6763 18.21L83.6763 9.10471L79.7871 9.10471L79.7871 6.8125L90.0116 6.8125L90.0116 9.10471L86.1224 9.10471L86.1224 18.21L83.6763 18.21Z" fill="rgb(0,44,62)" fill-rule="nonzero" />
	<path id="path" d="M100.8 11.8423L100.8 18.2097L98.9808 18.2097L98.4791 16.4268C97.9145 17.3819 96.7229 18.4643 94.9039 18.4643C92.6455 18.4643 91.0146 16.9362 91.0146 14.835C91.0146 12.7337 92.6455 11.2693 95.9702 11.2693L98.4162 11.2693C98.2909 9.80476 97.5381 8.78602 96.1584 8.78602C95.0292 8.78602 94.2764 9.42273 93.9 10.1231L91.6421 9.74111C92.2067 7.76723 94.1511 6.62109 96.2836 6.62109C99.0437 6.62109 100.8 8.53128 100.8 11.8423ZM98.3538 13.2432L96.0331 13.2432C94.1511 13.2432 93.5236 13.8799 93.5236 14.7076C93.5236 15.6627 94.2764 16.2995 95.5309 16.2995C97.1617 16.2995 98.3538 15.0897 98.3538 13.2432Z" fill="rgb(0,44,62)" fill-rule="nonzero" />
	<path id="path" d="M110.461 18.21L106.572 13.6892L105.945 13.6892L105.945 18.21L103.436 18.21L103.436 6.8125L105.945 6.8125L105.945 11.2059L106.572 11.2059L110.335 6.8125L113.284 6.8125L108.579 12.2884L113.722 18.21L110.461 18.21Z" fill="rgb(0,44,62)" fill-rule="nonzero" />
	<path id="path" d="M118.238 18.21L118.238 9.10471L114.35 9.10471L114.35 6.8125L124.574 6.8125L124.574 9.10471L120.685 9.10471L120.685 18.21L118.238 18.21Z" fill="rgb(0,44,62)" fill-rule="nonzero" />
	<path id="path" d="M137.119 13.2432L128.086 13.2432C128.337 15.026 129.592 16.1721 131.473 16.1721C132.791 16.1721 133.795 15.5991 134.359 14.7713L136.68 15.1533C135.864 17.3183 133.669 18.4643 131.285 18.4643C127.898 18.4643 125.452 15.9811 125.452 12.5427C125.452 9.10435 127.898 6.62109 131.285 6.62109C134.673 6.62109 137.119 9.10435 137.119 12.4154C137.182 12.7337 137.119 12.9885 137.119 13.2432ZM128.275 11.2693L134.485 11.2693C134.045 9.86845 132.916 8.84966 131.348 8.84966C129.843 8.78602 128.651 9.80476 128.275 11.2693Z" fill="rgb(0,44,62)" fill-rule="nonzero" />
	<path id="path" d="M0 11.6752C0 6.17142 0 3.41958 1.68435 1.70979C3.3687 0 6.07959 0 11.5014 0L12.4599 0C17.8818 0 20.5926 0 22.277 1.70979C23.9613 3.41958 23.9613 6.17142 23.9613 11.6752L23.9613 12.6481C23.9613 18.1518 23.9613 20.9037 22.277 22.6135C20.5926 24.3233 17.8818 24.3233 12.4599 24.3233L11.5014 24.3233C6.07959 24.3233 3.3687 24.3233 1.68435 22.6135C0 20.9037 0 18.1518 0 12.6481L0 11.6752Z" fill="rgb(0,44,62)" fill-rule="nonzero" />
	<path id="path" d="M12.7489 17.5269C7.28769 17.5269 4.17276 13.7264 4.04297 7.40234L6.77856 7.40234C6.86841 12.044 8.88511 14.0102 10.4825 14.4156L10.4825 7.40234L13.0585 7.40234L13.0585 11.4055C14.6359 11.2333 16.2931 9.40901 16.8522 7.40234L19.4281 7.40234C18.9987 9.87521 17.2016 11.6995 15.9237 12.4494C17.2016 13.0575 19.2484 14.6487 20.0272 17.5269L17.1917 17.5269C16.5826 15.6013 15.0652 14.1115 13.0585 13.9088L13.0585 17.5269L12.7489 17.5269Z" fill="rgb(255,255,255)" fill-rule="nonzero" />
</svg>
