<svg viewBox="0 0 98 28" xmlns="http://www.w3.org/2000/svg" xmlns:xlink="http://www.w3.org/1999/xlink" width="98.000000" height="28.000000" fill="none">
	<rect id="Yandex_logo_2021_Russian" width="98.000000" height="28.000000" x="0.000000" y="0.000000" />
	<path id="Name" d="M93.434 24.3804C95.3567 24.3804 96.7185 24.037 97.7332 23.2974L97.7332 19.9427C96.6918 20.6559 95.4368 21.105 93.6744 21.105C90.7103 21.105 89.482 18.8333 89.482 15.2408C89.482 11.4634 90.9773 9.53514 93.701 9.53514C95.3032 9.53514 96.8787 10.0899 97.7065 10.6182L97.7065 7.13137C96.8253 6.6559 95.3032 6.3125 93.2204 6.3125C87.9065 6.3125 85.1561 10.0899 85.1561 15.3729C85.1828 21.1578 87.8798 24.3804 93.434 24.3804ZM67.452 22.8484L67.452 19.4936C66.1703 20.3653 63.9806 21.1314 61.9779 21.1314C58.9338 21.1314 57.7855 19.705 57.5986 16.7993L67.6389 16.7993L67.6389 14.6333C67.6389 8.5842 64.9419 6.3125 60.803 6.3125C55.7294 6.3125 53.3261 10.1427 53.3261 15.3993C53.3261 21.4484 56.3436 24.3804 61.6308 24.3804C64.2744 24.3804 66.2237 23.6672 67.452 22.8484ZM29.3468 6.62948L29.3468 13.4974L23.7926 13.4974L23.7926 6.62948L19.627 6.62948L19.627 24.037L23.7926 24.037L23.7926 16.7729L29.3468 16.7729L29.3468 24.037L33.5125 24.037L33.5125 6.62948L29.3468 6.62948ZM52.2847 20.7616L50.4422 20.7616L50.4422 6.62948L38.319 6.62948L38.319 8.10873C38.319 12.3616 38.052 17.8559 36.5834 20.7616L35.2482 20.7616L35.2482 27.9993L39.0934 27.9993L39.0934 24.037L48.4128 24.037L48.4128 27.9993L52.258 27.9993L52.258 20.7616L52.2847 20.7616ZM80.7234 24.037L85.4498 24.037L78.7741 14.6597L84.6488 6.62948L80.4564 6.62948L74.5817 14.6597L74.5817 6.62948L70.416 6.62948L70.416 24.037L74.5817 24.037L74.5817 15.4785L80.7234 24.037ZM60.6962 9.53514C62.7523 9.53514 63.3932 11.2257 63.3932 13.4182L63.3932 13.7616L57.5986 13.7616C57.7054 10.988 58.7201 9.53514 60.6962 9.53514ZM46.2765 20.7616L40.4019 20.7616C41.5501 18.1465 41.8706 13.3917 41.8706 10.3804L41.8706 9.85212L46.2765 9.85212L46.2765 20.7616Z" fill="rgb(0,44,62)" fill-rule="nonzero" />
	<path id="Glyph" d="M16.1553 24.0377L11.9095 24.0377L11.9095 3.24906L10.0136 3.24906C6.54224 3.24906 4.72643 4.96604 4.72643 7.5283C4.72643 10.434 5.98147 11.7811 8.57166 13.4981L10.7079 14.9245L4.56621 24.0377L0 24.0377L5.52752 15.9019C2.34986 13.6566 0.560763 11.4642 0.560763 7.76604C0.560763 3.1434 3.81853 0 9.98692 0L16.1286 0L16.1553 24.0377Z" fill="rgb(0,44,62)" fill-rule="nonzero" />
</svg>
